<svg width="78" height="73" viewBox="0 0 78 73" fill="none" xmlns="http://www.w3.org/2000/svg">
<path fill-rule="evenodd" clip-rule="evenodd" d="M76.7 54.7109H75.3964C76.2438 53.5874 76.7014 52.2182 76.7 50.8109V46.9109C76.7 46.5662 76.563 46.2355 76.3192 45.9917C76.0754 45.7479 75.7448 45.6109 75.4 45.6109H65C64.6552 45.6109 64.3246 45.7479 64.0808 45.9917C63.837 46.2355 63.7 46.5662 63.7 46.9109V50.8109C63.699 51.6171 63.4485 52.4032 62.983 53.0615C62.5175 53.7197 61.8598 54.2177 61.1 54.4873V36.8179L62.6666 33.6847L66.7129 37.4613L68.4871 35.5605L63.8791 31.2597L64.0137 30.9904C64.5693 29.8792 64.6999 28.6034 64.3811 27.4027C64.0622 26.202 63.3158 25.1591 62.2821 24.47L59.8 22.8152V21.392C59.8 20.5156 59.4947 19.6665 58.9367 18.9908C58.3786 18.3151 57.6027 17.8548 56.7421 17.689C55.8815 17.5233 54.9901 17.6625 54.221 18.0826C53.4519 18.5028 52.8532 19.1777 52.5277 19.9914L52.3314 20.482L50.0163 18.3212C51.6946 15.8286 52.3547 12.788 51.861 9.82393C51.3672 6.85985 49.7571 4.19739 47.3614 2.38347C44.9658 0.569546 41.9664 -0.258097 38.9795 0.070555C35.9926 0.399207 33.245 1.8592 31.301 4.15061C29.3571 6.44203 28.3644 9.39088 28.527 12.3914C28.6895 15.3919 29.9949 18.2163 32.175 20.2843C34.3551 22.3523 37.2444 23.5069 40.2493 23.511C43.2542 23.5151 46.1466 22.3683 48.3323 20.3062L51.2955 23.0718L48.193 30.8281C48.1316 30.9817 48.1 31.1456 48.1 31.3109V54.7109H41.6V43.0109C41.5957 39.738 40.3584 36.5869 38.1346 34.1854C35.9108 31.784 32.8638 30.3086 29.6008 30.0533C30.6534 28.0333 31.2021 25.7887 31.2 23.511C31.2 23.1662 31.063 22.8355 30.8193 22.5917C30.5755 22.3479 30.2448 22.211 29.9 22.211H14.3C13.9552 22.211 13.6246 22.3479 13.3808 22.5917C13.137 22.8355 13 23.1662 13 23.511C12.998 25.7887 13.5466 28.0333 14.5992 30.0533C11.3362 30.3086 8.28925 31.784 6.06546 34.1855C3.84168 36.5869 2.60434 39.738 2.60002 43.0109V63.2725L1.68072 64.1917C1.14619 64.7233 0.722416 65.3557 0.433923 66.0522C0.145431 66.7487 -0.00204898 67.4955 2.15018e-05 68.2494V71.6109C2.49496e-05 71.9557 0.13699 72.2864 0.380786 72.5302C0.624583 72.774 0.955241 72.9109 1.30002 72.9109H76.7C77.0448 72.9109 77.3754 72.774 77.6192 72.5302C77.863 72.2864 78 71.9557 78 71.6109V56.0109C78 55.6662 77.863 55.3355 77.6192 55.0917C77.3754 54.8479 77.0448 54.7109 76.7 54.7109ZM40.3 20.9109C38.5002 20.9109 36.7408 20.3772 35.2443 19.3773C33.7478 18.3774 32.5815 16.9562 31.8927 15.2934C31.204 13.6306 31.0237 11.8009 31.3749 10.0356C31.726 8.2704 32.5927 6.64894 33.8653 5.37628C35.138 4.10363 36.7595 3.23693 38.5247 2.88581C40.2899 2.53468 42.1196 2.71489 43.7824 3.40365C45.4452 4.09241 46.8665 5.25878 47.8664 6.75526C48.8663 8.25175 49.4 10.0111 49.4 11.811C49.3973 14.2236 48.4377 16.5366 46.7317 18.2426C45.0257 19.9486 42.7127 20.9082 40.3 20.9109ZM66.3 50.8109V48.2109H74.1V50.8109C74.0988 51.8449 73.6876 52.8362 72.9564 53.5674C72.2253 54.2985 71.234 54.7098 70.2 54.7109H64.9964C65.8438 53.5874 66.3015 52.2182 66.3 50.8109ZM44.1745 67.7109H52V70.3109H44.2V68.2494C44.2 68.0684 44.191 67.8889 44.1745 67.7109ZM50.7 31.5613L54.9417 20.9571C55.0427 20.7044 55.2287 20.4948 55.4675 20.3643C55.7063 20.2338 55.9832 20.1906 56.2504 20.2421C56.5176 20.2935 56.7586 20.4365 56.9319 20.6463C57.1052 20.8562 57.2 21.1198 57.2 21.392V23.511C57.2 23.725 57.2528 23.9357 57.3538 24.1244C57.4548 24.313 57.6008 24.4739 57.7789 24.5926L60.8401 26.6334C61.3464 26.971 61.7121 27.4819 61.8683 28.0701C62.0245 28.6583 61.9604 29.2833 61.6883 29.8277L58.6373 35.9296C58.547 36.1101 58.5 36.3091 58.5 36.5109V54.7109H50.7V31.5613ZM52 57.3109V59.9109H41.6V57.3109H52ZM28.5275 24.8109C28.3218 26.644 27.6797 28.401 26.6551 29.9348L26.6043 30.0109H17.5957L17.5449 29.9349C16.5203 28.4011 15.8782 26.644 15.6725 24.8109H28.5275ZM62.4 70.3109H54.6V57.3109H62.4V70.3109ZM41.6 70.3109H2.60002V68.2494C2.59889 67.8371 2.67956 67.4286 2.83736 67.0477C2.99516 66.6667 3.22695 66.3209 3.51932 66.0302L4.43855 65.1109H11.7V62.5109H5.20002V43.0109C5.20313 40.2537 6.29984 37.6102 8.24955 35.6605C10.1993 33.7108 12.8427 32.6141 15.6 32.6109H28.6C31.3573 32.6141 34.0008 33.7108 35.9505 35.6605C37.9002 37.6102 38.9969 40.2537 39 43.0109V63.8109C39 64.1557 39.1369 64.4864 39.3807 64.7302L40.6807 66.0302C40.9731 66.3209 41.2049 66.6667 41.3627 67.0477C41.5205 67.4286 41.6011 67.8371 41.6 68.2494V70.3109ZM42.5193 64.1917L41.6 63.2725V62.5109H52V65.1109H43.2667C43.0497 64.7798 42.7992 64.4718 42.5193 64.1917ZM65 70.3109V67.7109H75.4V70.3109H65ZM65 59.9109V57.3109H75.4V59.9109H65ZM23.4 48.2109H20.8C20.2829 48.2109 19.7869 48.0054 19.4212 47.6398C19.0555 47.2741 18.85 46.7781 18.85 46.2609C18.85 45.7437 19.0555 45.2477 19.4212 44.882C19.7869 44.5163 20.2829 44.3109 20.8 44.3109H26V41.7109H23.4V39.1109H20.8V41.7109C19.5933 41.7109 18.436 42.1903 17.5827 43.0436C16.7294 43.8968 16.25 45.0542 16.25 46.2609C16.25 47.4676 16.7294 48.6249 17.5827 49.4782C18.436 50.3315 19.5933 50.8109 20.8 50.8109H23.4C23.9172 50.8109 24.4132 51.0163 24.7789 51.382C25.1446 51.7477 25.35 52.2437 25.35 52.7609C25.35 53.2781 25.1446 53.7741 24.7789 54.1397C24.4132 54.5054 23.9172 54.7109 23.4 54.7109H16.9V57.3109H20.8V59.3825H23.4V57.3109C24.6068 57.3109 25.7641 56.8315 26.6174 55.9782C27.4707 55.1249 27.95 53.9676 27.95 52.7609C27.95 51.5542 27.4707 50.3968 26.6174 49.5436C25.7641 48.6903 24.6068 48.2109 23.4 48.2109ZM44.9869 6.93672L39.5941 12.3289L36.6134 9.34819L34.7749 11.1867L37.7556 14.1675L39.5941 16.006L41.4327 14.1675L46.8254 8.77524L44.9869 6.93672ZM75.4 65.1109H65V62.5109H75.4V65.1109Z" fill="#2F387B"/>
</svg>
