<svg width="78" height="78" fill="none" xmlns="http://www.w3.org/2000/svg"><path fill-rule="evenodd" clip-rule="evenodd" d="M71.493 12.868l6.5 63.7A1.299 1.299 0 0176.7 78H1.3a1.299 1.299 0 01-1.293-1.432l6.5-63.7A1.3 1.3 0 017.8 11.7h2.6v-1.3a10.397 10.397 0 0119.5-5.028 10.393 10.393 0 0118.2 0A10.398 10.398 0 0167.6 10.4v1.3h2.6a1.3 1.3 0 011.293 1.168zm-3.047 55.045l6.63 5.683-6.05-59.296h-2.852l-5.439 53.3H67.6c.31 0 .61.11.846.313zm-4.36 2.287H60.47l-.347 3.396 3.963-3.396zm9.1 5.2L67.6 70.612 62.014 75.4h11.172zM62.713 4.887A7.808 7.808 0 0057.2 2.6a7.809 7.809 0 00-7.8 7.8v5.2a7.813 7.813 0 006.5 7.692v-2.657A5.21 5.21 0 0152 15.6v-5.2a5.2 5.2 0 1110.4 0v1.3H65v-1.3a7.809 7.809 0 00-2.287-5.513zM54.6 10.4v1.3h5.2v-1.3a2.6 2.6 0 10-5.2 0zM44.513 4.887A7.808 7.808 0 0039 2.6a7.809 7.809 0 00-7.8 7.8v5.2a7.813 7.813 0 006.5 7.692v-2.657a5.21 5.21 0 01-3.9-5.035v-5.2a5.2 5.2 0 1110.4 0v1.3h2.6v-1.3a7.809 7.809 0 00-2.287-5.513zM36.4 10.4v1.3h5.2v-1.3a2.6 2.6 0 10-5.2 0zM15.285 4.885A7.8 7.8 0 0013 10.4v5.2a7.813 7.813 0 006.5 7.692v-2.657a5.21 5.21 0 01-3.9-5.035v-5.2a5.2 5.2 0 1110.4 0v1.3h2.6v-1.3a7.8 7.8 0 00-13.316-5.515zM18.2 10.4v1.3h5.2v-1.3a2.6 2.6 0 10-5.2 0zm-9.226 3.9L2.74 75.4h54.587l6.235-61.1H54.6v1.3a2.603 2.603 0 002.6 2.6 1.3 1.3 0 011.3 1.3v5.2a1.299 1.299 0 01-1.3 1.3 10.412 10.412 0 01-10.4-10.4v-1.3H36.4v1.3a2.603 2.603 0 002.6 2.6 1.3 1.3 0 011.3 1.3v5.2A1.299 1.299 0 0139 26a10.412 10.412 0 01-10.4-10.4v-1.3H18.2v1.3a2.603 2.603 0 002.6 2.6 1.3 1.3 0 011.3 1.3v5.2a1.299 1.299 0 01-1.3 1.3 10.412 10.412 0 01-10.4-10.4v-1.3H8.974zM28.6 28.6H39a1.3 1.3 0 011.3 1.3v10.4a1.3 1.3 0 01-1.3 1.3H28.6a1.299 1.299 0 01-1.3-1.3V29.9a1.299 1.299 0 011.3-1.3zM29.9 39h7.8v-7.8h-7.8V39zm24.7-10.4H44.2a1.3 1.3 0 00-1.3 1.3v10.4a1.299 1.299 0 001.3 1.3h10.4a1.299 1.299 0 001.3-1.3V29.9a1.3 1.3 0 00-1.3-1.3zM53.3 39h-7.8v-7.8h7.8V39zm-42.9 5.2h10.4a1.299 1.299 0 011.3 1.3v10.4a1.3 1.3 0 01-1.3 1.3H10.4a1.3 1.3 0 01-1.3-1.3V45.5a1.3 1.3 0 011.3-1.3zm1.3 10.4h7.8v-7.8h-7.8v7.8zm24.7-10.4H26a1.299 1.299 0 00-1.3 1.3v10.4a1.299 1.299 0 001.3 1.3h10.4a1.3 1.3 0 001.3-1.3V45.5a1.3 1.3 0 00-1.3-1.3zm-1.3 10.4h-7.8v-7.8h7.8v7.8zm-26 5.2h10.4a1.3 1.3 0 011.3 1.3v10.4a1.3 1.3 0 01-1.3 1.3H9.1a1.299 1.299 0 01-1.3-1.3V61.1a1.3 1.3 0 011.3-1.3zm1.3 10.4h7.8v-7.8h-7.8v7.8zm24.7-10.4H24.7a1.3 1.3 0 00-1.3 1.3v10.4a1.299 1.299 0 001.3 1.3h10.4a1.299 1.299 0 001.3-1.3V61.1a1.3 1.3 0 00-1.3-1.3zM26 70.2v-7.8h7.8v7.8H26zm20.8-21.338l4.28-4.281 1.84 1.838-4.282 4.281 4.281 4.28-1.838 1.84-4.281-4.282-4.28 4.281-1.84-1.838 4.282-4.281-4.281-4.28 1.838-1.84 4.281 4.282z" fill="#2F387B"/></svg>