<svg width="78" height="78" fill="none" xmlns="http://www.w3.org/2000/svg"><path fill-rule="evenodd" clip-rule="evenodd" d="M45.12 5.58l-5.2-5.2a1.3 1.3 0 00-1.84 0l-5.2 5.2 1.84 1.84 2.98-2.982V13h2.6V4.438l2.98 2.981 1.84-1.838zM32.5 11.7H1.3A1.3 1.3 0 000 13v53.3a1.3 1.3 0 001.3 1.3h32.5V65h-3.9V41.6h-2.6V65H2.6V37.7h7.8v6.5H13v-7.8a1.3 1.3 0 00-1.3-1.3H2.6v-13h7.8v-2.6H2.6v-5.2h14.3v6.5a1.3 1.3 0 001.3 1.3h6.5v-2.6h-5.2v-5.2h11.7v10.4h2.6V13a1.3 1.3 0 00-1.3-1.3zm13 0h31.2A1.3 1.3 0 0178 13v53.3a1.3 1.3 0 01-1.3 1.3H44.2V65h31.2v-5.2H45.5a1.3 1.3 0 01-1.3-1.3V48.1h2.6v9.1h28.6v-6.5H55.9v3.9h-2.6v-5.2a1.3 1.3 0 011.3-1.3h20.8v-5.2h-7.8v-2.6h7.8v-26h-6.5v22.1h-2.6V14.3h-5.2v10.4a1.3 1.3 0 01-1.3 1.3H52v9.1h-2.6V24.7a1.3 1.3 0 011.3-1.3h7.8v-9.1h-13v-2.6zM20.42 51.62a1.3 1.3 0 01-.92.38h-7.8v5.2h9.1v2.6H10.4a1.3 1.3 0 01-1.3-1.3v-7.8a1.3 1.3 0 011.3-1.3h7.8V29.9H7.8v-2.6h11.7a1.3 1.3 0 011.3 1.3v5.2h11.7v2.6H20.8v14.3a1.3 1.3 0 01-.38.92zm40.3-10.4a1.3 1.3 0 01-.92.38H44.2V39h14.3v-7.8h2.6v9.1a1.3 1.3 0 01-.38.92zM40.3 78v-6.5h-2.6V78h2.6zm0-19.5v-5.2h-2.6v5.2h2.6zm0-14.3v5.2h-2.6v-5.2h2.6zm-2.6 18.2h2.6v5.2h-2.6v-5.2zm2.6-27.3h-2.6v5.2h2.6v-5.2zM37.7 26h2.6v5.2h-2.6V26zm2.6-9.1h-2.6v5.2h2.6v-5.2z" fill="#2F387B"/></svg>