<svg width="149" height="180" viewBox="0 0 149 180" fill="none" xmlns="http://www.w3.org/2000/svg">
<path fill-rule="evenodd" clip-rule="evenodd" d="M50.5819 101.165V101.164H56.5327V99.346C51.1077 96.2114 46.6024 91.7052 43.469 86.2796C40.3355 80.8539 38.684 74.6996 38.6803 68.4342V17.2803C38.6855 12.6989 40.5077 8.30659 43.7473 5.06702C46.9869 1.82745 51.3792 0.00518638 55.9606 6.13797e-07H77.3605C79.8703 -0.000658267 82.3519 0.529147 84.6426 1.55468C86.9333 2.58022 88.9815 4.07833 90.6527 5.9508H95.2129C99.1571 5.95531 102.938 7.52415 105.727 10.3132C108.516 13.1022 110.085 16.8836 110.09 20.8278V68.4342C110.086 74.6996 108.435 80.8539 105.301 86.2796C102.168 91.7052 97.6625 96.2114 92.2374 99.346V101.164H98.1883V101.165C98.5789 101.165 98.9659 101.241 99.3269 101.39C99.6879 101.54 100.016 101.759 100.292 102.035L111.853 113.595L140.546 127.942C143.023 129.17 145.107 131.068 146.56 133.42C148.014 135.772 148.779 138.484 148.77 141.249V178.524H142.819V141.249C142.825 139.59 142.365 137.962 141.493 136.551C140.621 135.14 139.371 134.001 137.885 133.265L123.483 126.064L115.8 143.991C115.523 144.638 115.025 145.166 114.396 145.48L106.187 149.585L112.194 155.592C112.655 156.054 112.952 156.654 113.039 157.301C113.126 157.948 112.997 158.605 112.673 159.172L100.772 180L95.6048 177.048L106.379 158.193L91.9411 143.755L77.3605 164.585V178.524H71.4097V164.585L56.829 143.755L42.3912 158.193L53.1654 177.048L47.9984 180L36.0968 159.172C35.773 158.605 35.6446 157.948 35.7312 157.301C35.8179 156.654 36.1148 156.054 36.5762 155.592L42.5833 149.585L34.3741 145.48C33.7447 145.166 33.2472 144.638 32.9699 143.991L25.2868 126.064L10.8854 133.265C9.3991 134.001 8.14897 135.14 7.27679 136.551C6.40461 137.962 5.94528 139.59 5.95088 141.249V178.524H8.54606e-05V141.249C-0.00931 138.484 0.756166 135.772 2.20971 133.42C3.66326 131.068 5.74672 129.17 8.22384 127.942L36.9173 113.595L48.4778 102.035C48.7541 101.759 49.0822 101.54 49.4432 101.391C49.8043 101.241 50.1912 101.165 50.5819 101.165ZM64.0285 116.679L50.9611 107.968L42.7057 116.223L53.5573 129.245L64.0285 116.679ZM83.24 124.173L78.9425 119.016H69.8276L65.5301 124.173L70.0266 130.918H78.7436L83.24 124.173ZM63.8352 143.387L65.3057 134.564L61.5569 128.941L57.2992 134.05L63.8352 143.387ZM80.0618 150.349L77.8151 136.868H70.955L68.7083 150.349L74.3851 158.458L80.0618 150.349ZM87.2132 128.941L83.4643 134.564L84.9349 143.387L91.4709 134.05L87.2132 128.941ZM38.0105 140.645L47.0188 145.149L53.3636 138.805L51.1904 135.7L37.9033 119.756L30.6188 123.398L38.0105 140.645ZM101.751 145.149L110.76 140.645L118.151 123.398L110.867 119.756L97.5798 135.7L95.4065 138.805L101.751 145.149ZM95.2129 129.245L106.064 116.223L97.8091 107.968L84.7416 116.679L95.2129 129.245ZM101.522 14.519C99.8482 12.8456 97.5794 11.9043 95.2129 11.9016H94.1893C94.8675 13.8123 95.2137 15.8249 95.2129 17.8524V22.1184L104.139 27.474V20.8278C104.136 18.4612 103.195 16.1924 101.522 14.519ZM77.3605 5.9508H55.9606C52.9569 5.95418 50.0771 7.14891 47.9532 9.27287C45.8292 11.3968 44.6345 14.2766 44.6311 17.2803V27.474L55.0017 21.2517C55.4642 20.9743 55.9934 20.8278 56.5327 20.8278C57.0719 20.8278 57.6011 20.9743 58.0636 21.2517L70.389 28.6469C71.5961 29.3713 72.9773 29.754 74.3851 29.754C75.7928 29.754 77.174 29.3713 78.3811 28.6469L89.262 22.1184V17.8524C89.2584 14.697 88.0034 11.6719 85.7722 9.44068C83.541 7.20948 80.5158 5.95441 77.3605 5.9508ZM44.6311 34.4139V68.4342C44.6311 76.3254 47.7659 83.8935 53.3458 89.4734C58.9258 95.0534 66.4938 98.1882 74.3851 98.1882C82.2763 98.1882 89.8444 95.0534 95.4243 89.4734C101.004 83.8935 104.139 76.3254 104.139 68.4342V34.4139L92.2374 27.2729L81.4429 33.75C79.3109 35.0291 76.8713 35.7048 74.3851 35.7048C71.8988 35.7048 69.4592 35.0291 67.3272 33.75L56.5327 27.2729L44.6311 34.4139ZM86.2867 102.097C82.465 103.451 78.4397 104.142 74.3851 104.139C70.3304 104.142 66.3051 103.451 62.4835 102.097V108.497L69.335 113.065H79.4351L86.2867 108.497V102.097ZM65.4589 41.6558H50.5819V47.6066H65.4589V41.6558ZM74.3849 74.3848C76.7515 74.3821 79.0203 73.4408 80.6937 71.7674C82.3671 70.094 83.3084 67.8251 83.3111 65.4586V50.5816H77.3604V65.4586C77.3604 66.2477 77.0469 67.0045 76.4889 67.5625C75.9309 68.1205 75.1741 68.434 74.3849 68.434C73.5958 68.434 72.839 68.1205 72.281 67.5625C71.723 67.0045 71.4096 66.2477 71.4096 65.4586H65.4588C65.4615 67.8251 66.4028 70.094 68.0762 71.7674C69.7496 73.4408 72.0184 74.3821 74.3849 74.3848ZM59.508 59.508C61.1513 59.508 62.4834 58.1759 62.4834 56.5326C62.4834 54.8894 61.1513 53.5572 59.508 53.5572C57.8648 53.5572 56.5326 54.8894 56.5326 56.5326C56.5326 58.1759 57.8648 59.508 59.508 59.508ZM95.2128 56.5326C95.2128 58.1759 93.8807 59.508 92.2374 59.508C90.5941 59.508 89.262 58.1759 89.262 56.5326C89.262 54.8894 90.5941 53.5572 92.2374 53.5572C93.8807 53.5572 95.2128 54.8894 95.2128 56.5326ZM86.2866 41.6558H101.164V47.6066H86.2866V41.6558ZM86.6478 84.1826L88.3908 82.4396L84.1827 78.2314L82.4397 79.9745C81.382 81.0322 80.1262 81.8713 78.7442 82.4438C77.3622 83.0163 75.881 83.3109 74.3852 83.3109C72.8893 83.3109 71.4081 83.0163 70.0261 82.4438C68.6441 81.8713 67.3884 81.0322 66.3307 79.9745L64.5876 78.2314L60.3795 82.4396L62.1225 84.1826C65.3749 87.4347 69.7858 89.2617 74.3852 89.2617C78.9845 89.2617 83.3955 87.4347 86.6478 84.1826Z" fill="#E2EBFF"/>
</svg>
