<svg width="180" height="180" viewBox="0 0 180 180" fill="none" xmlns="http://www.w3.org/2000/svg">
<path fill-rule="evenodd" clip-rule="evenodd" d="M77.5675 107.469C79.7801 110.154 80.9922 113.523 80.997 117.002C80.997 117.798 80.6809 118.561 80.1183 119.123C79.5557 119.686 78.7927 120.002 77.9971 120.002H35.9987C35.2031 120.002 34.4401 119.686 33.8775 119.123C33.3149 118.561 32.9988 117.798 32.9988 117.002C33.0036 113.523 34.2157 110.154 36.4283 107.469C38.6408 104.784 41.7166 102.95 45.1306 102.281L47.9252 46.3885L43.9891 43.2395C41.6266 41.3396 38.7189 40.244 35.69 40.1126C32.6612 39.9812 29.6696 40.8208 27.1513 42.5089C26.6085 42.8708 26.0544 43.2108 25.4943 43.5381L38.5426 64.4141L38.5401 64.4157C38.8396 64.8914 38.9985 65.442 38.9986 66.0042V69.0041C38.9986 73.7778 37.1022 78.356 33.7267 81.7315C30.3512 85.107 25.7729 87.0034 20.9992 87.0034C16.2255 87.0034 11.6473 85.107 8.27177 81.7315C4.89624 78.356 2.99989 73.7778 2.99989 69.0041V66.0042C2.99991 65.442 3.15885 64.8914 3.45837 64.4157L3.45581 64.4141L13.9459 47.6294C12.309 47.8789 10.6555 48.0044 8.99967 48.0048C6.61281 48.0048 4.32371 47.0567 2.63594 45.3689C0.948177 43.6811 0 41.392 0 39.0052C0 36.6183 0.948177 34.3292 2.63594 32.6414C4.32371 30.9537 6.61281 30.0055 8.99967 30.0055C14.2763 30.0106 19.4357 28.4486 23.8233 25.5174C27.3998 23.1198 31.6487 21.9274 35.9504 22.114C40.2521 22.3006 44.3817 23.8565 47.7371 26.5548L48.8794 27.4687L49.851 21.6386C47.8234 20.1353 46.3215 18.0308 45.559 15.6246C44.7965 13.2184 44.8121 10.633 45.6037 8.23625C46.3954 5.83947 47.9226 3.75335 49.9683 2.27466C52.0139 0.795961 54.4738 0 56.9979 0C59.522 0 61.9819 0.795961 64.0275 2.27466C66.0732 3.75335 67.6004 5.83947 68.3921 8.23625C69.1837 10.633 69.1993 13.2184 68.4368 15.6246C67.6743 18.0308 66.1724 20.1353 64.1448 21.6386L65.1163 27.4685L66.2583 26.5548C69.6138 23.8566 73.7435 22.3007 78.0452 22.1141C82.347 21.9275 86.5959 23.1199 90.1725 25.5174C94.5601 28.4486 99.7195 30.0106 104.996 30.0055C106.575 30.0085 108.126 30.4254 109.493 31.2145C110.861 32.0037 111.997 33.1376 112.79 34.5031L107.597 37.5074C107.332 37.0516 106.953 36.673 106.497 36.4095C106.04 36.1459 105.523 36.0065 104.996 36.0053C98.5348 36.0115 92.2172 34.0986 86.8445 30.5094C84.3261 28.8215 81.3344 27.9821 78.3056 28.1135C75.2768 28.2449 72.3691 29.3403 70.0063 31.2399L64.8719 35.3479C64.3399 35.7734 63.6789 36.0052 62.9977 36.0053H50.9981C50.3169 36.0052 49.656 35.7734 49.1239 35.3479L43.9891 31.2399C41.6266 29.34 38.7189 28.2445 35.69 28.1131C32.6612 27.9816 29.6696 28.8212 27.1513 30.5094C21.7786 34.0986 15.461 36.0115 8.99967 36.0053C8.20405 36.0053 7.44102 36.3213 6.87843 36.8839C6.31584 37.4465 5.99978 38.2095 5.99978 39.0052C5.99978 39.8008 6.31584 40.5638 6.87843 41.1264C7.44102 41.689 8.20405 42.0051 8.99967 42.0051C14.2763 42.0102 19.4357 40.4481 23.8233 37.5169C27.3998 35.1194 31.6487 33.927 35.9504 34.1137C40.2521 34.3003 44.3817 35.8561 47.7371 38.5544L52.0506 42.0051H61.9452L66.2583 38.5544C68.3664 36.8767 70.786 35.6332 73.3773 34.8956C75.9686 34.158 78.6803 33.941 81.3559 34.257L80.6381 40.2136C78.7537 39.9803 76.8415 40.1279 75.0152 40.6477C73.1888 41.1674 71.4855 42.0488 70.0063 43.2395L66.0706 46.3884L68.8652 102.281C72.2792 102.95 75.355 104.784 77.5675 107.469ZM60.3312 7.01752C59.3445 6.35825 58.1845 6.00637 56.9979 6.00637C55.4072 6.00819 53.8822 6.64089 52.7574 7.76568C51.6326 8.89046 50.9999 10.4155 50.9981 12.0062C50.9981 13.1928 51.35 14.3528 52.0093 15.3395C52.6685 16.3261 53.6056 17.0951 54.7019 17.5492C55.7982 18.0033 57.0046 18.1222 58.1684 17.8906C59.3322 17.6591 60.4013 17.0877 61.2404 16.2486C62.0795 15.4096 62.6509 14.3405 62.8824 13.1767C63.1139 12.0128 62.9951 10.8065 62.541 9.71014C62.0869 8.61382 61.3179 7.67678 60.3312 7.01752ZM58.4414 23.9158C57.9624 23.9747 57.4804 24.0047 56.9979 24.0057C56.5154 24.0047 56.0334 23.9747 55.5544 23.9158L54.5395 30.0055H59.4563L58.4414 23.9158ZM30.5858 63.0043L20.9986 47.6656L11.4124 63.0043H30.5858ZM12.5183 77.485C14.7678 79.7346 17.8179 81 20.9992 81.0036C24.1806 81 27.2306 79.7346 29.4802 77.485C31.7297 75.2354 32.9951 72.1854 32.9988 69.0041H8.99967C9.00331 72.1854 10.2687 75.2354 12.5183 77.485ZM62.8439 102.003L60.1439 48.0048H53.8519L51.1519 102.003H62.8439ZM42.804 109.657C41.2847 110.731 40.1351 112.249 39.5127 114.002H74.4831C73.8607 112.249 72.7111 110.731 71.1918 109.657C69.6726 108.583 67.8582 108.005 65.9976 108.003H47.9982C46.1376 108.005 44.3232 108.583 42.804 109.657ZM141.251 103.196C147.795 104.523 154.097 106.849 159.934 110.093C166.012 113.472 171.077 118.414 174.604 124.408C178.13 130.402 179.991 137.229 179.993 144.184V180H173.994V144.184C173.992 138.69 172.619 133.283 170 128.454C167.381 123.625 163.598 119.525 158.994 116.527V132.002C158.994 132.601 158.815 133.187 158.478 133.684C158.142 134.18 157.665 134.564 157.108 134.787L143.676 140.16L140.954 156.494C140.889 156.887 140.745 157.264 140.533 157.601C140.32 157.938 140.042 158.23 139.715 158.458L109.716 179.458C109.198 179.82 108.579 180.01 107.947 180C107.315 179.989 106.702 179.779 106.196 179.4L82.197 161.401C81.7573 161.071 81.4166 160.627 81.2121 160.117C81.0077 159.606 80.9473 159.05 81.0377 158.507L83.6164 143.037L77.0483 140.848C76.451 140.648 75.9315 140.266 75.5634 139.756C75.1953 139.245 74.9972 138.631 74.9972 138.002V134.405C68.7231 139.921 64.7665 147.605 63.9209 155.916L62.9977 165.15V180H56.9979V165.001C56.998 164.901 57.003 164.801 57.0129 164.702L57.9511 155.319C58.6424 148.529 61.0983 142.038 65.0747 136.49C69.0512 130.943 74.4098 126.532 80.6184 123.697L94.5352 117.371L101.996 112.397V108.003H95.9965C95.3668 108.003 94.7532 107.805 94.2424 107.436C93.7316 107.068 93.3495 106.549 93.1504 105.952L87.4762 88.9285L79.333 83.4996C78.7246 83.0941 78.2852 82.4802 78.0975 81.7735C77.9099 81.0668 77.9868 80.3158 78.3139 79.6619L88.6919 58.9059C87.2721 58.1317 86.0869 56.9895 85.2608 55.5992C84.4347 54.209 83.9981 52.6219 83.9969 51.0047V45.0049C83.9969 44.2093 84.313 43.4463 84.8756 42.8837C85.4382 42.3212 86.2012 42.0051 86.9968 42.005H127.904C130.314 42.0049 132.694 42.5325 134.878 43.5509C137.062 44.5693 138.996 46.0538 140.545 47.8998C142.093 49.7459 143.219 51.9088 143.842 54.2364C144.465 56.5641 144.571 59 144.151 61.3729L137.995 96.2647V102.543L141.065 103.156L141.089 103.161L141.113 103.166L141.251 103.196L141.251 103.196ZM99.2172 133.152L94.6061 123.929L91.5476 125.32L100.75 149.512L101.926 141.278L99.2172 133.152ZM116.39 132.002L113.259 127.305L105.526 133.104L107.158 138.002H112.39L116.39 132.002ZM139.89 109.041L135.839 108.231L117.966 123.55L120.677 127.615L143.003 109.753C141.973 109.488 140.936 109.25 139.89 109.041ZM111.394 144.001H107.598L105.156 161.096L108.621 170.204L113.899 161.534L111.394 144.001ZM117.128 141.711L118.807 153.47L138.595 120.964L122.233 134.054L117.128 141.711ZM127.904 48.0048H89.9967V51.0047C89.9976 51.8001 90.3139 52.5626 90.8763 53.125C91.4387 53.6873 92.2012 54.0037 92.9966 54.0046H116.996C117.718 54.0046 118.416 54.2651 118.961 54.7382C119.507 55.2113 119.863 55.8652 119.966 56.5801L121.746 69.0461C122.039 69.0188 122.334 69.0041 122.631 69.0041C125.114 69.0069 127.494 69.9943 129.249 71.7498C131.005 73.5052 131.992 75.8852 131.995 78.3677C131.994 80.9475 131.471 83.5004 130.458 85.8728L133.163 89.1193L138.243 60.3307C138.51 58.8206 138.443 57.2704 138.047 55.789C137.65 54.3077 136.934 52.9312 135.948 51.7563C134.963 50.5814 133.732 49.6367 132.342 48.9886C130.952 48.3404 129.437 48.0047 127.904 48.0048ZM92.8428 86.0546L98.1585 102.003H103.753L108.875 96.8816L113.117 101.124L107.996 106.246V112.76L114.153 118.916L131.995 103.623V97.0893L127.073 91.1833C126.007 92.3639 124.798 93.4074 123.474 94.2896L122.714 94.7964C121.332 95.7177 119.674 96.1317 118.021 95.9681C116.368 95.8046 114.823 95.0735 113.649 93.8993L111.874 92.1247L116.117 87.8819L117.892 89.6565C118.087 89.8462 118.341 89.9641 118.613 89.991C118.884 90.0178 119.156 89.9521 119.385 89.8044L120.146 89.2976C121.947 88.0997 123.423 86.4748 124.444 84.5678C125.465 82.6607 125.998 80.5307 125.995 78.3677C125.995 77.7024 125.798 77.052 125.429 76.4988C125.059 75.9456 124.534 75.5144 123.919 75.2598C123.304 75.0052 122.628 74.9386 121.975 75.0685C121.323 75.1983 120.723 75.5188 120.253 75.9893L116.117 80.1251L111.874 75.8823L116.01 71.7465C116.019 71.7374 116.029 71.7288 116.038 71.7201L116.038 71.7199C116.047 71.7118 116.055 71.7038 116.064 71.6954L114.394 60.0044H94.8506L84.8644 79.9764L91.6607 84.5074C92.2158 84.8773 92.6318 85.4217 92.8428 86.0546ZM109.429 122.678L104.614 117.863L99.8639 121.029L103.072 127.445L109.429 122.678ZM80.997 135.839L87.9456 138.155C88.6234 138.381 89.1983 138.842 89.5669 139.454C89.9354 140.066 90.0734 140.79 89.956 141.495L87.2557 157.695L101.509 168.385L86.0747 127.807L83.1012 129.159C82.3847 129.487 81.6833 129.837 80.997 130.211V135.839ZM138.658 136.12C138.981 135.719 139.402 135.408 139.881 135.216L152.994 129.971V113.298C152.287 112.972 151.573 112.661 150.854 112.364L118 166.336L135.243 154.265L138.036 137.508C138.12 137 138.335 136.522 138.658 136.12ZM104.996 72.0039C104.996 71.2083 104.68 70.4453 104.117 69.8827C103.555 69.3202 102.792 69.0041 101.996 69.0041H98.9964C98.2007 69.0041 97.4377 69.3201 96.8751 69.8827C96.3125 70.4453 95.9965 71.2083 95.9965 72.0039C95.9965 72.7996 96.3125 73.5626 96.8751 74.1252C97.4377 74.6878 98.2007 75.0038 98.9964 75.0038H101.996C102.792 75.0038 103.555 74.6877 104.117 74.1251C104.68 73.5626 104.996 72.7996 104.996 72.0039ZM77.9971 180V165.001H71.9974V180H77.9971ZM149.994 165.001V180H155.994V165.001H149.994Z" fill="#E2EBFF"/>
</svg>
