<svg width="78" height="78" viewBox="0 0 78 78" fill="none" xmlns="http://www.w3.org/2000/svg">
<path fill-rule="evenodd" clip-rule="evenodd" d="M55.9 71.4999H19.5V68.8999H52C52.1707 68.9 52.3398 68.8664 52.4975 68.8011C52.6552 68.7358 52.7986 68.64 52.9193 68.5193C53.04 68.3986 53.1358 68.2552 53.2011 68.0975C53.2664 67.9397 53.3 67.7707 53.3 67.5999V63.6999H50.7V66.2999H19.5V62.3999C19.5 62.2292 19.4664 62.0601 19.4011 61.9024C19.3358 61.7447 19.24 61.6013 19.1193 61.4806C18.9986 61.3599 18.8553 61.2641 18.6975 61.1988C18.5398 61.1335 18.3707 61.0999 18.2 61.0999H10.4C10.2293 61.0999 10.0602 61.1335 9.90245 61.1988C9.74471 61.2641 9.60138 61.3599 9.48065 61.4806C9.35993 61.6013 9.26417 61.7447 9.19886 61.9024C9.13354 62.0601 9.09995 62.2292 9.09999 62.3999V66.2999H6.49999C5.46565 66.2999 4.47367 65.889 3.74228 65.1577C3.01089 64.4263 2.6 63.4343 2.6 62.3999C2.6 61.3656 3.01089 60.3736 3.74228 59.6422C4.47367 58.9108 5.46565 58.4999 6.49999 58.4999H24.7V55.8999H6.49999C5.089 55.9049 3.71872 56.3733 2.6 57.2332V6.49999C2.60113 5.466 3.01238 4.47467 3.74353 3.74353C4.47467 3.01238 5.466 2.60113 6.49999 2.6H56.9759C57.0413 2.6 57.0935 2.61165 57.1309 2.62002C57.1727 2.62936 57.1963 2.63463 57.2 2.61523V18.2H59.7999V2.6C59.7999 1.1667 58.533 0 56.9759 0H6.49999C4.77671 0.00202473 3.12459 0.687494 1.90604 1.90604C0.687494 3.12459 0.00202473 4.77671 0 6.49999V67.5999C0.00202473 69.3232 0.687494 70.9753 1.90604 72.1939C3.12459 73.4124 4.77671 74.0979 6.49999 74.0999H9.09999V76.6999C9.09997 76.9352 9.16381 77.1661 9.28472 77.368C9.40563 77.5699 9.57907 77.7351 9.78653 77.8462C9.994 77.9572 10.2277 78.0098 10.4627 77.9985C10.6978 77.9871 10.9253 77.9121 11.1211 77.7816L14.3 75.6627L17.4789 77.7816C17.6747 77.9121 17.9022 77.9871 18.1372 77.9985C18.3723 78.0098 18.606 77.9572 18.8134 77.8462C19.0209 77.7351 19.1943 77.5699 19.3153 77.368C19.4362 77.1661 19.5 76.9352 19.5 76.6999V74.0999H57.2C57.3707 74.1 57.5397 74.0664 57.6975 74.0011C57.8552 73.9358 57.9986 73.84 58.1193 73.7193C58.24 73.5985 58.3358 73.4552 58.4011 73.2975C58.4664 73.1397 58.5 72.9707 58.5 72.7999V63.6999H55.9V71.4999ZM6.49999 71.4999C5.466 71.4988 4.47467 71.0875 3.74353 70.3564C3.01238 69.6253 2.60113 68.6339 2.6 67.5999V67.5667C3.71872 68.4266 5.089 68.895 6.49999 68.8999H9.09999V71.4999H6.49999ZM16.9 74.2713L15.0211 73.0183C14.8075 72.8759 14.5566 72.7999 14.3 72.7999C14.0433 72.7999 13.7924 72.8759 13.5789 73.0183L11.7 74.2713V63.6999H16.9V74.2713ZM53.2999 18.2V14.3C53.3 14.1293 53.2664 13.9602 53.2011 13.8024C53.1358 13.6447 53.04 13.5014 52.9193 13.3806C52.7986 13.2599 52.6552 13.1642 52.4975 13.0989C52.3397 13.0335 52.1707 12.9999 52 13H50.7C49.666 12.9989 48.6746 12.5876 47.9435 11.8565C47.2123 11.1253 46.8011 10.134 46.8 9.09999V7.79999C46.8 7.62926 46.7664 7.4602 46.7011 7.30245C46.6358 7.14471 46.54 7.00138 46.4193 6.88065C46.2986 6.75993 46.1552 6.66417 45.9975 6.59886C45.8398 6.53354 45.6707 6.49995 45.5 6.49999H15.6C15.4293 6.49995 15.2602 6.53354 15.1024 6.59886C14.9447 6.66417 14.8014 6.75993 14.6806 6.88065C14.5599 7.00138 14.4642 7.14471 14.3989 7.30245C14.3335 7.4602 14.2999 7.62926 14.3 7.79999V9.09999C14.2989 10.134 13.8876 11.1253 13.1565 11.8565C12.4253 12.5876 11.434 12.9989 10.4 13H7.79999C7.62926 12.9999 7.4602 13.0335 7.30245 13.0989C7.14471 13.1642 7.00138 13.2599 6.88065 13.3806C6.75993 13.5014 6.66417 13.6447 6.59886 13.8024C6.53354 13.9602 6.49995 14.1293 6.49999 14.3V44.2C6.49995 44.3707 6.53354 44.5398 6.59886 44.6975C6.66417 44.8552 6.75993 44.9986 6.88065 45.1193C7.00138 45.24 7.14471 45.3358 7.30245 45.4011C7.4602 45.4664 7.62926 45.5 7.79999 45.5H10.4C11.434 45.5011 12.4253 45.9123 13.1565 46.6435C13.8876 47.3746 14.2989 48.366 14.3 49.4V50.7C14.2999 50.8707 14.3335 51.0397 14.3989 51.1975C14.4642 51.3552 14.5599 51.4986 14.6806 51.6193C14.8014 51.74 14.9447 51.8358 15.1024 51.9011C15.2602 51.9664 15.4293 52 15.6 52H24.7V49.4H16.9C16.898 47.6767 16.2125 46.0245 14.9939 44.806C13.7754 43.5875 12.1233 42.902 10.4 42.9H9.09999V15.6H10.4C12.1233 15.598 13.7754 14.9125 14.9939 13.6939C16.2125 12.4754 16.898 10.8233 16.9 9.09999H44.2C44.202 10.8233 44.8875 12.4754 46.106 13.6939C47.3245 14.9125 48.9767 15.598 50.7 15.6V18.2H53.2999ZM9.09999 50.7C9.09999 51.4179 8.51796 52 7.79999 52C7.08202 52 6.49999 51.4179 6.49999 50.7C6.49999 49.982 7.08202 49.4 7.79999 49.4C8.51796 49.4 9.09999 49.982 9.09999 50.7ZM53.3 9.09999C54.0179 9.09999 54.6 8.51796 54.6 7.79999C54.6 7.08202 54.0179 6.49999 53.3 6.49999C52.582 6.49999 52 7.08202 52 7.79999C52 8.51796 52.582 9.09999 53.3 9.09999ZM10.4 7.79999C10.4 8.51796 9.81796 9.09999 9.09999 9.09999C8.38202 9.09999 7.79999 8.51796 7.79999 7.79999C7.79999 7.08202 8.38202 6.49999 9.09999 6.49999C9.81796 6.49999 10.4 7.08202 10.4 7.79999ZM76.8117 65.8734L60.8974 49.9591C63.2876 46.1581 64.1938 41.6098 63.4428 37.1829C62.6919 32.7561 60.3365 28.761 56.8265 25.9608C53.3165 23.1607 48.8979 21.7517 44.4149 22.0031C39.9318 22.2545 35.6985 24.1486 32.5235 27.3235C29.3485 30.4985 27.4545 34.7318 27.2031 39.2149C26.9517 43.6979 28.3607 48.1165 31.1608 51.6265C33.961 55.1365 37.9561 57.4919 42.3829 58.2428C46.8098 58.9938 51.3581 58.0876 55.1591 55.6974L71.0734 71.6117C71.6409 72.1791 72.3638 72.5655 73.1509 72.722C73.938 72.8785 74.7538 72.7982 75.4952 72.4911C76.2366 72.184 76.8702 71.6639 77.3161 70.9967C77.7619 70.3295 77.9999 69.545 78 68.7425C77.9971 67.667 77.5701 66.636 76.8117 65.8734ZM29.9 40.3C29.9 37.2146 30.8149 34.1985 32.5291 31.6331C34.2432 29.0677 36.6796 27.0682 39.5301 25.8875C42.3806 24.7068 45.5173 24.3978 48.5434 24.9997C51.5695 25.6017 54.3491 27.0874 56.5308 29.2691C58.7125 31.4508 60.1983 34.2305 60.8002 37.2566C61.4021 40.2827 61.0932 43.4193 59.9125 46.2698C58.7318 49.1204 56.7323 51.5567 54.1669 53.2709C51.6015 54.985 48.5854 55.9 45.5 55.9C41.364 55.8953 37.3988 54.2503 34.4742 51.3257C31.5497 48.4012 29.9046 44.4359 29.9 40.3ZM59.3451 52.0834L61.8617 54.6L59.8 56.6617L57.2834 54.1451C58.0242 53.5136 58.7136 52.8242 59.3451 52.0834ZM73.9425 70.2C73.751 70.2006 73.5613 70.1632 73.3843 70.09C73.2074 70.0168 73.0467 69.9092 72.9117 69.7734L61.6382 58.5L63.7 56.4383L74.9734 67.7117C75.1771 67.9156 75.3158 68.1753 75.372 68.458C75.4282 68.7408 75.3993 69.0338 75.2889 69.3001C75.1786 69.5664 74.9918 69.794 74.7522 69.9542C74.5125 70.1143 74.2308 70.1999 73.9425 70.2ZM45.5 29.9V27.3C48.0711 27.3 50.5845 28.0624 52.7224 29.4909C54.8602 30.9193 56.5264 32.9496 57.5104 35.3251C58.4943 37.7005 58.7518 40.3144 58.2502 42.8361C57.7486 45.3579 56.5104 47.6743 54.6923 49.4923C52.8743 51.3104 50.5579 52.5486 48.0361 53.0502C45.5144 53.5518 42.9005 53.2943 40.5251 52.3104C38.1496 51.3265 36.1193 49.6602 34.6909 47.5224C33.2624 45.3845 32.5 42.8711 32.5 40.3H35.1C35.1 42.3569 35.7099 44.3676 36.8527 46.0779C37.9954 47.7882 39.6197 49.1212 41.5201 49.9083C43.4204 50.6955 45.5115 50.9014 47.5289 50.5001C49.5463 50.0988 51.3994 49.1083 52.8539 47.6539C54.3083 46.1994 55.2988 44.3463 55.7001 42.3289C56.1014 40.3115 55.8955 38.2204 55.1083 36.3201C54.3211 34.4197 52.9882 32.7955 51.2779 31.6527C49.5676 30.5099 47.5569 29.9 45.5 29.9Z" fill="#2F387B"/>
</svg>
