<svg width="78" height="78" fill="none" xmlns="http://www.w3.org/2000/svg"><path fill-rule="evenodd" clip-rule="evenodd" d="M55.9 71.5H19.5v-2.6H52a1.299 1.299 0 001.3-1.3v-3.9h-2.6v2.6H19.5v-3.9a1.3 1.3 0 00-1.3-1.3h-7.8a1.301 1.301 0 00-1.3 1.3v3.9H6.5a3.9 3.9 0 010-7.8h18.2v-2.6H6.5a6.437 6.437 0 00-3.9 1.333V6.5a3.904 3.904 0 013.9-3.9h50.476c.065 0 .117.012.155.02.042.01.065.015.069-.005V18.2h2.6V2.6c0-1.433-1.267-2.6-2.824-2.6H6.5A6.508 6.508 0 000 6.5v61.1a6.508 6.508 0 006.5 6.5h2.6v2.6a1.3 1.3 0 002.021 1.082l3.179-2.12 3.179 2.12A1.3 1.3 0 0019.5 76.7v-2.6h37.7a1.299 1.299 0 001.3-1.3v-9.1h-2.6v7.8zm-49.4 0a3.904 3.904 0 01-3.9-3.9v-.033A6.436 6.436 0 006.5 68.9h2.6v2.6H6.5zm10.4 2.771l-1.879-1.253a1.3 1.3 0 00-1.442 0L11.7 74.271V63.7h5.2v10.57zM53.3 18.2v-3.9A1.3 1.3 0 0052 13h-1.3a3.904 3.904 0 01-3.9-3.9V7.8a1.3 1.3 0 00-1.3-1.3H15.6a1.3 1.3 0 00-1.3 1.3v1.3a3.904 3.904 0 01-3.9 3.9H7.8a1.297 1.297 0 00-1.3 1.3v29.9a1.3 1.3 0 001.3 1.3h2.6a3.904 3.904 0 013.9 3.9v1.3a1.297 1.297 0 001.3 1.3h9.1v-2.6h-7.8a6.507 6.507 0 00-6.5-6.5H9.1V15.6h1.3a6.507 6.507 0 006.5-6.5h27.3a6.507 6.507 0 006.5 6.5v2.6h2.6zM9.1 50.7a1.3 1.3 0 11-2.6 0 1.3 1.3 0 012.6 0zM53.3 9.1a1.3 1.3 0 100-2.6 1.3 1.3 0 000 2.6zM10.4 7.8a1.3 1.3 0 11-2.6 0 1.3 1.3 0 012.6 0zm66.412 58.073L60.897 49.96a18.262 18.262 0 10-5.738 5.738l15.914 15.915a4.057 4.057 0 005.739-5.739zM29.9 40.3a15.6 15.6 0 1115.6 15.6 15.618 15.618 0 01-15.6-15.6zm29.445 11.783l2.517 2.517-2.062 2.062-2.517-2.517a18.25 18.25 0 002.062-2.062zM73.942 70.2a1.449 1.449 0 01-1.03-.427L61.638 58.5l2.062-2.062 11.273 11.274a1.458 1.458 0 01-1.03 2.488zM45.5 29.9v-2.6a13 13 0 11-13 13h2.6a10.4 10.4 0 1010.4-10.4z" fill="#2F387B"/></svg>