<svg width="160" height="160" viewBox="0 0 160 160" fill="none" xmlns="http://www.w3.org/2000/svg">
<path fill-rule="evenodd" clip-rule="evenodd" d="M136 31.5424V82.6667H130.667V31.5424C130.668 31.192 130.599 30.845 130.465 30.5214C130.331 30.1978 130.134 29.9039 129.886 29.6569L109.333 9.10469V21.3334C109.335 22.7474 109.897 24.103 110.897 25.1028C111.897 26.1027 113.253 26.6651 114.667 26.6667H122.667V32H114.667C111.839 31.9968 109.127 30.872 107.128 28.8723C105.128 26.8726 104.003 24.1614 104 21.3334V5.33336H29.3333C28.6263 5.33417 27.9485 5.61538 27.4486 6.1153C26.9487 6.61523 26.6675 7.29303 26.6667 8.00003V56H21.3333V8.00003C21.3357 5.87903 22.1794 3.84559 23.6791 2.34582C25.1789 0.846052 27.2123 0.00242789 29.3333 2.99313e-05H104.458C105.509 -0.00285441 106.55 0.202752 107.521 0.604949C108.492 1.00715 109.373 1.59794 110.114 2.34315L133.657 25.8855C134.402 26.6266 134.993 27.5082 135.395 28.4792C135.797 29.4502 136.003 30.4913 136 31.5424ZM66.6666 61.3333H8C5.879 61.3357 3.84556 62.1794 2.34579 63.6791C0.846022 65.1789 0.00239796 67.2123 0 69.3333V152C0.00239796 154.121 0.846022 156.154 2.34579 157.654C3.84556 159.154 5.879 159.998 8 160H66.6666C68.7876 159.998 70.8211 159.154 72.3209 157.654C73.8206 156.154 74.6643 154.121 74.6666 152V69.3333C74.6643 67.2123 73.8206 65.1789 72.3209 63.6791C70.8211 62.1794 68.7876 61.3357 66.6666 61.3333ZM69.3333 152C69.3325 152.707 69.0513 153.385 68.5514 153.885C68.0515 154.385 67.3736 154.666 66.6666 154.667H8C7.293 154.666 6.6152 154.385 6.11527 153.885C5.61535 153.385 5.33414 152.707 5.33333 152V69.3333C5.33414 68.6263 5.61535 67.9485 6.11527 67.4486C6.6152 66.9487 7.293 66.6675 8 66.6667H66.6666C67.3736 66.6675 68.0515 66.9487 68.5514 67.4486C69.0513 67.9485 69.3325 68.6263 69.3333 69.3333V152ZM154.667 120V144.459C156.225 145.012 157.574 146.034 158.529 147.384C159.484 148.734 159.998 150.347 160 152V157.334C160 158.041 159.719 158.719 159.219 159.219C158.719 159.719 158.041 160 157.333 160H104C103.293 160 102.614 159.719 102.114 159.219C101.614 158.719 101.333 158.041 101.333 157.334V152C101.335 150.347 101.849 148.734 102.804 147.384C103.759 146.034 105.108 145.012 106.667 144.459V120C106.673 115.762 108.119 111.651 110.768 108.342C113.417 105.033 117.112 102.723 121.247 101.79L119.414 98.1237C118.638 96.5759 118.37 94.8231 118.647 93.1142C118.924 91.4053 119.733 89.8272 120.958 88.6041C122.078 87.4822 123.523 86.7416 125.088 86.4877C126.653 86.2338 128.258 86.4794 129.675 87.1897C129.983 87.3429 130.323 87.4227 130.667 87.4227C131.011 87.4227 131.35 87.3429 131.659 87.1897C133.076 86.4792 134.681 86.2334 136.246 86.4874C137.811 86.7413 139.256 87.4821 140.375 88.6045C141.6 89.8275 142.409 91.4055 142.686 93.1143C142.964 94.8232 142.695 96.576 141.92 98.1237L140.087 101.79C144.221 102.723 147.916 105.033 150.565 108.342C153.215 111.651 154.661 115.762 154.667 120ZM125.943 91.7535C125.483 91.828 125.059 92.0456 124.73 92.3753C124.297 92.8073 124.011 93.3647 123.913 93.9685C123.815 94.5722 123.91 95.1914 124.184 95.7382L126.981 101.334H134.352L137.15 95.7382C137.424 95.1915 137.518 94.5723 137.42 93.9687C137.322 93.365 137.037 92.8076 136.604 92.3756C136.275 92.0461 135.851 91.8286 135.391 91.754C134.931 91.6793 134.46 91.7514 134.044 91.9599C132.994 92.4815 131.839 92.7529 130.667 92.7529C129.495 92.7529 128.339 92.4815 127.29 91.9599C126.874 91.7511 126.402 91.6789 125.943 91.7535ZM106.667 154.667H154.667V152C154.666 151.293 154.385 150.615 153.885 150.116C153.385 149.616 152.707 149.334 152 149.334H146.667V144H149.333V120C149.329 116.465 147.923 113.076 145.424 110.577C142.924 108.077 139.535 106.671 136 106.667H125.333C121.798 106.671 118.409 108.077 115.91 110.577C113.41 113.076 112.004 116.465 112 120V144H117.333V149.334H109.333C108.626 149.334 107.949 149.616 107.449 150.116C106.949 150.615 106.667 151.293 106.667 152V154.667ZM128 112H133.333V117.333H138.667V122.667H129.333C128.98 122.667 128.641 122.807 128.391 123.057C128.14 123.307 128 123.646 128 124C128 124.354 128.14 124.693 128.391 124.943C128.641 125.193 128.98 125.333 129.333 125.333H132C133.652 125.333 135.245 125.947 136.471 127.055C137.696 128.163 138.467 129.686 138.633 131.33C138.799 132.974 138.349 134.621 137.37 135.951C136.39 137.282 134.952 138.202 133.333 138.532V144H128V138.667H122.667V133.333H132C132.354 133.333 132.693 133.193 132.943 132.943C133.193 132.693 133.333 132.354 133.333 132C133.333 131.646 133.193 131.307 132.943 131.057C132.693 130.807 132.354 130.667 132 130.667H129.333C127.681 130.667 126.088 130.053 124.862 128.945C123.637 127.837 122.866 126.314 122.7 124.67C122.534 123.026 122.985 121.379 123.964 120.049C124.943 118.718 126.381 117.798 128 117.468V112ZM21.3333 90.6667C20.6261 90.6667 19.9479 90.3858 19.4478 89.8857L14.1144 84.5524C13.6143 84.0523 13.3333 83.374 13.3333 82.6667V74.6667C13.3333 73.9594 13.6143 73.2812 14.1144 72.7811C14.6145 72.281 15.2928 72 16 72H58.6667C59.3739 72 60.0522 72.281 60.5523 72.7811C61.0524 73.2812 61.3333 73.9594 61.3333 74.6667V82.6667C61.3333 83.374 61.0524 84.0523 60.5522 84.5524L55.2189 89.8857C54.7188 90.3858 54.0405 90.6667 53.3333 90.6667H21.3333ZM56 77.3333H18.6667V81.5622L22.4378 85.3333H52.2288L56 81.5622V77.3333ZM61.3333 96H13.3333C12.6261 96 11.9478 96.281 11.4477 96.7811C10.9476 97.2812 10.6667 97.9594 10.6667 98.6667V146.667C10.6667 147.374 10.9476 148.052 11.4477 148.552C11.9478 149.052 12.6261 149.333 13.3333 149.333H61.3333C62.0406 149.333 62.7188 149.052 63.2189 148.552C63.719 148.052 64 147.374 64 146.667V98.6667C64 97.9594 63.719 97.2812 63.2189 96.7811C62.7188 96.281 62.0406 96 61.3333 96ZM58.6667 112H48V101.333H58.6667V112ZM26.6667 117.333V128H16V117.333H26.6667ZM32 117.333H42.6667V128H32V117.333ZM42.6667 112H32V101.333H42.6667V112ZM26.6667 101.333V112H16V101.333H26.6667ZM26.6667 133.333V144H16V133.333H26.6667ZM32 133.333H42.6667V144H32V133.333ZM58.6667 144H48V117.333H58.6667V144ZM122.667 80V42.6667H117.333V50.6667H93.3333V40H104V34.6667H66.6667V26.6667H98.6667V21.3333H37.3333C36.6261 21.3333 35.9478 21.6143 35.4477 22.1144C34.9476 22.6145 34.6667 23.2928 34.6667 24V56H40V40H61.3333V56H88V66.6667H80V72H88V82.6667H80V88H88V98.6667H80V104H88V114.667H80V120H88V130.667H80V136H101.333V130.667H93.3333V120H104V114.667H93.3333V104H109.333V98.6667H93.3333V88H114.667V82.6667H93.3333V72H117.333V80H122.667ZM40 34.6667V26.6667H61.3333V34.6667H40ZM66.6667 50.6667V40H88V50.6667H66.6667ZM93.3333 66.6667V56H117.333V66.6667H93.3333ZM80 146.667H96V152H80V146.667Z" fill="#E2EBFF"/>
</svg>
