<svg width="30" height="30" viewBox="0 0 30 30" fill="none" xmlns="http://www.w3.org/2000/svg">
<path fill-rule="evenodd" clip-rule="evenodd" d="M15 0C19.0066 0 22.7735 1.56029 25.6066 4.39336C28.4397 7.22654 30 10.9934 30 15C30 19.0066 28.4397 22.7735 25.6066 25.6066C22.7735 28.4397 19.0066 30 15 30C10.9934 30 7.22654 28.4397 4.39336 25.6066C1.56029 22.7735 0 19.0066 0 15C0 10.9934 1.56029 7.22654 4.39336 4.39336C7.22654 1.56029 10.9934 0 15 0ZM1.75781 15C1.75781 22.3018 7.69822 28.2422 15 28.2422C22.3018 28.2422 28.2422 22.3018 28.2422 15C28.2422 7.69822 22.3018 1.75781 15 1.75781C7.69822 1.75781 1.75781 7.69822 1.75781 15ZM15.8789 6.61816V3.45703H14.1211V6.61816H15.8789ZM15.8789 23.3818V26.543H14.1211V23.3818H15.8789ZM6.61816 14.1211H3.45703V15.8789H6.61816V14.1211ZM23.3818 14.1211H26.543V15.8789H23.3818V14.1211ZM16.5761 12.4629L19.2471 10.1379L20.4013 11.4638L17.7306 13.7884C17.8957 14.159 17.9882 14.5688 17.9882 15C17.9882 16.6477 16.6477 17.9883 15 17.9883C13.3522 17.9883 12.0117 16.6477 12.0117 15C12.0117 14.4737 12.149 13.979 12.3888 13.549L6.88538 7.81567L8.15352 6.59839L13.657 12.3318C14.0611 12.1276 14.5172 12.0117 15 12.0117C15.5782 12.0117 16.1182 12.1773 16.5761 12.4629ZM13.7695 15C13.7695 15.6785 14.3215 16.2305 15 16.2305C15.6785 16.2305 16.2304 15.6785 16.2304 15C16.2304 14.3216 15.6785 13.7696 15 13.7696C14.3215 13.7696 13.7695 14.3216 13.7695 15Z" fill="#2F387B"/>
</svg>
