<svg width="180" height="180" viewBox="0 0 180 180" fill="none" xmlns="http://www.w3.org/2000/svg">
<path fill-rule="evenodd" clip-rule="evenodd" d="M179.121 35.1213C178.559 35.6839 177.796 36 177 36H162V102H171C171.796 102 172.559 102.316 173.121 102.879L179.121 108.879C179.684 109.441 180 110.204 180 111V177C180 177.796 179.684 178.559 179.121 179.121C178.559 179.684 177.796 180 177 180H3C2.20435 180 1.4413 179.684 0.878688 179.121C0.316081 178.559 7.95635e-06 177.796 0 177V42C4.16076e-05 41.5202 0.115152 41.0474 0.335672 40.6213C0.556193 40.1952 0.875693 39.8282 1.26737 39.5511C1.65904 39.274 2.11146 39.0948 2.58667 39.0287C3.06188 38.9626 3.54602 39.0114 3.99847 39.171L54.9985 57.171C55.5837 57.3776 56.0905 57.7606 56.449 58.2673C56.8075 58.774 57 59.3793 57 60V90H132C132.511 90 133.014 90.1307 133.461 90.3797C133.908 90.6288 134.283 90.9878 134.552 91.4229C134.821 91.8579 134.974 92.3544 134.997 92.8653C135.02 93.3762 134.912 93.8844 134.683 94.3418L129 105.708V123H138V36H93V51H108C108.796 51 109.559 51.3161 110.121 51.8787C110.684 52.4413 111 53.2044 111 54V66C111 66.7956 110.684 67.5587 110.121 68.1213C109.559 68.6839 108.796 69 108 69H72C71.2044 69 70.4413 68.6839 69.8787 68.1213C69.3161 67.5587 69 66.7956 69 66V54C69 53.2044 69.3161 52.4413 69.8787 51.8787C70.4413 51.3161 71.2044 51 72 51H87V36H81C80.2044 36 79.4413 35.6839 78.8787 35.1213C78.3161 34.5587 78 33.7956 78 33V30C78 29.5501 78.1012 29.1059 78.2961 28.7004C78.491 28.2949 78.7746 27.9384 79.1259 27.6573L94.1259 15.6573C94.6579 15.2318 95.3188 15 96 15H138V9C138 8.2043 138.316 7.44119 138.879 6.87854L144.879 0.878539C145.441 0.316004 146.204 -1.15915e-05 147 3.1889e-10H153C153.796 -1.15915e-05 154.559 0.316004 155.121 0.878539L161.121 6.87854C161.684 7.44119 162 8.2043 162 9V15H177C177.796 15 178.559 15.3161 179.121 15.8787C179.684 16.4413 180 17.2044 180 18V33C180 33.7956 179.684 34.5587 179.121 35.1213ZM87 63H93V57H87V63ZM147 132V129H141V132H147ZM147 141V138H141V141H147ZM81 57H75V63H81V57ZM99 63H105V57H99V63ZM147 150V147H141V150H147ZM159 150V129H153V150H159ZM174 129H165V150H174V129ZM156 123H174V117H156V123ZM154.757 105L156 103.757V99.405L149.286 105H154.757ZM120 30V24.405L113.286 30H120ZM108 21V26.5949L114.714 21H108ZM132.714 21H126V26.595L132.714 21ZM144 21V26.595L150.714 21H144ZM156 30V24.405L149.286 30H156ZM144 41.595L150.714 36H144V41.595ZM150.714 51H144V56.595L150.714 51ZM150.714 66H144V71.595L150.714 66ZM150.714 81H144V86.595L150.714 81ZM150.714 96H144V101.595L150.714 96ZM149.286 90H156V84.405L149.286 90ZM149.286 75H156V69.405L149.286 75ZM149.286 60H156V54.405L149.286 60ZM149.286 45H156V39.405L149.286 45ZM174 24.405L167.286 30H174V24.405ZM162 26.595L168.714 21H162V26.595ZM151.757 6H148.243L144 10.2426V15H156V10.2426L151.757 6ZM102 21H97.0523L85.8023 30H102V21ZM138 24.405L131.286 30H138V24.405ZM150 123V111H144V123H150ZM135 150V129H129V150H135ZM55.8541 102H124.146L127.146 96H52.8541L55.8541 102ZM51 90V62.1226L6 46.2404V150H51V105.708L45.3168 94.3418C45.088 93.8844 44.98 93.3762 45.003 92.8653C45.026 92.3544 45.1791 91.8579 45.448 91.4229C45.7168 90.9878 46.0924 90.6288 46.5391 90.3797C46.9857 90.1307 47.4886 90 48 90H51ZM6 156V174H78V156H6ZM96 162H84V174H96V162ZM96 156V153C96 152.204 96.3161 151.441 96.8787 150.879C97.4413 150.316 98.2044 150 99 150H123V108H57V150H81C81.7956 150 82.5587 150.316 83.1213 150.879C83.6839 151.441 84 152.204 84 153V156H96ZM102 156V174H174V156H102ZM157.243 111H172.757L169.757 108H160.243L157.243 111ZM18 66H12V72H18V66ZM12 78H18V84H12V78ZM42 90H36V96H42V90ZM12 102H18V108H12V102ZM63 114H69V120H63V114ZM75 114H81V120H75V114ZM69 126H63V132H69V126ZM75 126H81V132H75V126ZM69 138H63V144H69V138ZM75 138H81V144H75V138ZM105 114H99V120H105V114ZM111 114H117V120H111V114ZM105 126H99V132H105V126ZM111 126H117V132H111V126ZM105 138H99V144H105V138ZM87 114H93V120H87V114ZM18 138H12V144H18V138ZM24 138H30V144H24V138ZM42 138H36V144H42V138ZM12 126H18V132H12V126ZM30 126H24V132H30V126ZM36 126H42V132H36V126ZM18 114H12V120H18V114ZM24 114H30V120H24V114ZM42 114H36V120H42V114ZM30 102H24V108H30V102ZM36 102H42V108H36V102ZM12 90H18V96H12V90ZM30 90H24V96H30V90ZM30 78H24V84H30V78ZM36 78H42V84H36V78ZM24 66H30V72H24V66ZM42 66H36V72H42V66ZM87 126H93V132H87V126ZM93 138H87V144H93V138ZM111 138H117V144H111V138Z" fill="#E2EBFF"/>
</svg>
