<svg width="78" height="78" viewBox="0 0 78 78" fill="none" xmlns="http://www.w3.org/2000/svg">
<path fill-rule="evenodd" clip-rule="evenodd" d="M20.8989 49.8974C20.8336 49.7397 20.8 49.5707 20.8 49.4V35.1H13V32.5H20.8V29.9H13V27.3H20.8V24.7C20.8037 21.8233 21.8658 19.0485 23.7837 16.9044C25.7017 14.7604 28.3415 13.3969 31.2 13.0739V9.20758L29.9177 1.51375C29.8782 1.27721 29.905 1.03437 29.995 0.812091C30.085 0.589816 30.2347 0.396766 30.4276 0.254296C30.6205 0.111825 30.8491 0.0254875 31.088 0.00483195C31.3269 -0.0158236 31.5669 0.0300082 31.7813 0.137258L36.1433 2.31823L38.0807 0.380769C38.3245 0.136983 38.6552 2.65789e-05 39 2.65789e-05C39.3447 2.65789e-05 39.6754 0.136983 39.9192 0.380769L41.8567 2.31823L46.2186 0.137258C46.4331 0.0300082 46.6731 -0.0158236 46.912 0.00483195C47.1509 0.0254875 47.3794 0.111825 47.5723 0.254296C47.7652 0.396766 47.9149 0.589816 48.0049 0.812091C48.0949 1.03437 48.1217 1.27721 48.0823 1.51375L46.8 9.20758V13.0745C48.4924 13.2671 50.1228 13.8253 51.5782 14.7103C53.0337 15.5952 54.2794 16.786 55.2292 18.2H65V20.8H62.533C62.7185 21.7007 63.0921 22.5521 63.6294 23.2985C64.1667 24.0449 64.8555 24.6694 65.6508 25.1311L64.3489 27.3817C63.159 26.6907 62.1404 25.7399 61.3692 24.6002C60.5981 23.4606 60.0942 22.1615 59.8952 20.8H57.2V49.4C57.2 49.5707 57.1663 49.7397 57.101 49.8974C57.0357 50.0552 56.9399 50.1985 56.8192 50.3192C56.6985 50.4399 56.5552 50.5357 56.3974 50.601C56.2397 50.6663 56.0707 50.7 55.9 50.7H22.1C21.9293 50.7 21.7602 50.6663 21.6025 50.601C21.4448 50.5357 21.3015 50.4399 21.1807 50.3192C21.06 50.1985 20.9643 50.0552 20.8989 49.8974ZM33.8 35.1H23.4V37.7H33.8V35.1ZM46.8 20.8H44.1056C43.822 22.7428 42.9189 24.5422 41.5305 25.9305C40.1422 27.3189 38.3428 28.222 36.4 28.5056V29.9943C38.3428 30.2779 40.1422 31.1811 41.5305 32.5694C42.9189 33.9578 43.822 35.7571 44.1056 37.7H46.8V20.8ZM36.4 20.8V25.8694C37.6478 25.6121 38.793 24.9948 39.6939 24.0939C40.5948 23.193 41.2121 22.0478 41.4694 20.8H36.4ZM39.6939 34.406C38.793 33.5051 37.6478 32.8879 36.4 32.6306V37.7H41.4694C41.2121 36.4521 40.5948 35.307 39.6939 34.406ZM46.8 40.3H36.4V48.1H46.8V40.3ZM33.8 40.3H23.4V42.9H33.8V40.3ZM33.8 45.5H23.4V48.1H33.8V45.5ZM49.4 40.3V48.1H54.6V40.3H49.4ZM49.4 37.7H54.6V20.8H49.4V37.7ZM44.2 10.4H33.8V13H44.2V10.4ZM36.6082 5.18313C36.3389 5.22683 36.0627 5.1847 35.8186 5.06272L32.902 3.60442L33.6012 7.79998H44.3987L45.0979 3.60442L42.1813 5.06272C41.9373 5.1847 41.6611 5.22683 41.3917 5.18313C41.1224 5.13942 40.8737 5.01211 40.6807 4.81921L39 3.13843L37.3192 4.81921C37.1262 5.01211 36.8775 5.13942 36.6082 5.18313ZM26.0683 18.2683C24.3623 19.9743 23.4027 22.2873 23.4 24.7V32.5H33.8V19.5C33.8 19.3293 33.8336 19.1602 33.8989 19.0025C33.9642 18.8448 34.06 18.7014 34.1807 18.5807C34.3014 18.46 34.4448 18.3643 34.6025 18.2989C34.7602 18.2336 34.9293 18.2 35.1 18.2H51.8641C50.1624 16.5374 47.879 15.6045 45.5 15.6H32.5C30.0873 15.6027 27.7743 16.5623 26.0683 18.2683ZM24.7 71.4999H23.4V67.6C23.4 67.4292 23.3664 67.2602 23.3011 67.1025C23.2357 66.9447 23.14 66.8014 23.0192 66.6807C22.8985 66.56 22.7552 66.4642 22.5975 66.3989C22.4398 66.3336 22.2707 66.2999 22.1 66.2999H20.8758C22.3389 63.9357 22.9614 61.147 22.6426 58.3851C22.3239 55.6231 21.0824 53.0495 19.1192 51.0807L18.2 50.1614V42.9C18.2003 41.9871 17.9602 41.0902 17.5038 40.2996C17.0474 39.509 16.3909 38.8525 15.6003 38.3961C14.8097 37.9398 13.9128 37.6997 12.9999 37.7C12.087 37.7003 11.1903 37.941 10.4 38.3978V22.1C10.4 20.7209 9.85215 19.3982 8.87696 18.423C7.90178 17.4478 6.57914 16.9 5.20001 16.9C3.82089 16.9 2.49825 17.4478 1.52306 18.423C0.547872 19.3982 1.62102e-05 20.7209 1.62102e-05 22.1V50.4255C-0.00557046 55.9891 1.43297 61.4589 4.17495 66.2999H3.90001C3.72929 66.2999 3.56024 66.3336 3.40252 66.3989C3.24479 66.4642 3.10148 66.56 2.98076 66.6807C2.86005 66.8014 2.76429 66.9447 2.69896 67.1025C2.63363 67.2602 2.60001 67.4292 2.60001 67.6V71.4999H1.30002C1.1293 71.4999 0.960247 71.5336 0.802521 71.5989C0.644796 71.6642 0.501483 71.76 0.380766 71.8807C0.260049 72.0014 0.164292 72.1447 0.0989627 72.3025C0.0336334 72.4602 1.13018e-05 72.6292 1.62102e-05 72.7999V77.9999H2.60001V74.0999H23.4V77.9999H26V72.7999C26 72.6292 25.9664 72.4602 25.9011 72.3025C25.8357 72.1447 25.74 72.0014 25.6192 71.8807C25.4985 71.76 25.3552 71.6642 25.1975 71.5989C25.0398 71.5336 24.8707 71.4999 24.7 71.4999ZM2.60001 50.4255V22.1C2.60001 21.4104 2.87394 20.7491 3.36154 20.2615C3.84913 19.7739 4.51045 19.5 5.20001 19.5C5.88957 19.5 6.55089 19.7739 7.03849 20.2615C7.52608 20.7491 7.80001 21.4104 7.80001 22.1V53.3C7.80001 53.6447 7.93697 53.9754 8.18077 54.2192C8.42457 54.463 8.75523 54.6 9.10001 54.6C9.44479 54.6 9.77545 54.463 10.0192 54.2192C10.263 53.9754 10.4 53.6447 10.4 53.3V42.9C10.4 42.2104 10.6739 41.5491 11.1615 41.0615C11.6491 40.5739 12.3104 40.3 13 40.3C13.6896 40.3 14.3509 40.5739 14.8385 41.0615C15.3261 41.5491 15.6 42.2104 15.6 42.9V50.7C15.6 50.8707 15.6336 51.0397 15.699 51.1974C15.7643 51.3552 15.8601 51.4985 15.9808 51.6192L17.2808 52.9192C19.0414 54.6799 20.0601 57.0485 20.1273 59.5376C20.1945 62.0267 19.305 64.4468 17.642 66.2999H7.20531C4.19208 61.554 2.59453 56.0472 2.60001 50.4255ZM5.20001 71.4999V68.8999H20.8V71.4999H5.20001ZM77.9999 22.1C77.9999 20.7209 77.4521 19.3982 76.4769 18.423C75.5017 17.4478 74.1791 16.9 72.7999 16.9C71.4208 16.9 70.0982 17.4478 69.123 18.423C68.1478 19.3982 67.6 20.7209 67.6 22.1V38.3978C66.8096 37.941 65.9129 37.7003 65 37.7C64.0872 37.6997 63.1903 37.9398 62.3997 38.3961C61.609 38.8525 60.9525 39.509 60.4962 40.2996C60.0398 41.0902 59.7997 41.9871 59.8 42.9V50.1614L58.8807 51.0807C56.9175 53.0495 55.6761 55.6231 55.3573 58.385C55.0386 61.147 55.6611 63.9357 57.1242 66.2999H55.9C55.7292 66.2999 55.5602 66.3336 55.4025 66.3989C55.2447 66.4642 55.1014 66.56 54.9807 66.6807C54.86 66.8014 54.7642 66.9447 54.6989 67.1025C54.6336 67.2602 54.6 67.4292 54.6 67.6V71.4999H53.3C53.1292 71.4999 52.9602 71.5336 52.8025 71.5989C52.6447 71.6642 52.5014 71.76 52.3807 71.8807C52.26 72.0014 52.1642 72.1447 52.0989 72.3025C52.0336 72.4602 52 72.6292 52 72.7999V77.9999H54.6V74.0999H75.3999V77.9999H77.9999V72.7999C77.9999 72.6292 77.9663 72.4602 77.901 72.3025C77.8357 72.1447 77.7399 72.0014 77.6192 71.8807C77.4985 71.76 77.3552 71.6642 77.1974 71.5989C77.0397 71.5336 76.8707 71.4999 76.6999 71.4999H75.3999V67.6C75.3999 67.4292 75.3663 67.2602 75.301 67.1025C75.2357 66.9447 75.1399 66.8014 75.0192 66.6807C74.8985 66.56 74.7552 66.4642 74.5974 66.3989C74.4397 66.3336 74.2707 66.2999 74.0999 66.2999H73.825C76.567 61.4589 78.0055 55.9891 77.9999 50.4255V22.1ZM57.2 71.4999V68.8999H72.7999V71.4999H57.2ZM75.3999 50.4255C75.4054 56.0472 73.8079 61.554 70.7946 66.2999H60.358C58.6949 64.4468 57.8054 62.0267 57.8726 59.5376C57.9398 57.0485 58.9585 54.6799 60.7192 52.9192L62.0192 51.6192C62.1399 51.4985 62.2357 51.3552 62.301 51.1974C62.3663 51.0397 62.4 50.8707 62.4 50.7V42.9C62.4 42.2104 62.6739 41.5491 63.1615 41.0615C63.6491 40.5739 64.3104 40.3 65 40.3C65.6895 40.3 66.3508 40.5739 66.8384 41.0615C67.326 41.5491 67.6 42.2104 67.6 42.9V53.3C67.6 53.6447 67.7369 53.9754 67.9807 54.2192C68.2245 54.463 68.5552 54.6 68.8999 54.6C69.2447 54.6 69.5754 54.463 69.8192 54.2192C70.063 53.9754 70.2 53.6447 70.2 53.3V22.1C70.2 21.4104 70.4739 20.7491 70.9615 20.2615C71.4491 19.7739 72.1104 19.5 72.7999 19.5C73.4895 19.5 74.1508 19.7739 74.6384 20.2615C75.126 20.7491 75.3999 21.4104 75.3999 22.1V50.4255Z" fill="#2F387B"/>
</svg>
