<svg width="71" height="78" viewBox="0 0 71 78" fill="none" xmlns="http://www.w3.org/2000/svg">
<path fill-rule="evenodd" clip-rule="evenodd" d="M52 35.1V1.3C52 0.955224 51.863 0.624573 51.6192 0.38078C51.3754 0.136986 51.0448 1.68066e-05 50.7 0H1.3C0.955224 1.68066e-05 0.624574 0.136986 0.38078 0.38078C0.136986 0.624573 1.68066e-05 0.955224 0 1.3V70.2C1.68066e-05 70.5448 0.136986 70.8754 0.38078 71.1192C0.624574 71.363 0.955224 71.5 1.3 71.5H40.3V68.9H2.6V2.6H49.4V35.1H52ZM31.2 7.8H36.4V10.4H31.2V7.8ZM28.6 7.8H15.6V10.4H28.6V7.8ZM10.4 19.5H22.1V22.1H10.4V19.5ZM46.8 19.5H24.7V22.1H46.8V19.5ZM41.6 24.7H46.8V27.3H41.6V24.7ZM39 27.3V24.7H18.2V27.3H39ZM5.2 24.7H15.6V27.3H5.2V24.7ZM39 29.9H28.6V32.5H39V29.9ZM26 29.9V32.5H5.2V29.9H26ZM22.1 40.3H10.4V42.9H22.1V40.3ZM24.7 40.3H39V42.9H24.7V40.3ZM33.8 45.5H18.2V48.1H33.8V45.5ZM15.6 45.5V48.1H5.2V45.5H15.6ZM29.9 50.7H23.4V53.3H29.9V50.7ZM5.2 53.3V50.7H20.8V53.3H5.2ZM27.3 35.1H13V37.7H27.3V35.1ZM7.8 35.1H10.4V37.7H7.8V35.1ZM27.3 14.3H13V16.9H27.3V14.3ZM7.8 14.3H10.4V16.9H7.8V14.3ZM37.7 57.2H29.9V59.8H37.7V57.2ZM27.3 62.4H40.3V65H27.3V62.4ZM68.8611 39.1636L70.1611 44.3636C70.2415 44.6848 70.1962 45.0245 70.0346 45.3135C69.873 45.6025 69.6072 45.8189 69.2915 45.9186L62.4 48.0949V53.3C62.4 53.5018 62.353 53.7009 62.2627 53.8814L59.3034 59.7999H59.8C60.1448 59.8 60.4754 59.9369 60.7192 60.1807C60.963 60.4245 61.1 60.7552 61.1 61.1V65C61.4448 65 61.7754 65.1369 62.0192 65.3807C62.263 65.6245 62.4 65.9552 62.4 66.2999V78H59.8V67.6H45.5V78H42.9V66.2999C42.9 65.9552 43.037 65.6245 43.2808 65.3807C43.5246 65.1369 43.8552 65 44.2 65H45.5V61.1C45.5 60.7552 45.637 60.4245 45.8808 60.1807C46.1246 59.9369 46.4552 59.8 46.8 59.7999H47.5614L45.8807 58.1192C45.3169 57.5545 44.8974 56.8624 44.6575 56.1013C44.4176 55.3402 44.3645 54.5326 44.5026 53.7467L41.9915 54.5396C41.8648 54.5796 41.7328 54.6 41.6 54.6H33.8C33.5429 54.5999 33.2915 54.5237 33.0778 54.3808C32.864 54.238 32.6974 54.0349 32.599 53.7974C32.5006 53.5599 32.4748 53.2985 32.525 53.0463C32.5751 52.7941 32.6989 52.5625 32.8807 52.3807L38.0807 47.1807C38.2324 47.0289 38.4194 46.9172 38.6248 46.8553L43.0702 45.5153C42.7051 45.0258 42.4591 44.458 42.3516 43.857C42.2441 43.2559 42.2781 42.638 42.4509 42.0523C42.6237 41.4666 42.9306 40.9293 43.3471 40.4828C43.7637 40.0363 44.2785 39.693 44.8508 39.48L50.3077 37.4337C52.0838 36.7671 54.0259 36.6825 55.8532 37.1923C57.6805 37.7021 59.2984 38.7798 60.4729 40.2696L67.2248 38.2343C67.3933 38.1835 67.5703 38.1674 67.7451 38.187C67.92 38.2067 68.089 38.2616 68.242 38.3485C68.395 38.4354 68.5287 38.5524 68.6352 38.6925C68.7416 38.8326 68.8184 38.9929 68.8611 39.1636ZM51.2205 39.868L45.7637 41.9143C45.575 41.9847 45.4046 42.0967 45.2651 42.242C45.1257 42.3873 45.0208 42.5622 44.9583 42.7536C44.8958 42.9451 44.8773 43.1482 44.9041 43.3478C44.9309 43.5474 45.0024 43.7384 45.1133 43.9065C46.0255 43.5872 47.0271 43.6423 47.8988 44.0599L57.7055 41.1037C56.8423 40.3221 55.7805 39.7933 54.6365 39.5753C53.4926 39.3573 52.3107 39.4586 51.2205 39.868ZM36.9384 52H41.3996L44.4519 51.036L43.3702 49.5937C43.0865 49.2141 42.8788 48.7832 42.7585 48.3247L39.6881 49.2503L36.9384 52ZM48.1 62.4V65H58.5V62.4H48.1ZM56.3965 59.7999L59.8 52.993V48.9159L53.8214 50.8039L55.1803 52.4817L53.1599 54.1182L50.5997 50.9572L47.1554 46.7044C46.9772 46.4843 46.7196 46.3429 46.4381 46.3107C46.1567 46.2785 45.8738 46.358 45.6504 46.5322C45.427 46.7064 45.2809 46.9613 45.2435 47.2421C45.206 47.5229 45.2803 47.8072 45.4503 48.0338L47.84 51.22C48.0278 51.4703 48.1189 51.78 48.0967 52.0922C48.0745 52.4043 47.9405 52.698 47.7193 52.9193C47.2742 53.3653 47.0242 53.9698 47.0242 54.6C47.0242 55.2301 47.2742 55.8346 47.7193 56.2807L51.2386 59.7999H56.3965ZM50.0367 46.1308L52.0628 48.6326L67.3421 43.8075L66.6696 41.1171L50.0367 46.1308Z" fill="#2F387B"/>
</svg>
