<svg width="72" height="72" fill="none" xmlns="http://www.w3.org/2000/svg"><g filter="url(#filter0_d)" fill="#fff"><path d="M63.289 6.71c-8.947-8.946-23.43-8.948-32.378 0-7.824 7.825-8.645 19.614-3.287 28.239L11.549 50.965a5.3 5.3 0 000 7.487 5.3 5.3 0 007.484.002l16.094-16.033c8.706 5.363 20.432 4.399 28.163-3.332 8.947-8.947 8.948-23.43 0-32.378zm-46.75 49.246a1.765 1.765 0 01-2.498-2.493l9.401-9.366 2.496 2.496-9.399 9.363zm11.899-11.854l-2.496-2.495 3.796-3.782c.39.453.831.921 1.173 1.263.013.012.589.595 1.327 1.228l-3.8 3.786zm32.355-7.509a19.248 19.248 0 01-12.207 5.618c-6.12.465-11.68-1.998-15.342-5.78-7.468-7.716-7.287-19.775.163-27.225A19.238 19.238 0 0147.1 3.534c10.703 0 19.365 8.662 19.365 19.366a19.238 19.238 0 01-5.672 13.693z"/><path d="M47.1 7.063c-8.752 0-15.836 7.083-15.836 15.837 0 8.752 7.083 15.836 15.836 15.836 8.752 0 15.836-7.083 15.836-15.836 0-8.752-7.083-15.837-15.836-15.837zm0 28.143c-6.802 0-12.307-5.504-12.307-12.306S40.297 10.593 47.1 10.593c6.801 0 12.307 5.504 12.307 12.307 0 6.801-5.504 12.306-12.307 12.306z"/><path d="M48.809 15.891h-3.53v5.203h-5.19v3.53h5.19v5.384h3.53v-5.385h5.397v-3.529h-5.397v-5.203z"/></g><defs><filter id="filter0_d" x="0" y="0" width="72" height="72" filterUnits="userSpaceOnUse" color-interpolation-filters="sRGB"><feFlood flood-opacity="0" result="BackgroundImageFix"/><feColorMatrix in="SourceAlpha" values="0 0 0 0 0 0 0 0 0 0 0 0 0 0 0 0 0 0 127 0" result="hardAlpha"/><feOffset dx="-4" dy="6"/><feGaussianBlur stdDeviation="3"/><feColorMatrix values="0 0 0 0 0 0 0 0 0 0 0 0 0 0 0 0 0 0 0.25 0"/><feBlend in2="BackgroundImageFix" result="effect1_dropShadow"/><feBlend in="SourceGraphic" in2="effect1_dropShadow" result="shape"/></filter></defs></svg>