<svg width="72" height="72" viewBox="0 0 72 72" fill="none" xmlns="http://www.w3.org/2000/svg">
<g filter="url(#filter0_d)">
<path d="M63.2888 6.71084C54.3417 -2.23624 39.8595 -2.23765 30.9111 6.71084C23.0873 14.5347 22.2657 26.3237 27.6245 34.9489L11.5481 50.9651C9.48397 53.0291 9.48397 56.3876 11.5481 58.4516C13.6091 60.5127 16.9672 60.5187 19.0323 58.4541L35.1255 42.4213C43.8318 47.7842 55.5579 46.8196 63.2888 39.0886C72.2359 30.1417 72.2373 15.6593 63.2888 6.71084ZM16.5391 55.9561C15.8509 56.6441 14.7318 56.6441 14.0436 55.9561C13.3555 55.268 13.3555 54.1487 14.0413 53.4631L23.4422 44.0974L25.9376 46.5929L16.5391 55.9561ZM28.4378 44.102L25.9423 41.6065L29.7379 37.8251C30.1286 38.2784 30.5693 38.7465 30.9111 39.0883C30.9237 39.1003 31.5 39.6833 32.2383 40.3156L28.4378 44.102ZM60.7933 36.593C57.3535 40.0326 52.9999 41.8753 48.5862 42.2108C42.4654 42.6761 36.9059 40.2133 33.2443 36.4305C25.7755 28.7148 25.957 16.6562 33.4066 9.20636C37.0642 5.54866 41.9273 3.53441 47.0998 3.53441C57.8026 3.53441 66.4651 12.1956 66.4651 22.8997C66.4652 28.0723 64.451 32.9354 60.7933 36.593Z" fill="white"/>
<path d="M47.0999 7.06348C38.3479 7.06348 31.2639 14.1463 31.2639 22.8995C31.2639 31.6515 38.3467 38.7355 47.0999 38.7355C55.8517 38.7355 62.9359 31.6529 62.9359 22.8995C62.9359 14.1478 55.8533 7.06348 47.0999 7.06348ZM47.0999 35.2064C40.2985 35.2064 34.7931 29.7022 34.7931 22.8996C34.7931 16.0981 40.2973 10.5928 47.0999 10.5928C53.9013 10.5928 59.4067 16.097 59.4067 22.8996C59.4067 29.701 53.9025 35.2064 47.0999 35.2064Z" fill="white"/>
<path d="M48.8086 15.8914H45.2794V21.0942H40.0888V24.6234H45.2794V30.0083H48.8086V24.6234H54.2057V21.0942H48.8086V15.8914Z" fill="white"/>
</g>
<defs>
<filter id="filter0_d" x="0" y="0" width="71.9996" height="72" filterUnits="userSpaceOnUse" color-interpolation-filters="sRGB">
<feFlood flood-opacity="0" result="BackgroundImageFix"/>
<feColorMatrix in="SourceAlpha" type="matrix" values="0 0 0 0 0 0 0 0 0 0 0 0 0 0 0 0 0 0 127 0" result="hardAlpha"/>
<feOffset dx="-4" dy="6"/>
<feGaussianBlur stdDeviation="3"/>
<feColorMatrix type="matrix" values="0 0 0 0 0 0 0 0 0 0 0 0 0 0 0 0 0 0 0.25 0"/>
<feBlend mode="normal" in2="BackgroundImageFix" result="effect1_dropShadow"/>
<feBlend mode="normal" in="SourceGraphic" in2="effect1_dropShadow" result="shape"/>
</filter>
</defs>
</svg>
