<svg width="30" height="30" fill="none" xmlns="http://www.w3.org/2000/svg"><path fill-rule="evenodd" clip-rule="evenodd" d="M18.235 9.113V2.738h11.511V30H0V17.217c0-2.249.67-4.405 1.938-6.236a10.79 10.79 0 014.308-3.645L4.912 0l5.993 1.498L16.898 0l-1.334 7.336a10.758 10.758 0 012.671 1.777zm9.694-4.558h-7.876V6.98h7.876V4.555zM14.606 2.446l-3.701.926-3.7-.926.823 4.533h5.753l.824-4.533zM1.817 17.217v10.966h18.174V17.217c0-3.744-2.205-7.031-5.63-8.42H7.448c-3.426 1.389-5.63 4.675-5.63 8.42zm26.11-8.42h-7.875v2.422h7.876V8.796zM21.81 28.182h6.119v-2.424h-6.12v2.424zm0-4.241h6.119v-2.424h-6.12v2.424zm0-4.241h6.119v-2.423h-6.12V19.7zm-.139-4.24h6.258v-2.424h-6.94c.32.776.549 1.588.682 2.423zm-7.434.605h-1.818c0-.494-.238-.934-.605-1.21v2.958l.084.025c1.508.455 2.339 1.546 2.339 3.074a3.337 3.337 0 01-2.423 3.205v1.035H9.996v-1.035a3.337 3.337 0 01-2.423-3.205H9.39c0 .494.239.934.606 1.21v-2.958l-.084-.026c-1.508-.454-2.34-1.545-2.34-3.073a3.337 3.337 0 012.424-3.205v-1.036h1.818v1.036a3.337 3.337 0 012.423 3.205zm-4.847 0c0 .558.182.915.606 1.152v-2.363a1.513 1.513 0 00-.606 1.211zm2.424 6.057c.367-.276.605-.716.605-1.21 0-.559-.181-.916-.605-1.153v2.363z" fill="#2F387B"/></svg>