<svg width="30" height="30" viewBox="0 0 30 30" fill="none" xmlns="http://www.w3.org/2000/svg">
<path fill-rule="evenodd" clip-rule="evenodd" d="M18.2355 9.11327V2.73779H29.7461V30H0V17.2171C0 14.968 0.670166 12.8116 1.93804 10.981C3.03701 9.39432 4.51602 8.14552 6.24614 7.33626L4.91223 0L10.9049 1.49815L16.8976 0L15.5637 7.33626C16.5425 7.79409 17.4408 8.39258 18.2355 9.11327ZM27.9287 4.55527H20.0529V6.97858H27.9287V4.55527ZM14.6055 2.44639L10.9048 3.37155L7.20425 2.44639L8.0283 6.97852H13.7814L14.6055 2.44639ZM1.81754 17.2171V28.1825H19.9923V17.2171C19.9923 13.4725 17.7874 10.1857 14.3622 8.79606H7.44761C4.02245 10.1856 1.81754 13.4725 1.81754 17.2171ZM27.9287 8.79606H20.0529V11.2194H27.9287V8.79606ZM21.8098 28.1825H27.9287V25.7592H21.8098V28.1825ZM21.8098 23.9417H27.9287V21.5184H21.8098V23.9417ZM21.8098 19.7009H27.9287V17.2776H21.8098V19.7009ZM21.671 15.4602H27.9287V13.0368H20.9898C21.3092 13.8135 21.5377 14.6255 21.671 15.4602ZM14.237 16.066H12.4195C12.4195 15.5716 12.1814 15.1317 11.8137 14.8551V17.8139L11.8977 17.8392C13.4062 18.2935 14.237 19.3849 14.237 20.9126C14.237 22.4349 13.2105 23.721 11.8137 24.1177V25.1534H9.9962V24.1177C8.59935 23.721 7.5729 22.4349 7.5729 20.9126H9.39038C9.39038 21.407 9.62859 21.8468 9.9962 22.1234V19.1647L9.91218 19.1393C8.40367 18.6851 7.5729 17.5936 7.5729 16.066C7.5729 14.5437 8.59935 13.2575 9.9962 12.8609V11.8252H11.8137V12.8609C13.2105 13.2576 14.237 14.5437 14.237 16.066ZM9.39038 16.066C9.39038 16.6243 9.57206 16.9812 9.9962 17.2181V14.8552C9.62859 15.1317 9.39038 15.5716 9.39038 16.066ZM11.8137 22.1234C12.1813 21.8468 12.4195 21.407 12.4195 20.9126C12.4195 20.3543 12.2378 19.9973 11.8137 19.7604V22.1234Z" fill="#2F387B"/>
</svg>
