<svg width="78" height="78" viewBox="0 0 78 78" fill="none" xmlns="http://www.w3.org/2000/svg">
<path d="M76.7 23.4H73.6034L68.4034 13H72.8C73.1448 13 73.4754 12.863 73.7192 12.6192C73.963 12.3754 74.1 12.0448 74.1 11.7V7.80001C74.1 7.47248 73.9763 7.15703 73.7538 6.91672C73.5313 6.67641 73.2262 6.52895 72.8997 6.50382L56.4792 5.2407L55.2962 4.05774C54.0097 2.77129 52.4825 1.75081 50.8017 1.05458C49.1209 0.358355 47.3194 7.39399e-06 45.5001 1.14422e-10C43.6808 -7.39376e-06 41.8793 0.358326 40.1985 1.05454C38.5177 1.75075 36.9904 2.77122 35.704 4.05766L34.5208 5.2407L18.1003 6.50382C17.7738 6.52895 17.4687 6.67641 17.2462 6.91672C17.0237 7.15703 16.9 7.47248 16.9 7.80001V11.7C16.9 12.0448 17.037 12.3754 17.2808 12.6192C17.5246 12.863 17.8552 13 18.2 13H22.5966L17.3966 23.4H14.3C13.9552 23.4 13.6246 23.537 13.3808 23.7808C13.137 24.0246 13 24.3552 13 24.7V26C13 29.103 14.2327 32.079 16.4268 34.2732C18.621 36.4673 21.597 37.7 24.7 37.7C27.803 37.7 30.779 36.4673 32.9731 34.2732C35.1673 32.079 36.4 29.103 36.4 26V24.7C36.4 24.3552 36.263 24.0246 36.0192 23.7808C35.7754 23.537 35.4448 23.4 35.1 23.4H32.0034L26.8034 13H38.8466L40.3 15.9068V32.5C40.3001 32.7018 40.3474 32.9007 40.4382 33.0809L40.4373 33.0814C40.749 33.7086 40.9112 34.3996 40.9112 35.1C40.9112 35.8004 40.749 36.4914 40.4373 37.1186L40.4382 37.1191C40.3474 37.2993 40.3001 37.4982 40.3 37.7V48.1C40.2385 48.1 40.177 48.1044 40.1161 48.1131L32.4832 49.2035C32.4563 49.0247 32.3922 48.8534 32.2951 48.7008C32.1981 48.5482 32.0702 48.4175 31.9196 48.3173C31.7691 48.217 31.5993 48.1494 31.421 48.1186C31.2428 48.0879 31.0601 48.0948 30.8847 48.1388L27.3 49.035V45.5C27.2984 44.1214 26.7501 42.7996 25.7752 41.8248C24.8004 40.8499 23.4786 40.3016 22.1 40.3H15.6C14.2214 40.3016 12.8996 40.8499 11.9248 41.8248C10.9499 42.7996 10.4016 44.1214 10.4 45.5V61.1C10.3993 62.0133 10.6407 62.9104 11.0996 63.7H7.8C5.73202 63.7023 3.74941 64.5248 2.28713 65.9871C0.824852 67.4494 0.00232256 69.432 0 71.5V76.7C3.44775e-06 77.0448 0.136968 77.3754 0.380765 77.6192C0.624561 77.863 0.95522 78 1.3 78H61.1C61.4448 78 61.7754 77.863 62.0192 77.6192C62.263 77.3754 62.4 77.0448 62.4 76.7C62.398 74.9767 61.7126 73.3245 60.494 72.106C59.2755 70.8874 57.6233 70.202 55.9 70.2H55.7692C55.512 68.9522 54.8948 67.807 53.9939 66.9061C53.093 66.0052 51.9478 65.388 50.7 65.1308V58.5H72.8C74.1791 58.5 75.5018 57.9521 76.4769 56.977C77.4521 56.0018 78 54.6791 78 53.3C78 51.9209 77.4521 50.5982 76.4769 49.6231C75.5018 48.6479 74.1791 48.1 72.8 48.1H50.7V37.7C50.7001 37.4779 50.6431 37.2595 50.5343 37.0658L50.5346 37.0656C50.1915 36.4674 50.011 35.7897 50.011 35.1C50.011 34.4103 50.1915 33.7326 50.5346 33.1344L50.5343 33.1342C50.6431 32.9405 50.7001 32.7221 50.7 32.5V15.9068L52.1534 13H64.1966L58.9966 23.4H55.9C55.5552 23.4 55.2246 23.537 54.9808 23.7808C54.737 24.0246 54.6 24.3552 54.6 24.7V26C54.6 29.103 55.8327 32.079 58.0268 34.2732C60.221 36.4673 63.197 37.7 66.3 37.7C69.403 37.7 72.379 36.4673 74.5731 34.2732C76.7673 32.079 78 29.103 78 26V24.7C78 24.3552 77.863 24.0246 77.6192 23.7808C77.3754 23.537 77.0448 23.4 76.7 23.4ZM19.5 9.00384L35.1997 7.7962C35.509 7.77243 35.7997 7.63874 36.0191 7.41931L37.5424 5.89619C38.5874 4.85117 39.828 4.02221 41.1934 3.45665C42.5588 2.89109 44.0222 2.60001 45.5001 2.60002C46.978 2.60002 48.4414 2.89112 49.8068 3.4567C51.1721 4.02227 52.4127 4.85124 53.4577 5.89627L54.9808 7.41932C55.2003 7.63875 55.4909 7.77243 55.8003 7.79621L71.5 9.00384V10.4H52.5384L50.8577 8.71923L50.8576 8.71915C49.4366 7.29824 47.5094 6.49999 45.4999 6.50001C43.4904 6.50002 41.5632 7.2983 40.1423 8.71923L38.4616 10.4H19.5V9.00384ZM47.5481 36.4H43.3894C43.5476 35.5406 43.5476 34.6595 43.3894 33.8H47.5481C47.3742 34.6579 47.3742 35.5421 47.5481 36.4ZM42.9 31.2V16.9H48.1V31.2H42.9ZM42.4035 14.3L41.0151 11.5234L41.9807 10.5577C42.914 9.62438 44.1799 9.10002 45.4999 9.1C46.8199 9.09999 48.0858 9.62432 49.0191 10.5577L49.9849 11.5234L48.5965 14.3H42.4035ZM24.7 35.1C22.2874 35.0973 19.9743 34.1377 18.2683 32.4317C16.5623 30.7257 15.6027 28.4126 15.6 26H33.8C33.7973 28.4126 32.8377 30.7257 31.1317 32.4317C29.4257 34.1377 27.1126 35.0973 24.7 35.1ZM20.3034 23.4L24.7 14.6068L29.0966 23.4H20.3034ZM40.3924 50.7H70.2V55.9H40.3924L32.5 54.7725V51.8275L40.3924 50.7ZM31.2 58.5C31.5106 58.5003 31.811 58.389 32.0465 58.1865C32.282 57.984 32.437 57.7036 32.4832 57.3965L40.1161 58.4869C40.177 58.4956 40.2385 58.5 40.3 58.5V65.1327C39.5054 65.2945 38.7483 65.6038 38.0677 66.0446C37.343 65.3021 36.4771 64.7121 35.5209 64.3095C34.5646 63.9068 33.5375 63.6996 32.5 63.7H26.6004C27.0593 62.9104 27.3007 62.0133 27.3 61.1V57.565L30.8847 58.4612C30.9878 58.487 31.0937 58.5 31.2 58.5ZM13 49.4H24.7V57.2H13V49.4ZM29.9 51.065V55.535L27.3 54.885V51.715L29.9 51.065ZM13 45.5C13.0008 44.8107 13.275 44.1498 13.7624 43.6624C14.2498 43.175 14.9107 42.9008 15.6 42.9H22.1C22.7893 42.9008 23.4502 43.175 23.9376 43.6624C24.425 44.1498 24.6992 44.8107 24.7 45.5V46.8H13V45.5ZM13 61.1V59.8H24.7V61.1C24.6992 61.7893 24.425 62.4502 23.9376 62.9376C23.4502 63.425 22.7893 63.6992 22.1 63.7H15.6C14.9107 63.6992 14.2498 63.425 13.7624 62.9376C13.275 62.4502 13.0008 61.7893 13 61.1ZM37.7 75.4H2.6V71.5C2.60156 70.1214 3.14992 68.7996 4.12477 67.8248C5.09962 66.8499 6.42135 66.3016 7.8 66.3H32.5C33.8786 66.3016 35.2004 66.8499 36.1752 67.8248C37.1501 68.7996 37.6984 70.1214 37.7 71.5V75.4ZM59.5772 75.4H40.3V72.8H55.9C56.7063 72.8009 57.4926 73.0513 58.1509 73.5168C58.8093 73.9823 59.3075 74.6401 59.5772 75.4ZM53.0772 70.2H40.1896C40.072 69.5008 39.8589 68.8211 39.5562 68.1799C40.1706 67.801 40.8782 67.6002 41.6 67.6H49.4C50.2063 67.6009 50.9926 67.8513 51.6509 68.3168C52.3093 68.7823 52.8075 69.4401 53.0772 70.2ZM48.1 65H42.9V58.5H48.1V65ZM75.4 53.3C75.3992 53.9893 75.125 54.6502 74.6376 55.1376C74.1502 55.625 73.4893 55.8992 72.8 55.9V50.7C73.4893 50.7008 74.1502 50.975 74.6376 51.4624C75.125 51.9498 75.3992 52.6107 75.4 53.3ZM42.9 48.1V39H48.1V48.1H42.9ZM66.3 14.6068L70.6966 23.4H61.9034L66.3 14.6068ZM66.3 35.1C63.8874 35.0973 61.5743 34.1377 59.8683 32.4317C58.1623 30.7257 57.2027 28.4126 57.2 26H75.4C75.3973 28.4126 74.4377 30.7257 72.7317 32.4317C71.0257 34.1377 68.7126 35.0973 66.3 35.1Z" fill="#2F387B"/>
</svg>
