<svg width="12" height="16" viewBox="0 0 12 16" fill="none" xmlns="http://www.w3.org/2000/svg">
<path d="M3.66797 10.914C3.66797 9.86738 3.79688 9.04301 4.05469 8.44086C4.3125 7.83154 4.73047 7.30466 5.30859 6.86022C5.88672 6.41577 6.32422 6.01075 6.62109 5.64516C6.92578 5.2724 7.07812 4.8638 7.07812 4.41935C7.07812 3.33692 6.57031 2.7957 5.55469 2.7957C5.08594 2.7957 4.70703 2.9534 4.41797 3.26882C4.12891 3.58423 3.97656 4.01075 3.96094 4.54839H0C0.015625 3.1147 0.507812 2 1.47656 1.2043C2.44531 0.401434 3.80469 0 5.55469 0C7.29688 0 8.64453 0.369176 9.59766 1.10753C10.5586 1.84588 11.0391 2.89606 11.0391 4.25806C11.0391 4.85305 10.9102 5.39427 10.6523 5.88172C10.3945 6.36918 9.98047 6.86738 9.41016 7.37634L8.0625 8.52688C7.67969 8.8638 7.41406 9.21147 7.26562 9.56989C7.11719 9.92115 7.03516 10.3692 7.01953 10.914H3.66797ZM3.1875 14.1828C3.1875 13.6523 3.39453 13.2186 3.80859 12.8817C4.23047 12.5376 4.75391 12.3656 5.37891 12.3656C6.00391 12.3656 6.52344 12.5376 6.9375 12.8817C7.35938 13.2186 7.57031 13.6523 7.57031 14.1828C7.57031 14.7133 7.35938 15.1505 6.9375 15.4946C6.52344 15.8315 6.00391 16 5.37891 16C4.75391 16 4.23047 15.8315 3.80859 15.4946C3.39453 15.1505 3.1875 14.7133 3.1875 14.1828Z" fill="#2F387B"/>
</svg>
