<svg width="73" height="78" viewBox="0 0 73 78" fill="none" xmlns="http://www.w3.org/2000/svg">
<path d="M52.6021 33.5967C52.89 33.78 53.2386 33.8427 53.5723 33.7711L71.7723 29.8711C72.0632 29.8088 72.324 29.6487 72.511 29.4173C72.698 29.186 72.8 28.8975 72.8 28.6V24.7C72.8 24.3552 72.663 24.0246 72.4193 23.7808C72.1755 23.537 71.8448 23.4 71.5 23.4H57.2V20.5769C57.206 18.3877 56.5005 16.2558 55.1899 14.5023C55.8155 14.017 56.3219 13.3951 56.6703 12.684C57.0187 11.973 57.1999 11.1918 57.2 10.4V4.29356C57.2 3.51642 56.9891 2.75386 56.5898 2.08719C56.1904 1.42052 55.6176 0.874736 54.9324 0.50804C54.2472 0.141344 53.4754 -0.0325129 52.6992 0.00500826C51.9229 0.0425295 51.1714 0.290022 50.5248 0.721094L47.3789 2.81836C47.2009 2.93706 47.0548 3.0979 46.9539 3.28659C46.8529 3.47528 46.8 3.68599 46.8 3.9V9.54275L44.3155 10.6076L30.852 14.3474C30.583 14.4222 30.3453 14.5815 30.1739 14.8019L21.371 26.1201L16.2618 27.1419L12.5817 23.7448C12.4548 23.6276 12.3057 23.5369 12.1433 23.478C11.9809 23.419 11.8084 23.3931 11.6358 23.4016C11.4632 23.4101 11.2941 23.453 11.1383 23.5276C10.9825 23.6023 10.8431 23.7073 10.7284 23.8364L0.328351 35.5364C0.102095 35.7909 -0.0152375 36.1241 0.0015891 36.4642C0.0184157 36.8043 0.168057 37.1242 0.418329 37.3552L17.3183 52.9552C17.5584 53.1769 17.8732 53.3001 18.2 53.3C18.2213 53.3 18.2427 53.2995 18.2641 53.2984C18.4367 53.2899 18.6059 53.247 18.7617 53.1724C18.9175 53.0977 19.0569 52.9927 19.1717 52.8636L25.7619 45.4496L22.4376 53.523L4.84297 58.55C4.67423 58.5982 4.51699 58.68 4.38074 58.7906C4.24448 58.9012 4.13202 59.0383 4.05015 59.1935C3.96827 59.3487 3.91866 59.5189 3.90431 59.6938C3.88997 59.8687 3.91118 60.0447 3.96667 60.2112L5.26667 64.1112C5.36082 64.3933 5.54886 64.6347 5.79944 64.795C6.05002 64.9553 6.34799 65.0249 6.64364 64.9921L30.0436 62.3921C30.246 62.3696 30.4402 62.2998 30.6107 62.1885C30.7812 62.0772 30.9231 61.9275 31.0251 61.7513L37.8586 49.9481L45.4234 56.4322L42.91 76.5388C42.8872 76.7217 42.9035 76.9073 42.9579 77.0835C43.0123 77.2596 43.1035 77.4221 43.2255 77.5603C43.3475 77.6985 43.4975 77.8091 43.6655 77.8849C43.8335 77.9607 44.0157 78 44.2 78H48.1C48.3729 78 48.6388 77.9142 48.8602 77.7547C49.0815 77.5951 49.2471 77.37 49.3334 77.1112L57.1334 53.7112C57.1972 53.5197 57.2155 53.316 57.187 53.1162C57.1584 52.9164 57.0837 52.726 56.9688 52.56L45.9594 36.6574L51.0332 32.5983L52.6021 33.5967ZM70.2 27.549L66.3 28.3847V26H70.2V27.549ZM54.6 20.5769V22.1L51.48 19.7599L49.9201 21.8401L55.1201 25.7401C55.3451 25.9088 55.6188 26 55.9 26H63.7V28.9418L53.5485 31.1172L43.1857 24.5227C42.2292 23.9141 41.4569 23.056 40.952 22.0409C40.4471 21.0258 40.2288 19.8922 40.3204 18.7622C40.4121 17.6322 40.8103 16.5486 41.4722 15.6282C42.134 14.7078 43.0345 13.9853 44.0766 13.5388L47.133 12.2288C47.5451 13.3314 48.32 14.2611 49.3304 14.8651C50.3407 15.4691 51.5265 15.7115 52.6928 15.5525C53.9257 16.9352 54.6048 18.7243 54.6 20.5769ZM52 13C51.3107 12.9992 50.6498 12.725 50.1624 12.2376C49.675 11.7502 49.4008 11.0893 49.4 10.4V7.8H54.6V10.4C54.5992 11.0893 54.3251 11.7502 53.8376 12.2376C53.3502 12.725 52.6894 12.9992 52 13ZM49.4 4.5957L51.9672 2.88421C52.2223 2.71426 52.5187 2.61671 52.8248 2.60196C53.131 2.58721 53.4354 2.65582 53.7056 2.80047C53.9759 2.94513 54.2018 3.1604 54.3593 3.42334C54.5168 3.68629 54.6 3.98704 54.6 4.29356V5.2H49.4V4.5957ZM31.9622 16.7375L38.907 14.8084C38.3885 15.6946 38.0288 16.6646 37.8443 17.6747L37.8165 17.662L36.3901 20.8H33.8C33.4897 20.8 33.1896 20.911 32.954 21.1129L29.6681 23.9294L27.812 22.0734L31.9622 16.7375ZM31.3165 31.962C31.31 31.9763 31.3054 31.9912 31.2994 32.0056L31.2979 32.005L28.6078 38.5382L26 36.131V30.4979L34.2809 23.4H35.2083L31.3165 31.962ZM13 27.6692L25.7083 39.3999L19.9596 40.2211L13 33.2616V27.6692ZM26.2033 24.1418L27.688 25.6266L24.7679 28.1295L23.8307 27.1922L26.2033 24.1418ZM21.6727 28.7112L23.4 30.4386V33.731L18.6228 29.3212L21.6727 28.7112ZM18.1085 50.1463L3.11926 36.3102L10.4 28.1192V33.8C10.4 34.1448 10.537 34.4755 10.7807 34.7193L18.5807 42.5193C18.7235 42.6619 18.8975 42.7694 19.089 42.8332C19.2804 42.8971 19.4841 42.9155 19.6839 42.887L25.2705 42.0889L18.1085 50.1463ZM29.1039 59.8805L7.40092 62.2919L6.86264 60.6769L23.7571 55.85C23.9458 55.7961 24.1199 55.7002 24.2662 55.5694C24.4126 55.4386 24.5274 55.2764 24.6021 55.095L33.2401 34.1171L42.2758 37.129L29.1039 59.8805ZM47.1631 75.4H45.6727L48.09 56.0612C48.1167 55.848 48.0901 55.6316 48.0126 55.4312C47.9351 55.2308 47.8091 55.0527 47.646 54.9129L39.1836 47.6594L44.298 38.8254L54.4612 53.5055L47.1631 75.4ZM43.9403 34.9431L34.281 31.7234L38.3881 22.6878C39.0835 24.3468 40.2708 25.7527 41.7898 26.7162L48.715 31.1231L43.9403 34.9431Z" fill="#2F387B"/>
</svg>
