<svg width="73" height="78" fill="none" xmlns="http://www.w3.org/2000/svg"><path d="M52.602 33.597a1.3 1.3 0 00.97.174l18.2-3.9A1.3 1.3 0 0072.8 28.6v-3.9a1.3 1.3 0 00-1.3-1.3H57.2v-2.823a10.1 10.1 0 00-2.01-6.075A5.193 5.193 0 0057.2 10.4V4.294A4.294 4.294 0 0050.525.72l-3.146 2.097A1.3 1.3 0 0046.8 3.9v5.643l-2.484 1.065-13.464 3.74a1.3 1.3 0 00-.678.454L21.37 26.12l-5.11 1.022-3.68-3.397a1.299 1.299 0 00-1.853.091l-10.4 11.7a1.3 1.3 0 00.09 1.82l16.9 15.6a1.3 1.3 0 001.854-.092l6.59-7.414-3.324 8.073L4.843 58.55a1.3 1.3 0 00-.876 1.661l1.3 3.9a1.3 1.3 0 001.377.881l23.4-2.6a1.3 1.3 0 00.981-.64l6.834-11.804 7.564 6.484L42.91 76.54A1.3 1.3 0 0044.2 78h3.9a1.3 1.3 0 001.233-.889l7.8-23.4a1.301 1.301 0 00-.164-1.151l-11.01-15.903 5.074-4.059 1.57.999zM70.2 27.549l-3.9.836V26h3.9v1.549zm-15.6-6.972V22.1l-3.12-2.34-1.56 2.08 5.2 3.9a1.3 1.3 0 00.78.26h7.8v2.942l-10.152 2.175-10.362-6.594a6.23 6.23 0 01.89-10.984l3.057-1.31a5.187 5.187 0 005.56 3.324 7.52 7.52 0 011.907 5.024zM52 13a2.603 2.603 0 01-2.6-2.6V7.8h5.2v2.6A2.603 2.603 0 0152 13zm-2.6-8.404l2.567-1.712a1.694 1.694 0 012.633 1.41V5.2h-5.2v-.604zM31.962 16.738l6.945-1.93a8.81 8.81 0 00-1.063 2.867l-.028-.013L36.39 20.8H33.8a1.3 1.3 0 00-.846.313l-3.286 2.816-1.856-1.856 4.15-5.335zm-.645 15.224c-.007.014-.012.03-.018.044l-.001-.001-2.69 6.533L26 36.131v-5.633l8.28-7.098h.928l-3.891 8.562zM13 27.669L25.708 39.4l-5.748.822-6.96-6.96V27.67zm13.203-3.527l1.485 1.485-2.92 2.503-.937-.938 2.372-3.05zm-4.53 4.57l1.727 1.727v3.292l-4.777-4.41 3.05-.61zm-3.564 21.434L3.118 36.31l7.281-8.19v5.68c0 .345.137.675.38.92l7.8 7.8a1.302 1.302 0 001.104.367l5.586-.798-7.162 8.057zm10.995 9.734L7.4 62.292l-.538-1.615 16.894-4.827a1.3 1.3 0 00.845-.755l8.638-20.978 9.036 3.012-13.172 22.752zm18.06 15.52h-1.491l2.417-19.339a1.299 1.299 0 00-.444-1.148l-8.462-7.254 5.114-8.834 10.163 14.68L47.163 75.4zM43.94 34.943l-9.659-3.22 4.107-9.035a8.798 8.798 0 003.402 4.028l6.925 4.407-4.775 3.82z" fill="#2F387B"/></svg>