<svg width="78" height="78" viewBox="0 0 78 78" fill="none" xmlns="http://www.w3.org/2000/svg">
<path fill-rule="evenodd" clip-rule="evenodd" d="M76.0957 54.6H76.7C77.0448 54.6 77.3754 54.737 77.6192 54.9808C77.863 55.2246 78 55.5552 78 55.9C77.998 57.6233 77.3126 59.2755 76.094 60.494C74.8755 61.7126 73.2233 62.398 71.5 62.4H68.9C67.8904 62.3999 66.8948 62.1645 65.9921 61.7124C65.0895 61.2603 64.3047 60.6039 63.7 59.7955V59.8H61.1V70.2H68.9C69.1899 70.2 69.4715 70.2969 69.7 70.4753C69.9286 70.6537 70.0909 70.9034 70.1612 71.1847L71.4612 76.3847C71.5091 76.5763 71.5127 76.7764 71.4717 76.9697C71.4307 77.1629 71.3462 77.3443 71.2246 77.5C71.1031 77.6557 70.9476 77.7817 70.7701 77.8683C70.5925 77.9549 70.3976 78 70.2 78H3.90001C3.59555 78 3.30075 77.8931 3.067 77.6981C2.83326 77.503 2.6754 77.232 2.62095 76.9325L0.02095 62.6325C-0.0110081 62.4567 -0.00636102 62.2762 0.0346002 62.1023L4.70251 42.2638C4.91222 41.3746 5.30683 40.5394 5.86066 39.8128C6.41449 39.0861 7.11512 38.4842 7.91696 38.0463L19.9295 31.4941L23.0581 27.3226C21.9406 26.3486 21.0449 25.1464 20.4311 23.797C19.8174 22.4476 19.4999 20.9824 19.5 19.5V6.5C19.502 4.77669 20.1874 3.12453 21.406 1.90597C22.6245 0.687406 24.2767 0.00195778 26 0H33.15C35.0456 0.00214103 36.863 0.75613 38.2035 2.09655C39.5439 3.43697 40.2979 5.25436 40.3 7.15V19.5C40.3001 20.9824 39.9827 22.4476 39.3689 23.797C38.7551 25.1464 37.8594 26.3486 36.7419 27.3226L39.8705 31.4941L53.9226 39.1587C54.061 39.2342 54.1845 39.3343 54.2871 39.454L54.7703 40.0178C55.8483 39.5665 56.9816 39.2611 58.1404 39.1097L60.9871 31.2812L58.6373 26.5814C58.5793 26.4655 58.539 26.3416 58.5177 26.2138L57.4354 19.7199C57.3522 19.2253 57.3908 18.7177 57.5479 18.2413C57.7049 17.7649 57.9758 17.334 58.3369 16.9858C58.698 16.6376 59.1386 16.3827 59.6204 16.2432C60.1023 16.1036 60.6109 16.0836 61.1022 16.1849C61.1158 15.4454 61.3087 14.7203 61.6644 14.0719C62.02 13.4234 62.5278 12.871 63.144 12.4621C63.7603 12.0531 64.4665 11.7998 65.2022 11.7241C65.9379 11.6483 66.681 11.7522 67.3677 12.0269L70.8313 13.4124C71.7982 13.7955 72.6272 14.4611 73.2103 15.3223C73.7933 16.1835 74.1034 17.2004 74.1 18.2405V24.7C74.1 24.8654 74.0684 25.0292 74.007 25.1827L71.518 31.4053L72.339 42.9H75.4C75.7448 42.9 76.0754 43.037 76.3192 43.2808C76.563 43.5246 76.7 43.8552 76.7 44.2V48.1C76.7 48.4448 76.563 48.7754 76.3192 49.0192C76.0754 49.263 75.7448 49.4 75.4 49.4H72.6291L76.0957 54.6ZM70.2 50.4436L67.4291 54.6H72.971L70.2 50.4436ZM68.0333 46.8H74.1V45.5H68.9C68.6187 45.5 68.3451 45.4088 68.12 45.2401L66.0401 43.6801L66.04 43.68C64.2398 42.3298 62.0502 41.6 59.8 41.6C57.5498 41.6 55.3602 42.3298 53.56 43.68L51.48 45.2401C51.2549 45.4088 50.9813 45.5 50.7 45.5H45.5V46.8H51.5667L54.34 44.7199C55.9152 43.5386 57.831 42.9 59.8 42.9C61.7689 42.9 63.6847 43.5386 65.2599 44.7199L68.0333 46.8ZM55.2957 54.6H55.9C56.2448 54.6 56.5754 54.737 56.8192 54.9808C57.063 55.2246 57.2 55.5552 57.2 55.9C57.2001 56.3366 57.1563 56.7722 57.0692 57.2H58.5V45.633C57.5581 45.826 56.6703 46.2245 55.9 46.8L52.78 49.1401C52.5549 49.3088 52.2813 49.4 52 49.4H51.8291L55.2957 54.6ZM45.8491 59.0832C46.5074 59.5487 47.2937 59.7991 48.1 59.8H50.7C51.5063 59.7991 52.2926 59.5487 52.951 59.0832C53.6093 58.6177 54.1075 57.9599 54.3772 57.2H44.4228C44.6925 57.9599 45.1907 58.6177 45.8491 59.0832ZM49.4 50.4436L46.6291 54.6H52.171L49.4 50.4436ZM67.6001 41.6002L69.3333 42.9H69.7324L68.9896 32.5H63.3106L60.9283 39.0514C63.3454 39.2662 65.6553 40.1487 67.6001 41.6002ZM60.6126 18.7353C60.4965 18.7045 60.3733 18.717 60.2658 18.7705C60.1712 18.8173 60.0943 18.8934 60.0464 18.9874C59.9986 19.0815 59.9823 19.1884 60 19.2924L61.0502 25.5934L63.2035 29.9H69.3199L71.5 24.4496V18.2405C71.5017 17.7204 71.3467 17.212 71.0551 16.7814C70.7636 16.3508 70.3491 16.018 69.8656 15.8264L66.402 14.4409C66.103 14.3213 65.7793 14.2768 65.4592 14.3113C65.1391 14.3458 64.8323 14.4582 64.5657 14.6387C64.2991 14.8192 64.0808 15.0623 63.9299 15.3467C63.7789 15.6311 63.7 15.9482 63.7 16.2701V18.4563L64.6022 19.8098C65.5163 20.3342 66.2752 21.0914 66.8017 22.0042C67.3283 22.9171 67.6037 23.9531 67.6 25.0069V26H65V25.0069C65.0021 24.3744 64.827 23.7539 64.4945 23.2159C64.1619 22.6778 63.6853 22.2437 63.1186 21.9627C62.9163 21.8615 62.7438 21.7093 62.6184 21.5211L60.8962 18.9379C60.8295 18.8382 60.7286 18.7661 60.6126 18.7353ZM19.5 34.6899L16.6205 36.2605L14.5464 43.5197L19.5 45.9965V34.6899ZM31.344 44.2H28.456L26.0648 64.5262L29.9 68.3616L33.7353 64.5262L31.344 44.2ZM27.4874 39.3511L28.237 41.6H31.563L32.3126 39.3511L29.9 36.9385L27.4874 39.3511ZM31.7384 35.1L34.7439 38.1055L37.478 32.6372L36.0737 30.7648L31.7384 35.1ZM29.9 33.2615L34.1924 28.9691C32.8446 29.5826 31.3809 29.9 29.9 29.9C28.4191 29.9 26.9554 29.5826 25.6076 28.9691L29.9 33.2615ZM25.0561 38.1055L28.0616 35.1L23.7263 30.7648L22.3221 32.6372L25.0561 38.1055ZM14.7864 52.5602L19.5 61.2018V50.2034L14.7864 52.5602ZM23.5373 40.8815L22.1 38.0069V75.4H37.7V38.0069L36.2627 40.8815C36.1802 41.0465 36.0635 41.1921 35.9203 41.3085C35.7772 41.4249 35.6109 41.5096 35.4325 41.5567C35.2541 41.6039 35.0677 41.6126 34.8857 41.5821C34.7037 41.5517 34.5303 41.4828 34.3769 41.3802L33.825 43.036L36.3911 64.8481C36.4141 65.0432 36.3925 65.2409 36.3281 65.4264C36.2637 65.6119 36.1581 65.7804 36.0192 65.9193L30.8192 71.1193C30.5754 71.3631 30.2448 71.5 29.9 71.5C29.5552 71.5 29.2246 71.3631 28.9808 71.1193L23.7808 65.9193C23.6419 65.7804 23.5363 65.6119 23.4719 65.4264C23.4075 65.2409 23.3859 65.0432 23.4089 64.8481L25.975 43.036L25.4231 41.3802C25.2697 41.4829 25.0963 41.5517 24.9143 41.5822C24.7323 41.6126 24.5459 41.604 24.3675 41.5568C24.1891 41.5096 24.0228 41.425 23.8797 41.3086C23.7365 41.1921 23.6198 41.0465 23.5373 40.8815ZM37.7 7.50325V7.15C37.6986 6.12441 37.3512 5.12928 36.7141 4.32558C36.077 3.52188 35.1874 2.9566 34.1892 2.72116C34.7761 3.6427 35.0913 4.71099 35.0988 5.8035L37.3395 7.29727C37.4548 7.37411 37.5752 7.44293 37.7 7.50325ZM29.25 2.6H26C24.966 2.60117 23.9747 3.01244 23.2436 3.74357C22.5124 4.47471 22.1012 5.46601 22.1 6.5H22.8616C23.6154 6.49795 24.3622 6.64544 25.0587 6.93393C25.7552 7.22242 26.3876 7.64619 26.9192 8.1807C27.21 8.47306 27.5558 8.70485 27.9368 8.86264C28.3177 9.02044 28.7261 9.10112 29.1384 9.1H29.25C30.112 9.1 30.9386 8.75759 31.5481 8.1481C32.1576 7.5386 32.5 6.71195 32.5 5.85C32.5 4.98805 32.1576 4.1614 31.5481 3.5519C30.9386 2.94241 30.112 2.6 29.25 2.6ZM22.1 9.1V19.5C22.1 21.5687 22.9218 23.5526 24.3846 25.0154C25.8474 26.4782 27.8313 27.3 29.9 27.3C31.9687 27.3 33.9527 26.4782 35.4154 25.0154C36.8782 23.5526 37.7 21.5687 37.7 19.5V10.2452C37.0574 10.0925 36.447 9.82677 35.8973 9.46055L34.4612 8.50312C33.9714 9.46437 33.2256 10.2716 32.306 10.8357C31.3864 11.3999 30.3288 11.699 29.25 11.7H29.1384C28.3846 11.702 27.6378 11.5546 26.9413 11.2661C26.2448 10.9776 25.6124 10.5538 25.0808 10.0193C24.79 9.72694 24.4442 9.49515 24.0633 9.33736C23.6823 9.17956 23.2739 9.09888 22.8616 9.1H22.1ZM10.4 75.4V61.1H13V75.4H19.5V66.6315L11.8588 52.6225C11.7752 52.4692 11.7233 52.3007 11.7062 52.1269C11.6892 51.9531 11.7073 51.7776 11.7596 51.611C11.8119 51.4444 11.8971 51.29 12.0104 51.1571C12.1236 51.0241 12.2624 50.9154 12.4186 50.8373L17.8931 48.1L12.4186 45.3627C12.1474 45.2271 11.9321 45.001 11.81 44.7234C11.6879 44.4459 11.6667 44.1343 11.75 43.8428L13.4171 38.0078L9.16206 40.3287C8.68095 40.5915 8.26058 40.9526 7.92828 41.3886C7.59599 41.8246 7.35922 42.3257 7.2334 42.8592L2.62754 62.434L4.98498 75.4H10.4ZM52.418 41.2997L40.3 34.6899V75.4H48.2847L50.2848 62.4H48.1C46.3767 62.398 44.7245 61.7126 43.506 60.494C42.2874 59.2755 41.602 57.6233 41.6 55.9C41.6 55.5552 41.737 55.2246 41.9808 54.9808C42.2246 54.737 42.5552 54.6 42.9 54.6H43.5043L46.971 49.4H44.2C43.8552 49.4 43.5246 49.263 43.2808 49.0192C43.037 48.7754 42.9 48.4448 42.9 48.1V44.2C42.9 43.8552 43.037 43.5246 43.2808 43.2808C43.5246 43.037 43.8552 42.9 44.2 42.9H50.2667L52 41.6C52.1375 41.4971 52.2768 41.397 52.418 41.2997ZM51.715 72.8L51.065 75.4H68.535L67.885 72.8H51.715ZM51.7153 70.2H58.5V59.8H55.9V59.7955C55.1544 60.7887 54.1411 61.5488 52.9789 61.9866L51.7153 70.2ZM62.5308 57.2C62.4437 56.7722 62.3999 56.3366 62.4 55.9C62.4 55.5552 62.537 55.2246 62.7808 54.9808C63.0246 54.737 63.3552 54.6 63.7 54.6H64.3043L67.771 49.4H67.6C67.3187 49.4 67.0451 49.3088 66.82 49.1401L63.7 46.8C62.9297 46.2245 62.042 45.826 61.1 45.633V57.2H62.5308ZM68.9 59.8H71.5C72.3063 59.7991 73.0926 59.5487 73.7509 59.0832C74.4093 58.6177 74.9075 57.9599 75.1772 57.2H65.2228C65.4925 57.9599 65.9907 58.6177 66.6491 59.0832C67.3074 59.5487 68.0937 59.7991 68.9 59.8ZM27.3 15.6C27.3 16.318 26.718 16.9 26 16.9C25.282 16.9 24.7 16.318 24.7 15.6C24.7 14.882 25.282 14.3 26 14.3C26.718 14.3 27.3 14.882 27.3 15.6ZM28.6 23.4H27.3V20.8H28.6C28.9447 20.7996 29.2751 20.6625 29.5188 20.4188C29.7625 20.1751 29.8996 19.8447 29.9 19.5V18.2H32.5V19.5C32.4988 20.534 32.0875 21.5253 31.3564 22.2564C30.6253 22.9875 29.634 23.3988 28.6 23.4ZM33.8 16.9C34.518 16.9 35.1 16.318 35.1 15.6C35.1 14.882 34.518 14.3 33.8 14.3C33.082 14.3 32.5 14.882 32.5 15.6C32.5 16.318 33.082 16.9 33.8 16.9Z" fill="#2F387B"/>
</svg>
