<svg width="71" height="78" fill="none" xmlns="http://www.w3.org/2000/svg"><path fill-rule="evenodd" clip-rule="evenodd" d="M52 35.1V1.3A1.3 1.3 0 0050.7 0H1.3A1.3 1.3 0 000 1.3v68.9a1.3 1.3 0 001.3 1.3h39v-2.6H2.6V2.6h46.8v32.5H52zM31.2 7.8h5.2v2.6h-5.2V7.8zm-2.6 0h-13v2.6h13V7.8zM10.4 19.5h11.7v2.6H10.4v-2.6zm36.4 0H24.7v2.6h22.1v-2.6zm-5.2 5.2h5.2v2.6h-5.2v-2.6zM39 27.3v-2.6H18.2v2.6H39zM5.2 24.7h10.4v2.6H5.2v-2.6zM39 29.9H28.6v2.6H39v-2.6zm-13 0v2.6H5.2v-2.6H26zm-3.9 10.4H10.4v2.6h11.7v-2.6zm2.6 0H39v2.6H24.7v-2.6zm9.1 5.2H18.2v2.6h15.6v-2.6zm-18.2 0v2.6H5.2v-2.6h10.4zm14.3 5.2h-6.5v2.6h6.5v-2.6zM5.2 53.3v-2.6h15.6v2.6H5.2zm22.1-18.2H13v2.6h14.3v-2.6zm-19.5 0h2.6v2.6H7.8v-2.6zm19.5-20.8H13v2.6h14.3v-2.6zm-19.5 0h2.6v2.6H7.8v-2.6zm29.9 42.9h-7.8v2.6h7.8v-2.6zm-10.4 5.2h13V65h-13v-2.6zm41.561-23.236l1.3 5.2a1.3 1.3 0 01-.87 1.555L62.4 48.095V53.3c0 .202-.047.4-.137.581l-2.96 5.919h.497a1.3 1.3 0 011.3 1.3V65a1.3 1.3 0 011.3 1.3V78h-2.6V67.6H45.5V78h-2.6V66.3a1.3 1.3 0 011.3-1.3h1.3v-3.9a1.3 1.3 0 011.3-1.3h.761l-1.68-1.68a4.97 4.97 0 01-1.378-4.373l-2.511.793a1.3 1.3 0 01-.392.06h-7.8a1.3 1.3 0 01-.92-2.22l5.2-5.2c.152-.151.34-.263.545-.325l4.445-1.34a3.932 3.932 0 011.78-6.035l5.458-2.046a8.943 8.943 0 0110.165 2.836l6.752-2.036a1.3 1.3 0 011.636.93zm-17.64.704l-5.457 2.046a1.341 1.341 0 00-.65 1.992 3.653 3.653 0 012.785.154l9.806-2.956a6.34 6.34 0 00-6.484-1.236zM36.938 52H41.4l3.052-.964-1.082-1.442a3.68 3.68 0 01-.611-1.27l-3.07.926-2.75 2.75zM48.1 62.4V65h10.4v-2.6H48.1zm8.297-2.6l3.403-6.807v-4.077l-5.979 1.888 1.36 1.678-2.021 1.636-2.56-3.16-3.445-4.254a1.081 1.081 0 00-1.705 1.33l2.39 3.186a1.3 1.3 0 01-.12 1.7 2.38 2.38 0 000 3.36l3.519 3.52h5.158zm-6.36-13.67l2.026 2.503 15.28-4.826-.673-2.69-16.633 5.014z" fill="#2F387B"/></svg>