<svg width="60" height="78" viewBox="0 0 60 78" fill="none" xmlns="http://www.w3.org/2000/svg">
<path fill-rule="evenodd" clip-rule="evenodd" d="M2.91185e-05 55.9V47.2737C-0.00367199 45.7134 0.345495 44.1724 1.02141 42.7661C1.69733 41.3598 2.68249 40.1245 3.90321 39.1527L12.171 32.5384C11.0095 30.5553 10.3982 28.2982 10.4 26V6.50001C10.4016 5.12136 10.9499 3.79961 11.9248 2.82476C12.8996 1.84991 14.2214 1.30155 15.6 1.30001C16.4447 1.29914 17.2665 1.57394 17.9408 2.08267C18.4245 1.43618 19.0523 0.91135 19.7743 0.54983C20.4963 0.18831 21.2926 5.45041e-05 22.1 6.05992e-06H26C28.7336 0.00149277 31.3569 1.07798 33.3036 2.99705C35.3475 1.58454 37.6776 0.640042 40.1281 0.230821C42.5786 -0.178399 45.0891 -0.0422772 47.481 0.629495C49.8729 1.30127 52.0873 2.49216 53.9664 4.11737C55.8455 5.74259 57.3431 7.76213 58.3527 10.0322C59.3622 12.3023 59.8588 14.767 59.8071 17.2509C59.7554 19.7348 59.1567 22.1767 58.0536 24.4028C56.9504 26.6289 55.37 28.5844 53.4249 30.13C51.4798 31.6756 49.2178 32.7733 46.8 33.345V38.6932L49.2628 43.6186C49.353 43.7991 49.4 43.9982 49.4 44.2V50.704C50.1885 50.7346 50.9509 50.9944 51.594 51.4516C52.2371 51.9089 52.7329 52.5437 53.0206 53.2784C53.3084 54.0131 53.3756 54.8158 53.2142 55.5882C53.0527 56.3606 52.6695 57.0691 52.1115 57.627L50.6139 59.1247L49.4 66.4076V71.5C49.3981 73.2233 48.7126 74.8755 47.4941 76.0941C46.2755 77.3126 44.6233 77.9981 42.9 78H5.20003C5.02931 78 4.86026 77.9664 4.70254 77.9011C4.54481 77.8357 4.4015 77.74 4.28078 77.6193C4.16006 77.4985 4.06431 77.3552 3.99898 77.1975C3.93365 77.0398 3.90002 76.8707 3.90003 76.7V64.6113C2.67287 63.516 1.69105 62.1738 1.01894 60.6725C0.346826 59.1712 -0.000397503 57.5449 2.91185e-05 55.9ZM11.7 67.6C9.89524 67.6014 8.11491 67.1826 6.50003 66.3768V75.4H37.7036C36.8563 74.2765 36.3986 72.9072 36.4 71.5V67.6H11.7ZM20.9143 12.274C19.938 11.7965 19.0835 11.1023 18.4161 10.2445C17.8413 11.093 17.0674 11.7877 16.162 12.2681C15.2567 12.7484 14.2475 12.9997 13.2227 13H13V26C13.0002 28.3626 13.8047 30.6547 15.2812 32.499C16.7576 34.3434 18.818 35.6302 21.1232 36.1476C23.4284 36.6649 25.841 36.3821 27.9641 35.3455C30.0871 34.3089 31.7939 32.5805 32.8037 30.4446C30.1579 28.4742 28.1469 25.7724 27.0187 22.6724C25.8905 19.5725 25.6946 16.21 26.4551 13H24.05C22.9632 12.9998 21.8907 12.7515 20.9143 12.274ZM39 45.5V50.7H46.8V45.5H39ZM34.6739 32.4735L39 35.6198V33.345C37.613 33.0158 36.2736 32.5112 35.0141 31.8434C34.906 32.0571 34.7926 32.2672 34.6739 32.4735ZM26.2911 38.672C25.3428 38.8896 24.373 38.9996 23.4 39C22.4271 38.9993 21.4573 38.8893 20.5089 38.6719L21.6802 41.6H25.1199L26.2911 38.672ZM24.8365 44.2H21.9636L20.9871 52.9883L25.8809 53.6L24.8365 44.2ZM27.328 43.0803L28.5338 53.9316L33.3304 54.5312L36.4 51.4616V44.2C36.4 43.9982 36.447 43.7991 36.5373 43.6186L38.9481 38.797L33.1587 34.5865C32.1447 35.7355 30.9364 36.6972 29.5892 37.4275L27.328 43.0803ZM40.1436 74.2564C40.8748 74.9876 41.866 75.3988 42.9 75.4C43.934 75.3988 44.9253 74.9876 45.6564 74.2564C46.3876 73.5253 46.7988 72.534 46.8 71.5V67.6H39V71.5C39.0012 72.534 39.4125 73.5253 40.1436 74.2564ZM45.9966 42.9L44.6966 40.3H41.1035L39.8035 42.9H45.9966ZM50.5898 55.3159C50.6631 55.139 50.7006 54.9493 50.7 54.7577C50.6996 54.3713 50.5459 54.0007 50.2726 53.7275C49.9993 53.4542 49.6288 53.3005 49.2423 53.3H38.2386L35.1 56.4384V65H46.9988L48.1177 58.2863C48.1622 58.019 48.2892 57.7723 48.4808 57.5808L50.2731 55.7885C50.4089 55.6535 50.5165 55.4928 50.5898 55.3159ZM41.6 33.7505V37.7H44.2V33.7505C43.7707 33.7835 43.3374 33.8 42.9 33.8C42.4625 33.7998 42.0291 33.7833 41.6 33.7505ZM54.79 24.8447C56.3613 22.493 57.2 19.7283 57.2 16.9C57.1957 13.1087 55.6878 9.47395 53.0069 6.79311C50.3261 4.11227 46.6913 2.60429 42.9 2.60001C40.0718 2.60001 37.307 3.43869 34.9554 5.00999C32.6038 6.5813 30.7709 8.81465 29.6886 11.4276C28.6062 14.0406 28.323 16.9159 28.8748 19.6898C29.4266 22.4637 30.7885 25.0117 32.7884 27.0116C34.7883 29.0115 37.3363 30.3735 40.1102 30.9252C42.8842 31.477 45.7594 31.1938 48.3724 30.1115C50.9854 29.0292 53.2187 27.1963 54.79 24.8447ZM26 2.60001H22.1C21.4107 2.60079 20.7498 2.87498 20.2624 3.3624C19.775 3.84982 19.5008 4.51069 19.5 5.20001V5.85001C19.5014 7.05633 19.9812 8.21285 20.8342 9.06585C21.6872 9.91885 22.8437 10.3987 24.05 10.4H27.3008C28.2101 8.22976 29.5608 6.27236 31.2672 4.65216C29.8295 3.33412 27.9505 2.60202 26 2.60001ZM16.5188 4.2812C16.2751 4.03749 15.9447 3.9004 15.6 3.90001C14.9107 3.90079 14.2498 4.17498 13.7624 4.6624C13.275 5.14982 13.0008 5.81069 13 6.50001V10.4H13.2227C14.1976 10.3989 15.1323 10.0111 15.8217 9.32171C16.5111 8.63231 16.8989 7.69761 16.9 6.72265V5.20001C16.8996 4.85535 16.7625 4.52491 16.5188 4.2812ZM13.7011 34.644L5.52741 41.183C4.61186 41.9118 3.87298 42.8383 3.36604 43.893C2.85911 44.9477 2.59724 46.1035 2.60003 47.2737V55.9C2.60276 58.3126 3.56239 60.6257 5.26838 62.3317C6.97436 64.0377 9.2874 64.9973 11.7 65H32.5V57.0477L12.8388 54.5899C12.5244 54.5507 12.2351 54.3979 12.0254 54.1604C11.8157 53.9228 11.7 53.6169 11.7 53.3V45.5H14.3V52.1524L18.4069 52.6657L19.472 43.0803L17.2121 37.4305C15.8902 36.7105 14.7025 35.7679 13.7011 34.644ZM16.9 16.9H22.1V19.5H16.9V16.9ZM20.8 31.2V28.6H22.1C22.4447 28.5996 22.7751 28.4625 23.0188 28.2188C23.2626 27.9751 23.3996 27.6447 23.4 27.3V24.7H26V27.3C25.9989 28.334 25.5876 29.3253 24.8565 30.0564C24.1253 30.7876 23.134 31.1988 22.1 31.2H20.8ZM19.5 23.4C20.218 23.4 20.8 22.818 20.8 22.1C20.8 21.382 20.218 20.8 19.5 20.8C18.7821 20.8 18.2 21.382 18.2 22.1C18.2 22.818 18.7821 23.4 19.5 23.4ZM52 13V9.1C52 8.92928 51.9664 8.76023 51.9011 8.60251C51.8358 8.44478 51.74 8.30147 51.6193 8.18075C51.4986 8.06003 51.3553 7.96428 51.1975 7.89895C51.0398 7.83362 50.8708 7.8 50.7 7.8H46.8V10.4H49.4V13H52ZM52 20.8V24.7C52 24.8707 51.9664 25.0398 51.9011 25.1975C51.8358 25.3552 51.74 25.4985 51.6193 25.6192C51.4986 25.74 51.3553 25.8357 51.1975 25.9011C51.0398 25.9664 50.8708 26 50.7 26H46.8V23.4H49.4V20.8H52ZM35.1 26H39V23.4H36.4V20.8H33.8V24.7C33.8 24.8707 33.8337 25.0398 33.899 25.1975C33.9643 25.3552 34.0601 25.4985 34.1808 25.6192C34.3015 25.74 34.4448 25.8357 34.6026 25.9011C34.7603 25.9664 34.9293 26 35.1 26ZM39 10.4H36.4V13H33.8V9.1C33.8 8.92928 33.8337 8.76023 33.899 8.60251C33.9643 8.44478 34.0601 8.30147 34.1808 8.18075C34.3015 8.06003 34.4448 7.96428 34.6026 7.89895C34.7603 7.83362 34.9293 7.8 35.1 7.8H39V10.4Z" fill="#2F387B"/>
</svg>
