<svg width="29" height="30" viewBox="0 0 29 30" fill="none" xmlns="http://www.w3.org/2000/svg">
<path fill-rule="evenodd" clip-rule="evenodd" d="M0 11.1837H2.25932V10.3098C1.57295 9.26197 1.17316 8.01029 1.17316 6.66686C1.1731 2.99068 4.16385 0 7.83996 0C11.3688 0 14.2656 2.75613 14.492 6.22875H16.4123C18.6994 6.22875 20.8553 5.37738 22.519 3.82541V1.90992H24.2751V7.11574C25.2448 7.36219 26.1272 7.88555 26.8144 8.63519C27.6916 9.59221 28.1748 10.8347 28.1748 12.1338C28.1748 13.4329 27.6916 14.6753 26.8144 15.6323C26.1272 16.3819 25.2448 16.9054 24.2751 17.1518V22.3305H22.5191V20.4168C20.859 18.8808 18.7141 18.0387 16.4394 18.0387H12.8424V21.5016H11.2968L13.6381 30H7.70912L5.36777 21.5016H3.92367V17.3379L2.25932 15.6735V12.9396H0V11.1837ZM5.35172 16.2826H12.7508V11.1707C11.5312 12.4993 9.78129 13.3336 7.83996 13.3336C6.41795 13.3336 5.09877 12.8858 4.01531 12.1242V14.9462L5.35172 16.2826ZM7.83996 1.756C5.13211 1.756 2.92916 3.95895 2.92916 6.6668C2.92916 9.37465 5.13211 11.5776 7.83996 11.5776C10.5478 11.5776 12.7508 9.37465 12.7508 6.6668C12.7508 3.95895 10.5478 1.756 7.83996 1.756ZM25.52 14.4457C26.0996 13.8134 26.4189 12.9923 26.4189 12.1337C26.4189 11.2751 26.0996 10.4541 25.52 9.82172C25.1704 9.44033 24.7445 9.14772 24.2751 8.95857V15.3088C24.7444 15.1197 25.1704 14.8271 25.52 14.4457ZM22.5191 6.07775C21.3267 6.90791 19.9854 7.48143 18.564 7.76959V16.4921C19.9848 16.7763 21.3259 17.3457 22.5191 18.171V6.07775ZM16.8079 16.2896V7.97684C16.6764 7.98158 14.5068 7.98475 14.5068 7.98475V16.2826C14.5068 16.2826 16.6854 16.2855 16.8079 16.2896ZM11.0864 19.7455V18.0386H5.67967V19.7455H11.0864ZM9.0467 28.244H11.3329L9.47537 21.5016H7.18922L9.0467 28.244ZM7.33096 7.51392L7.06248 3.55609H8.67334L8.40486 7.51392H7.33096ZM7.06249 9.18154C7.06249 9.63352 7.42889 9.99992 7.88087 9.99992C8.33285 9.99992 8.69925 9.63352 8.69925 9.18154C8.69925 8.72956 8.33285 8.36316 7.88087 8.36316C7.42889 8.36316 7.06249 8.72956 7.06249 9.18154Z" fill="#2F387B"/>
</svg>
