<svg width="29" height="30" fill="none" xmlns="http://www.w3.org/2000/svg"><path fill-rule="evenodd" clip-rule="evenodd" d="M0 11.184h2.26v-.874a6.627 6.627 0 01-1.087-3.643A6.674 6.674 0 017.84 0a6.675 6.675 0 016.652 6.229h1.92a8.897 8.897 0 006.107-2.404V1.91h1.756v5.206c.97.246 1.852.77 2.54 1.52a5.163 5.163 0 011.36 3.498 5.164 5.164 0 01-1.36 3.498 5.168 5.168 0 01-2.54 1.52v5.178H22.52v-1.913a8.897 8.897 0 00-6.08-2.378h-3.597v3.463h-1.545L13.638 30H7.71l-2.341-8.498H3.924v-4.164l-1.665-1.665V12.94H0v-1.756zm5.352 5.099h7.399V11.17a6.65 6.65 0 01-8.736.953v2.822l1.337 1.337zM7.84 1.756a4.916 4.916 0 00-4.91 4.91 4.916 4.916 0 004.91 4.912 4.916 4.916 0 004.91-4.911 4.916 4.916 0 00-4.91-4.911zm17.68 12.69c.58-.633.899-1.454.899-2.312a3.423 3.423 0 00-2.144-3.175v6.35c.47-.19.895-.482 1.245-.863zm-3-8.368a10.594 10.594 0 01-3.956 1.692v8.722c1.42.284 2.762.854 3.955 1.679V6.078zM16.807 16.29V7.977c-.132.005-2.301.008-2.301.008v8.298s2.178.002 2.3.007zm-5.722 3.456v-1.707H5.68v1.706h5.406zm-2.04 8.498h2.287l-1.858-6.742H7.19l1.858 6.742zM7.332 7.514l-.269-3.958h1.611l-.268 3.958H7.33zm-.269 1.668a.818.818 0 101.637 0 .818.818 0 00-1.637 0z" fill="#2F387B"/></svg>