<svg width="76" height="80" viewBox="0 0 76 80" fill="none" xmlns="http://www.w3.org/2000/svg">
<path fill-rule="evenodd" clip-rule="evenodd" d="M0 29.8231H6.02484V27.4928C4.19453 24.6986 3.12843 21.3608 3.12843 17.7783C3.12828 7.97516 11.1036 0 20.9066 0C30.3169 0 38.0417 7.34969 38.6453 16.61H43.7661C49.8652 16.61 55.6141 14.3397 60.0508 10.2011V5.09313H64.7336V18.9753C67.3195 19.6325 69.6725 21.0281 71.505 23.0272C73.8444 25.5792 75.1328 28.8925 75.1328 32.3567C75.1328 35.8209 73.8444 39.1342 71.505 41.6862C69.6725 43.6852 67.3195 45.0809 64.7336 45.7381V59.548H60.0509V54.4448C55.6241 50.3489 49.9044 48.1031 43.8384 48.1031H34.2464V57.3375H30.1247L36.3683 80H20.5577L14.3141 57.3375H10.4631V46.2344L6.02484 41.7961V34.5056H0V29.8231ZM14.2713 43.4203H34.002V29.7886C30.75 33.3316 26.0834 35.5563 20.9066 35.5563C17.1145 35.5563 13.5967 34.3622 10.7075 32.3312V39.8564L14.2713 43.4203ZM20.9066 4.68266C13.6856 4.68266 7.81109 10.5572 7.81109 17.7781C7.81109 24.9991 13.6856 30.8736 20.9066 30.8736C28.1275 30.8736 34.002 24.9991 34.002 17.7781C34.002 10.5572 28.1275 4.68266 20.9066 4.68266ZM68.0533 38.5219C69.5991 36.8356 70.4503 34.6461 70.4503 32.3566C70.4503 30.067 69.5991 27.8775 68.0533 26.1912C67.1209 25.1742 65.9853 24.3939 64.7336 23.8895V40.8234C65.9852 40.3192 67.1209 39.5389 68.0533 38.5219ZM60.0509 16.2073C56.8713 18.4211 53.2945 19.9505 49.5039 20.7189V43.9789C53.2928 44.7367 56.8691 46.2553 60.0509 48.4561V16.2073ZM44.8211 43.4389V21.2716C44.4703 21.2842 38.6847 21.2927 38.6847 21.2927V43.4203C38.6847 43.4203 44.4944 43.428 44.8211 43.4389ZM29.5637 52.6547V48.103H15.1458V52.6547H29.5637ZM24.1245 75.3173H30.2211L25.2677 57.3375H19.1712L24.1245 75.3173ZM19.5492 20.0372L18.8333 9.48298H23.1289L22.413 20.0372H19.5492ZM18.8332 24.4842C18.8332 25.6895 19.8103 26.6666 21.0156 26.6666C22.2209 26.6666 23.1979 25.6895 23.1979 24.4842C23.1979 23.2789 22.2209 22.3019 21.0156 22.3019C19.8103 22.3019 18.8332 23.2789 18.8332 24.4842Z" fill="#2F387B"/>
</svg>
