<svg width="20" height="20" viewBox="0 0 20 20" fill="none" xmlns="http://www.w3.org/2000/svg">
<path d="M10 20C15.5228 20 20 15.5228 20 10C20 4.47715 15.5228 0 10 0C4.47715 0 0 4.47715 0 10C0 15.5228 4.47715 20 10 20Z" fill="#039BE5"/>
<path d="M4.57424 9.78516L14.2188 6.06641C14.668 5.90625 15.0586 6.17578 14.9102 6.85156L13.2695 14.5859C13.1485 15.1328 12.8203 15.2695 12.3672 15.0078L9.8672 13.1641L8.66017 14.3242C8.52736 14.457 8.41408 14.5703 8.15627 14.5703L8.33205 12.0273L12.9688 7.84375C13.1719 7.66797 12.9219 7.56641 12.6563 7.74219L6.9297 11.3477L4.46095 10.5781C3.9258 10.4063 3.91408 10.043 4.57424 9.78516Z" fill="white"/>
</svg>
