<svg width="20" height="20" viewBox="0 0 20 20" fill="none" xmlns="http://www.w3.org/2000/svg">
<path d="M10 20C15.5228 20 20 15.5228 20 10C20 4.47715 15.5228 0 10 0C4.47715 0 0 4.47715 0 10C0 15.5228 4.47715 20 10 20Z" fill="#7D3DAF"/>
<path d="M16.3229 6.44557L16.3186 6.42802C15.9982 5.13798 14.559 3.75141 13.2383 3.46181L13.2251 3.45742C11.0838 3.04935 8.91618 3.04935 6.77928 3.45742L6.76173 3.46181C5.44097 3.75141 4.00175 5.13798 3.68143 6.42802L3.67704 6.44557C3.28213 8.249 3.28213 10.0787 3.67704 11.8822L3.68143 11.8997C3.98858 13.1371 5.3225 14.4579 6.59499 14.8221V16.2657C6.59499 16.7878 7.23123 17.0423 7.59104 16.665L9.05221 15.1468C9.36813 15.1643 9.68406 15.1731 10.0044 15.1731C11.0794 15.1731 12.1588 15.0722 13.2295 14.8659L13.2426 14.8615C14.5634 14.5719 16.007 13.1898 16.3229 11.8953L16.3273 11.8778C16.7178 10.0787 16.7178 8.249 16.3229 6.44557ZM15.1689 11.6189C14.9539 12.4614 13.8613 13.5101 12.9925 13.7031C11.8561 13.9182 10.7108 14.0103 9.56559 13.9796C9.54365 13.9796 9.52171 13.9884 9.50416 14.0059C9.34181 14.1727 8.4379 15.0985 8.4379 15.0985L7.30144 16.2613C7.21807 16.349 7.07327 16.2876 7.07327 16.1691V13.7821C7.07327 13.7426 7.04694 13.7075 7.00745 13.7031C6.13865 13.5101 5.04606 12.4614 4.83106 11.6189C4.47564 9.9866 4.47564 8.33676 4.83106 6.70446C5.04606 5.86199 6.13865 4.81328 7.00745 4.62021C8.99516 4.24285 11.0092 4.24285 12.9925 4.62021C13.8613 4.81328 14.9539 5.86199 15.1689 6.70446C15.5243 8.33676 15.5243 9.99099 15.1689 11.6189Z" fill="white"/>
<path d="M11.8868 12.7202C11.7552 12.6807 11.6279 12.6544 11.5094 12.6017C10.2852 12.0927 9.15753 11.4389 8.2624 10.4341C7.75341 9.86367 7.3585 9.21865 7.02063 8.53414C6.86267 8.20944 6.72664 7.87596 6.59062 7.53809C6.46776 7.23533 6.64766 6.9194 6.84511 6.68684C7.02502 6.47183 7.26196 6.30509 7.51207 6.18662C7.70953 6.09009 7.90259 6.14713 8.0474 6.31387C8.35894 6.67806 8.64415 7.05542 8.87671 7.47666C9.02151 7.73554 8.98202 8.05147 8.72313 8.22699C8.6617 8.27087 8.60466 8.31913 8.54323 8.3674C8.49057 8.41128 8.44231 8.45077 8.4072 8.50781C8.34138 8.61312 8.34138 8.73598 8.38087 8.85007C8.70119 9.72765 9.23651 10.4078 10.1185 10.7764C10.2589 10.8334 10.3993 10.9036 10.566 10.8861C10.8381 10.8553 10.9259 10.557 11.1189 10.399C11.3032 10.2454 11.5445 10.2454 11.7464 10.3727C11.9482 10.4999 12.1413 10.6359 12.3344 10.7764C12.523 10.9124 12.7117 11.044 12.8872 11.1976C13.054 11.3468 13.1154 11.5398 13.0189 11.7417C12.8434 12.1103 12.5932 12.4174 12.2291 12.6149C12.1281 12.6675 12.0053 12.6851 11.8868 12.7202C11.7552 12.6807 12.0053 12.6851 11.8868 12.7202Z" fill="white"/>
<path d="M10 5.76965C11.6016 5.81353 12.9179 6.87979 13.1988 8.46382C13.247 8.73586 13.2646 9.00791 13.2865 9.28435C13.2953 9.39844 13.2295 9.50813 13.1066 9.51252C12.9794 9.51252 12.9223 9.40721 12.9136 9.29313C12.896 9.06496 12.8872 8.83679 12.8521 8.60862C12.6854 7.41511 11.7332 6.42783 10.5485 6.21722C10.3686 6.1865 10.1887 6.17773 10.0044 6.15579C9.8903 6.14262 9.74111 6.13823 9.71478 5.99343C9.69284 5.87496 9.79377 5.77843 9.90785 5.77404C9.93857 5.76526 9.96928 5.76965 10 5.76965C11.606 5.81353 9.96928 5.76965 10 5.76965Z" fill="white"/>
<path d="M12.4353 8.92444C12.4309 8.94638 12.4309 8.99026 12.4177 9.03414C12.3739 9.19649 12.1325 9.21404 12.0755 9.05169C12.0579 9.00342 12.0579 8.95077 12.0579 8.89811C12.0579 8.56024 11.9833 8.21799 11.8122 7.924C11.6367 7.62124 11.369 7.36674 11.0531 7.21316C10.8644 7.12102 10.6582 7.06397 10.4476 7.02887C10.3554 7.01571 10.2633 7.00254 10.1711 6.99377C10.0614 6.97621 10 6.90601 10.0044 6.79631C10.0088 6.69539 10.0834 6.6208 10.1975 6.62518C10.5661 6.64712 10.9215 6.72611 11.2462 6.89723C11.9087 7.24826 12.2905 7.80553 12.4002 8.54708C12.4046 8.58218 12.4134 8.6129 12.4177 8.648C12.4265 8.73137 12.4309 8.81474 12.4353 8.92444C12.4353 8.94638 12.4309 8.81474 12.4353 8.92444Z" fill="white"/>
<path d="M11.4392 8.88537C11.3032 8.88976 11.233 8.81517 11.2198 8.69231C11.2111 8.60455 11.2023 8.52118 11.1803 8.43781C11.1408 8.27546 11.0531 8.12188 10.9127 8.02096C10.8469 7.97269 10.7723 7.93759 10.6977 7.91565C10.6011 7.88932 10.4958 7.89371 10.3993 7.87177C10.294 7.84544 10.2326 7.75769 10.2501 7.66115C10.2633 7.56901 10.3554 7.4988 10.4519 7.50758C11.075 7.55146 11.5182 7.87177 11.5796 8.60455C11.584 8.6572 11.5884 8.70986 11.5796 8.75813C11.5621 8.8415 11.5007 8.88099 11.4392 8.88537C11.3076 8.88976 11.5007 8.88099 11.4392 8.88537Z" fill="white"/>
</svg>
