<svg width="20" height="20" viewBox="0 0 20 20" fill="none" xmlns="http://www.w3.org/2000/svg">
<path d="M10.0039 0H10C4.48438 0 0 4.48438 0 10C0 12.1875 0.703125 14.2148 1.90234 15.8594L0.65625 19.5742L4.5 18.3438C6.08203 19.3945 7.96875 20 10.0039 20C15.5156 20 20 15.5156 20 10C20 4.48438 15.5156 0 10.0039 0Z" fill="#4CAF50"/>
<path d="M15.8203 14.1211C15.5781 14.8008 14.6211 15.3672 13.8594 15.5312C13.3359 15.6406 12.6562 15.7305 10.3555 14.7773C7.41797 13.5586 5.52344 10.5742 5.375 10.3789C5.23438 10.1836 4.1875 8.79688 4.1875 7.36328C4.1875 5.92969 4.91797 5.23047 5.21094 4.92969C5.45312 4.68359 5.85156 4.57031 6.23438 4.57031C6.35938 4.57031 6.46875 4.57813 6.57031 4.58203C6.86328 4.59375 7.01172 4.61328 7.20703 5.07422C7.44922 5.65625 8.03516 7.08984 8.10547 7.23828C8.17578 7.38672 8.24609 7.58594 8.14844 7.78125C8.05469 7.98047 7.97266 8.07031 7.82422 8.23828C7.67578 8.40625 7.53516 8.53906 7.39062 8.72266C7.25391 8.88281 7.10156 9.05078 7.27344 9.34375C7.44531 9.63281 8.03125 10.5898 8.89453 11.3594C10.0117 12.3516 10.9141 12.6719 11.2383 12.8047C11.4805 12.9062 11.7656 12.8828 11.9414 12.6953C12.1641 12.4531 12.4414 12.0547 12.7227 11.6602C12.9219 11.3789 13.1758 11.3438 13.4414 11.4414C13.7109 11.5352 15.1406 12.2422 15.4336 12.3867C15.7266 12.5352 15.9219 12.6055 15.9922 12.7266C16.0625 12.8594 16.0625 13.4375 15.8203 14.1211Z" fill="#FAFAFA"/>
</svg>
