<svg width="78" height="76" fill="none" xmlns="http://www.w3.org/2000/svg"><path fill-rule="evenodd" clip-rule="evenodd" d="M72.285 0h4.41A1.305 1.305 0 0178 1.306v4.41a25.16 25.16 0 01-7.418 17.908 52.975 52.975 0 01-8.247 6.726v4.58a14.581 14.581 0 01-4.299 10.378 1.305 1.305 0 01-1.846 0l-5.222-5.221a1.306 1.306 0 01-.382-.924v-2.982c-.2.07-.4.14-.6.207l-7.615 7.615a11.528 11.528 0 00-3.364 7.298 7.835 7.835 0 0110.163 6.141h.03l.02-.001.06-.001a11.762 11.762 0 0111.75 11.749h-2.612a9.144 9.144 0 00-12.564-8.475l-.98-2.42c.552-.223 1.12-.403 1.7-.54a5.222 5.222 0 00-7.457-3.682 11.53 11.53 0 003.254 6.36l-1.847 1.847a14.229 14.229 0 010-20.122l2.994-2.994-4.675-4.674a136.423 136.423 0 00-17.338 21.72l-.233.363a13.207 13.207 0 01-11.155 6.09V60.05a10.607 10.607 0 008.959-4.892l.232-.362c.41-.634.824-1.266 1.243-1.895a7.83 7.83 0 00-13.045 5.843h-2.61c-.001-.876.108-1.748.326-2.596a3.92 3.92 0 00-3.265 1.312L0 55.732a6.532 6.532 0 016.222-2.074 10.437 10.437 0 0115.809-2.93 139.067 139.067 0 0115.883-19.016l3.698-3.698c.067-.201.137-.4.207-.6h-2.982c-.347 0-.679-.138-.924-.383l-5.221-5.222a1.306 1.306 0 010-1.846 14.582 14.582 0 0110.378-4.299h4.58a52.966 52.966 0 016.726-8.247A25.161 25.161 0 0172.285 0zm3.104 5.715V2.611h-3.104a22.837 22.837 0 00-5.977.791 8.546 8.546 0 002.465 5.107l.718.718a8.546 8.546 0 005.107 2.465 22.85 22.85 0 00.791-5.977zM35.51 20.936l3.867 3.867h3.434a53.236 53.236 0 013.219-6.527h-2.96a11.98 11.98 0 00-7.56 2.66zm7.243 9.63l-2.07 2.07 4.68 4.681 2.07-2.07-4.68-4.68zm14.31 11.924a11.974 11.974 0 002.66-7.56v-2.96a53.222 53.222 0 01-6.526 3.219v3.434l3.867 3.867zm-7.434-8.74a50.662 50.662 0 0019.107-11.972 22.673 22.673 0 005.016-7.568 11.139 11.139 0 01-6.107-3.137l-.718-.718a11.14 11.14 0 01-3.137-6.108 22.67 22.67 0 00-7.568 5.017A50.66 50.66 0 0044.25 28.371l5.38 5.379zm4.438-20.68a7.832 7.832 0 014.351-1.32 7.842 7.842 0 017.833 7.832 7.832 7.832 0 11-12.184-6.512zm1.45 10.854a5.222 5.222 0 105.802-8.683 5.222 5.222 0 00-5.802 8.683zM40.207 38.78l-1.529 1.53a16.752 16.752 0 00-3.283 4.637l-2.356-1.125a19.354 19.354 0 013.793-5.358l1.53-1.53 1.846 1.846zm-8.863 10.64l2.585.372c.118-.82.296-1.63.533-2.423l-2.502-.747a19.672 19.672 0 00-.616 2.798zM8.842 68.343A7.831 7.831 0 001.5 69.451l1.568 2.087a5.222 5.222 0 018.355 4.178h2.611a7.82 7.82 0 00-2.912-6.088 6.53 6.53 0 018.786-2.177l1.307-2.26a9.145 9.145 0 00-12.372 3.152zm18.68-3.354a9.122 9.122 0 016.093-2.327 9.143 9.143 0 018.618 12.184l-2.462-.87a6.53 6.53 0 00-10.507-7.042l-1.741-1.945z" fill="#2F387B"/></svg>