<svg width="149" height="180" fill="none" xmlns="http://www.w3.org/2000/svg"><path fill-rule="evenodd" clip-rule="evenodd" d="M50.582 101.165v-.001h5.95v-1.818A35.726 35.726 0 0138.68 68.434V17.28A17.3 17.3 0 0155.96 0h21.4a17.81 17.81 0 0113.293 5.95h4.56a14.893 14.893 0 0114.877 14.878v47.606a35.723 35.723 0 01-17.853 30.912v1.818h5.951v.001c.39 0 .778.076 1.139.225.36.15.689.369.965.645l11.561 11.56 28.693 14.347a14.793 14.793 0 018.224 13.307v37.275h-5.951v-37.275a8.877 8.877 0 00-4.934-7.984l-14.402-7.201-7.683 17.927a2.972 2.972 0 01-1.404 1.489l-8.209 4.105 6.007 6.007a2.972 2.972 0 01.479 3.58L100.772 180l-5.167-2.952 10.774-18.855-14.438-14.438-14.58 20.83v13.939H71.41v-13.939l-14.581-20.83-14.438 14.438 10.774 18.855L47.998 180l-11.901-20.828a2.976 2.976 0 01.48-3.58l6.006-6.007-8.209-4.105a2.972 2.972 0 01-1.404-1.489l-7.683-17.927-14.402 7.201a8.872 8.872 0 00-4.934 7.984v37.275H0v-37.275a14.796 14.796 0 018.223-13.307l28.693-14.347 11.56-11.56a2.97 2.97 0 012.105-.87zm13.446 15.514l-13.067-8.711-8.255 8.255 10.851 13.022 10.471-12.566zm19.212 7.494l-4.297-5.157h-9.115l-4.298 5.157 4.497 6.745h8.717l4.496-6.745zm-19.405 19.214l1.47-8.823-3.748-5.623-4.258 5.109 6.536 9.337zm16.227 6.962l-2.247-13.481h-6.86l-2.247 13.481 5.677 8.109 5.677-8.109zm7.151-21.408l-3.749 5.623 1.47 8.823 6.537-9.337-4.258-5.109zm-49.202 11.704l9.008 4.504 6.345-6.344-2.174-3.105-13.287-15.944-7.284 3.642 7.392 17.247zm63.74 4.504l9.009-4.504 7.391-17.247-7.284-3.642L97.58 135.7l-2.174 3.105 6.345 6.344zm-6.538-15.904l10.851-13.022-8.255-8.255-13.067 8.711 10.47 12.566zm6.309-114.726a8.938 8.938 0 00-6.31-2.617H94.19a17.769 17.769 0 011.024 5.95v4.266l8.926 5.356v-6.646a8.939 8.939 0 00-2.617-6.309zM77.36 5.951h-21.4a11.342 11.342 0 00-11.329 11.33v10.193l10.37-6.222a2.977 2.977 0 013.063 0l12.325 7.395a7.766 7.766 0 007.992 0l10.881-6.529v-4.266A11.915 11.915 0 0077.361 5.951zM44.632 34.414v34.02a29.754 29.754 0 0059.508 0v-34.02l-11.902-7.141-10.794 6.477a13.719 13.719 0 01-14.116 0l-10.794-6.477-11.902 7.14zm41.656 67.683a35.56 35.56 0 01-11.902 2.042 35.56 35.56 0 01-11.902-2.042v6.4l6.852 4.568h10.1l6.852-4.568v-6.4zM65.459 41.656H50.582v5.95h14.877v-5.95zm8.926 32.729a8.936 8.936 0 008.926-8.926V50.582h-5.95v14.877a2.975 2.975 0 01-5.951 0h-5.951a8.936 8.936 0 008.926 8.926zM59.508 59.508a2.975 2.975 0 100-5.95 2.975 2.975 0 000 5.95zm35.705-2.975a2.975 2.975 0 11-5.95 0 2.975 2.975 0 015.95 0zm-8.926-14.877h14.877v5.95H86.287v-5.95zm.36 42.527l1.744-1.743-4.208-4.209-1.743 1.744a11.392 11.392 0 01-16.11 0l-1.742-1.744-4.208 4.209 1.742 1.743a17.343 17.343 0 0024.526 0z" fill="#E2EBFF"/></svg>