<svg width="160" height="160" fill="none" xmlns="http://www.w3.org/2000/svg"><path fill-rule="evenodd" clip-rule="evenodd" d="M136 31.542v51.125h-5.333V31.542a2.65 2.65 0 00-.781-1.885L109.333 9.105v12.228a5.34 5.34 0 005.334 5.334h8V32h-8A10.678 10.678 0 01104 21.333v-16H29.333A2.67 2.67 0 0026.667 8v48h-5.334V8a8.01 8.01 0 018-8h75.125a7.947 7.947 0 015.656 2.343l23.543 23.543A7.947 7.947 0 01136 31.541zM66.667 61.333H8a8.01 8.01 0 00-8 8V152a8.009 8.009 0 008 8h58.667a8.007 8.007 0 008-8V69.333a8.009 8.009 0 00-8-8zM69.333 152a2.67 2.67 0 01-2.666 2.667H8A2.67 2.67 0 015.333 152V69.333A2.67 2.67 0 018 66.667h58.667a2.67 2.67 0 012.666 2.666V152zm85.334-32v24.459A8.016 8.016 0 01160 152v5.334a2.666 2.666 0 01-2.667 2.666H104a2.668 2.668 0 01-2.667-2.666V152a8.011 8.011 0 015.334-7.541V120a18.697 18.697 0 0114.58-18.21l-1.833-3.666a8.236 8.236 0 011.544-9.52 7.542 7.542 0 018.717-1.414 2.229 2.229 0 001.984 0 7.539 7.539 0 018.716 1.415 8.235 8.235 0 011.545 9.519l-1.833 3.666a18.694 18.694 0 0114.58 18.21zm-28.724-28.246c-.46.074-.884.292-1.213.621a2.909 2.909 0 00-.546 3.363l2.797 5.596h7.371l2.798-5.596a2.909 2.909 0 00-.546-3.362 2.214 2.214 0 00-2.56-.416 7.588 7.588 0 01-6.754 0 2.213 2.213 0 00-1.347-.206zm-19.276 62.913h48V152a2.667 2.667 0 00-2.667-2.666h-5.333V144h2.666v-24A13.348 13.348 0 00136 106.667h-10.667a13.345 13.345 0 00-9.423 3.91A13.345 13.345 0 00112 120v24h5.333v5.334h-8c-.707 0-1.384.282-1.884.782a2.663 2.663 0 00-.782 1.884v2.667zM128 112h5.333v5.333h5.334v5.334h-9.334a1.332 1.332 0 100 2.666H132a6.668 6.668 0 015.37 10.618 6.667 6.667 0 01-4.037 2.581V144H128v-5.333h-5.333v-5.334H132a1.333 1.333 0 100-2.666h-2.667a6.668 6.668 0 01-5.369-10.618 6.662 6.662 0 014.036-2.581V112zM21.333 90.667a2.666 2.666 0 01-1.885-.781l-5.334-5.334c-.5-.5-.78-1.178-.78-1.885v-8A2.667 2.667 0 0116 72h42.667a2.667 2.667 0 012.666 2.667v8c0 .707-.28 1.385-.78 1.885l-5.334 5.334c-.5.5-1.178.78-1.886.78h-32zM56 77.333H18.667v4.23l3.77 3.77H52.23l3.77-3.77v-4.23zM61.333 96h-48a2.667 2.667 0 00-2.666 2.667v48a2.665 2.665 0 002.666 2.666h48A2.667 2.667 0 0064 146.667v-48A2.667 2.667 0 0061.333 96zm-2.666 16H48v-10.667h10.667V112zm-32 5.333V128H16v-10.667h10.667zm5.333 0h10.667V128H32v-10.667zM42.667 112H32v-10.667h10.667V112zm-16-10.667V112H16v-10.667h10.667zm0 32V144H16v-10.667h10.667zm5.333 0h10.667V144H32v-10.667zM58.667 144H48v-26.667h10.667V144zm64-64V42.667h-5.334v8h-24V40H104v-5.333H66.667v-8h32v-5.334H37.333A2.667 2.667 0 0034.667 24v32H40V40h21.333v16H88v10.667h-8V72h8v10.667h-8V88h8v10.667h-8V104h8v10.667h-8V120h8v10.667h-8V136h21.333v-5.333h-8V120H104v-5.333H93.333V104h16v-5.333h-16V88h21.334v-5.333H93.333V72h24v8h5.334zM40 34.667v-8h21.333v8H40zm26.667 16V40H88v10.667H66.667zm26.666 16V56h24v10.667h-24zm-13.333 80h16V152H80v-5.333z" fill="#E2EBFF"/></svg>