<svg width="30" height="30" fill="none" xmlns="http://www.w3.org/2000/svg"><path fill-rule="evenodd" clip-rule="evenodd" d="M15 0c4.007 0 7.773 1.56 10.607 4.393A14.902 14.902 0 0130 15c0 4.007-1.56 7.773-4.393 10.607A14.902 14.902 0 0115 30c-4.007 0-7.773-1.56-10.607-4.393A14.902 14.902 0 010 15c0-4.007 1.56-7.773 4.393-10.607A14.902 14.902 0 0115 0zM1.758 15c0 7.302 5.94 13.242 13.242 13.242 7.302 0 13.242-5.94 13.242-13.242 0-7.302-5.94-13.242-13.242-13.242C7.698 1.758 1.758 7.698 1.758 15zm14.12-8.382V3.457h-1.757v3.161h1.758zm0 16.764v3.161h-1.757v-3.161h1.758zm-9.26-9.26H3.457v1.757h3.161V14.12zm16.764 0h3.161v1.757h-3.161V14.12zm-6.806-1.66l2.671-2.324 1.154 1.326-2.67 2.324a2.992 2.992 0 01-2.73 4.2A2.992 2.992 0 0112.01 15c0-.526.138-1.021.378-1.451L6.885 7.816l1.269-1.218 5.503 5.734a2.97 2.97 0 012.92.13zM13.77 15c0 .678.552 1.23 1.23 1.23.678 0 1.23-.552 1.23-1.23 0-.678-.552-1.23-1.23-1.23-.678 0-1.23.552-1.23 1.23z" fill="#2F387B"/></svg>