<svg width="78" height="78" fill="none" xmlns="http://www.w3.org/2000/svg"><path d="M76.7 23.4h-3.097l-5.2-10.4H72.8a1.3 1.3 0 001.3-1.3V7.8a1.3 1.3 0 00-1.2-1.296L56.48 5.24l-1.184-1.183a13.855 13.855 0 00-19.592 0L34.521 5.24 18.1 6.504A1.3 1.3 0 0016.9 7.8v3.9a1.3 1.3 0 001.3 1.3h4.397l-5.2 10.4H14.3a1.3 1.3 0 00-1.3 1.3V26a11.7 11.7 0 0023.4 0v-1.3a1.3 1.3 0 00-1.3-1.3h-3.097l-5.2-10.4h12.044l1.453 2.907V32.5c0 .202.047.4.138.58v.001a4.536 4.536 0 010 4.038c-.09.18-.138.38-.138.581v10.4a1.3 1.3 0 00-.184.013l-7.633 1.09a1.296 1.296 0 00-1.598-1.064l-3.585.896V45.5a5.206 5.206 0 00-5.2-5.2h-6.5a5.206 5.206 0 00-5.2 5.2v15.6c0 .913.24 1.81.7 2.6H7.8A7.809 7.809 0 000 71.5v5.2A1.3 1.3 0 001.3 78h59.8a1.3 1.3 0 001.3-1.3 6.507 6.507 0 00-6.5-6.5h-.13a6.52 6.52 0 00-5.07-5.07V58.5h22.1a5.2 5.2 0 000-10.4H50.7V37.7c0-.222-.057-.44-.166-.634a3.95 3.95 0 010-3.932c.11-.194.166-.412.166-.634V15.907L52.153 13h12.044l-5.2 10.4H55.9a1.3 1.3 0 00-1.3 1.3V26A11.7 11.7 0 0078 26v-1.3a1.3 1.3 0 00-1.3-1.3zM19.5 9.004l15.7-1.208a1.3 1.3 0 00.82-.377l1.522-1.523a11.253 11.253 0 0115.916 0L54.98 7.42c.22.22.51.353.82.377l15.7 1.207V10.4H52.538l-1.68-1.68a7.577 7.577 0 00-10.716 0l-1.68 1.68H19.5V9.004zM47.548 36.4H43.39c.159-.86.159-1.74 0-2.6h4.16a6.544 6.544 0 000 2.6zM42.9 31.2V16.9h5.2v14.3h-5.2zm-.496-16.9l-1.389-2.777.966-.965a4.977 4.977 0 017.038 0l.966.965-1.389 2.777h-6.192zM24.7 35.1a9.11 9.11 0 01-9.1-9.1h18.2a9.11 9.11 0 01-9.1 9.1zm-4.397-11.7l4.397-8.793 4.397 8.793h-8.794zm20.09 27.3H70.2v5.2H40.392L32.5 54.773v-2.946l7.892-1.127zM31.2 58.5a1.297 1.297 0 001.283-1.103l7.633 1.09a1.3 1.3 0 00.184.013v6.633a6.487 6.487 0 00-2.232.912A7.775 7.775 0 0032.5 63.7h-5.9c.46-.79.7-1.687.7-2.6v-3.535l3.585.896c.103.026.209.039.315.039zM13 49.4h11.7v7.8H13v-7.8zm16.9 1.665v4.47l-2.6-.65v-3.17l2.6-.65zM13 45.5a2.603 2.603 0 012.6-2.6h6.5a2.603 2.603 0 012.6 2.6v1.3H13v-1.3zm0 15.6v-1.3h11.7v1.3a2.603 2.603 0 01-2.6 2.6h-6.5a2.603 2.603 0 01-2.6-2.6zm24.7 14.3H2.6v-3.9a5.206 5.206 0 015.2-5.2h24.7a5.206 5.206 0 015.2 5.2v3.9zm21.877 0H40.3v-2.6h15.6a3.906 3.906 0 013.677 2.6zm-6.5-5.2H40.19a7.738 7.738 0 00-.634-2.02 3.896 3.896 0 012.044-.58h7.8a3.906 3.906 0 013.677 2.6zM48.1 65h-5.2v-6.5h5.2V65zm27.3-11.7a2.603 2.603 0 01-2.6 2.6v-5.2a2.603 2.603 0 012.6 2.6zm-32.5-5.2V39h5.2v9.1h-5.2zm23.4-33.493l4.397 8.793h-8.794l4.397-8.793zm0 20.493a9.11 9.11 0 01-9.1-9.1h18.2a9.11 9.11 0 01-9.1 9.1z" fill="#2F387B"/></svg>