<svg width="12" height="16" fill="none" xmlns="http://www.w3.org/2000/svg"><path d="M3.668 10.914c0-1.047.129-1.871.387-2.473.258-.61.675-1.136 1.254-1.58.578-.445 1.015-.85 1.312-1.216.305-.373.457-.781.457-1.226 0-1.082-.508-1.623-1.523-1.623-.47 0-.848.157-1.137.473-.29.315-.441.742-.457 1.28H0C.016 3.114.508 2 1.477 1.203 2.445.401 3.805 0 5.555 0c1.742 0 3.09.37 4.043 1.108.96.738 1.441 1.788 1.441 3.15a3.42 3.42 0 01-.387 1.624c-.257.487-.672.985-1.242 1.494l-1.348 1.15c-.382.338-.648.685-.796 1.044-.149.351-.23.8-.246 1.344H3.668zm-.48 3.269c0-.53.207-.964.62-1.301.422-.344.946-.516 1.57-.516.626 0 1.145.172 1.56.516.421.337.632.77.632 1.3 0 .531-.21.968-.633 1.313-.414.337-.933.505-1.558.505s-1.149-.168-1.57-.505a1.632 1.632 0 01-.622-1.312z" fill="#2F387B"/></svg>