<svg width="60" height="78" fill="none" xmlns="http://www.w3.org/2000/svg"><path fill-rule="evenodd" clip-rule="evenodd" d="M0 55.9v-8.626a10.349 10.349 0 013.903-8.121l8.268-6.615A12.917 12.917 0 0110.4 26V6.5a5.206 5.206 0 015.2-5.2 3.88 3.88 0 012.34.783A5.195 5.195 0 0122.1 0H26a10.411 10.411 0 017.304 2.997A16.9 16.9 0 1146.8 33.345v5.348l2.463 4.926c.09.18.137.38.137.581v6.504a4.058 4.058 0 012.712 6.923l-1.498 1.498-1.214 7.283V71.5a6.508 6.508 0 01-6.5 6.5H5.2a1.3 1.3 0 01-1.3-1.3V64.611A11.672 11.672 0 010 55.9zm11.7 11.7a11.626 11.626 0 01-5.2-1.223V75.4h31.204a6.466 6.466 0 01-1.304-3.9v-3.9H11.7zm9.214-55.326a7.14 7.14 0 01-2.498-2.03A6.275 6.275 0 0113.223 13H13v13a10.4 10.4 0 0019.804 4.445A16.895 16.895 0 0126.455 13H24.05a7.14 7.14 0 01-3.136-.726zM39 45.5v5.2h7.8v-5.2H39zm-4.326-13.026L39 35.62v-2.275a16.782 16.782 0 01-3.986-1.502 13.31 13.31 0 01-.34.63zm-8.383 6.198a12.95 12.95 0 01-5.782 0L21.68 41.6h3.44l1.171-2.928zM24.837 44.2h-2.873l-.977 8.788 4.894.612-1.044-9.4zm2.491-1.12l1.206 10.852 4.796.6 3.07-3.07V44.2c0-.202.047-.4.137-.581l2.411-4.822-5.79-4.21a13.065 13.065 0 01-3.569 2.84l-2.261 5.653zm12.816 31.176A3.904 3.904 0 0042.9 75.4a3.904 3.904 0 003.9-3.9v-3.9H39v3.9a3.905 3.905 0 001.144 2.756zM45.997 42.9l-1.3-2.6h-3.594l-1.3 2.6h6.194zm4.593 12.416a1.459 1.459 0 00-1.347-2.016H38.238L35.1 56.438V65h11.899l1.119-6.714a1.3 1.3 0 01.363-.705l1.792-1.793c.136-.134.243-.295.317-.472zM41.6 33.75v3.95h2.6v-3.95a16.955 16.955 0 01-2.6 0zm13.19-8.905A14.3 14.3 0 0057.2 16.9 14.316 14.316 0 0042.9 2.6a14.3 14.3 0 1011.89 22.245zM26 2.6h-3.9a2.603 2.603 0 00-2.6 2.6v.65a4.555 4.555 0 004.55 4.55h3.25c.91-2.17 2.26-4.128 3.967-5.748A7.806 7.806 0 0026 2.6zm-9.481 1.681A1.301 1.301 0 0015.6 3.9 2.603 2.603 0 0013 6.5v3.9h.223A3.681 3.681 0 0016.9 6.723V5.2c0-.345-.137-.675-.381-.919zM13.7 34.644l-8.174 6.539a7.761 7.761 0 00-2.927 6.09V55.9a9.11 9.11 0 009.1 9.1h20.8v-7.952l-19.66-2.458A1.3 1.3 0 0111.7 53.3v-7.8h2.6v6.652l4.107.514 1.065-9.586-2.26-5.65a13.086 13.086 0 01-3.51-2.786zM16.9 16.9h5.2v2.6h-5.2v-2.6zm3.9 14.3v-2.6h1.3a1.301 1.301 0 001.3-1.3v-2.6H26v2.6a3.904 3.904 0 01-3.9 3.9h-1.3zm-1.3-7.8a1.3 1.3 0 100-2.6 1.3 1.3 0 000 2.6zM52 13V9.1a1.3 1.3 0 00-1.3-1.3h-3.9v2.6h2.6V13H52zm0 7.8v3.9a1.3 1.3 0 01-1.3 1.3h-3.9v-2.6h2.6v-2.6H52zM35.1 26H39v-2.6h-2.6v-2.6h-2.6v3.9a1.3 1.3 0 001.3 1.3zM39 10.4h-2.6V13h-2.6V9.1a1.3 1.3 0 011.3-1.3H39v2.6z" fill="#2F387B"/></svg>