<svg width="20" height="20" fill="none" xmlns="http://www.w3.org/2000/svg"><path d="M10 20c5.523 0 10-4.477 10-10S15.523 0 10 0 0 4.477 0 10s4.477 10 10 10z" fill="#7D3DAF"/><path d="M16.323 6.446l-.004-.018c-.32-1.29-1.76-2.677-3.08-2.966l-.014-.005a17.123 17.123 0 00-6.446 0l-.017.005c-1.321.29-2.76 1.676-3.08 2.966l-.005.018a12.622 12.622 0 000 5.436l.004.018c.308 1.237 1.641 2.558 2.914 2.922v1.444c0 .522.636.776.996.399l1.461-1.518a17.173 17.173 0 004.178-.281l.013-.005c1.32-.29 2.764-1.671 3.08-2.966l.004-.017c.39-1.8.39-3.629-.004-5.432zm-1.154 5.173c-.215.842-1.308 1.891-2.177 2.084a16.081 16.081 0 01-3.426.277.087.087 0 00-.062.026l-1.066 1.092L7.3 16.261c-.083.088-.228.027-.228-.092v-2.387c0-.04-.026-.075-.066-.079-.868-.193-1.96-1.242-2.176-2.084a11.459 11.459 0 010-4.915c.215-.842 1.308-1.89 2.176-2.084a15.962 15.962 0 015.986 0c.868.193 1.96 1.242 2.176 2.084a11.46 11.46 0 010 4.915z" fill="#fff"/><path d="M11.887 12.72c-.132-.04-.26-.066-.378-.118-1.224-.51-2.351-1.163-3.247-2.168-.509-.57-.904-1.215-1.241-1.9a15.474 15.474 0 01-.43-.996c-.123-.303.057-.619.254-.851a1.96 1.96 0 01.667-.5c.198-.097.39-.04.535.127.312.364.597.741.83 1.163.145.259.105.574-.154.75-.061.044-.118.092-.18.14-.052.044-.1.084-.136.14a.392.392 0 00-.026.343c.32.878.856 1.558 1.737 1.926.14.057.281.128.448.11.272-.03.36-.329.553-.487.184-.154.425-.154.627-.026.202.127.395.263.588.403.189.136.378.268.553.422.167.149.228.342.132.544-.176.368-.426.675-.79.873-.1.053-.224.07-.342.105-.132-.04.118-.035 0 0zM10 5.77c1.602.044 2.918 1.11 3.199 2.694.048.272.066.544.088.82.008.114-.058.224-.18.229-.128 0-.185-.106-.193-.22-.018-.228-.027-.456-.062-.684a2.862 2.862 0 00-2.303-2.392c-.18-.03-.36-.04-.545-.061-.114-.013-.263-.018-.29-.163-.021-.118.08-.215.194-.219.03-.009.061-.004.092-.004 1.606.044-.03 0 0 0z" fill="#fff"/><path d="M12.435 8.924c-.004.022-.004.066-.017.11-.044.162-.285.18-.342.018-.018-.049-.018-.101-.018-.154 0-.338-.075-.68-.246-.974a1.798 1.798 0 00-.759-.71 2.202 2.202 0 00-.605-.185c-.093-.013-.185-.026-.277-.035-.11-.018-.171-.088-.167-.198.005-.1.08-.175.194-.17.368.021.723.1 1.048.271.663.351 1.044.909 1.154 1.65.005.035.013.066.018.101.009.083.013.167.017.276 0 .022-.004-.11 0 0z" fill="#fff"/><path d="M11.44 8.885c-.137.005-.207-.07-.22-.193a1.603 1.603 0 00-.04-.254.715.715 0 00-.267-.417.7.7 0 00-.215-.105c-.097-.027-.202-.022-.299-.044-.105-.027-.166-.114-.149-.21a.188.188 0 01.202-.154c.623.043 1.066.364 1.128 1.097a.598.598 0 010 .153.152.152 0 01-.14.127c-.132.005.06-.004 0 0z" fill="#fff"/></svg>