<svg width="78" height="78" fill="none" xmlns="http://www.w3.org/2000/svg"><path fill-rule="evenodd" clip-rule="evenodd" d="M39 78H1.3A1.3 1.3 0 010 76.7V48.1h.001a1.298 1.298 0 01.63-1.115L6.5 43.464v-8.027L3.952 30.85A31.478 31.478 0 010 15.6 15.618 15.618 0 0115.6 0h15.6a6.5 6.5 0 013.9 11.7l-2.6 1.95v11.917l3.64 4.853a1.302 1.302 0 01-.319 1.862L32.5 34.496V40.3a3.905 3.905 0 01-3.9 3.9h-5.39c-.37 0-.74-.02-1.11-.056v2.117l3.396 3.397 8.949 5.113a1.3 1.3 0 01.616.814l5.2 20.8A1.299 1.299 0 0139 78zM7.985 61.769L2.6 52.794V75.4h9.299l2.334-14.007-1.754-2.631-2.339 3.118a1.301 1.301 0 01-2.155-.111zm12.293-5.13l-3.31-3.863-2.835 3.78 2.163 3.244h2.4l1.581-3.162zM18.485 62.4h-1.784l-2.166 13h7.2l-3.25-13zm7.134-1.68a1.3 1.3 0 01-1.906-.074l-1.6-1.866-1.235 2.471L24.415 75.4h12.92l-4.662-18.647L26 52.94v6.86a1.3 1.3 0 01-.38.92zm-6.948-9.952l4.729 5.518v-5.048l-2.6-2.6-2.13 2.13zm11.808-18.05l2.757-1.837-3.076-4.101a1.3 1.3 0 01-.26-.78V14.3h-7.064l-3.102 5.17a7.777 7.777 0 01-1.04 9.253L24.01 35.1h3.29v2.6h-3.9a1.3 1.3 0 01-.999-.468l-5.774-6.93a7.736 7.736 0 01-2.327.788v1.41a1.3 1.3 0 01-.719 1.163L9.1 35.903v7.628l7.66 5.471 2.74-2.74v-2.679a11.456 11.456 0 01-5.339-3.78l2.045-1.606a8.842 8.842 0 003.02 2.462 8.956 8.956 0 003.984.941h5.39a1.301 1.301 0 001.3-1.3v-6.5a1.3 1.3 0 01.579-1.082zM11.7 3.198V13a1.3 1.3 0 01-.38.92L9.1 16.138v.51a7.771 7.771 0 017.8 0v-.51l-2.22-2.22A1.3 1.3 0 0114.3 13V2.665a12.95 12.95 0 00-2.6.533zm4.189 15.878A5.2 5.2 0 0013 18.2a5.206 5.206 0 00-5.2 5.2 5.2 5.2 0 108.089-4.324zM33.48 3.336A3.9 3.9 0 0031.2 2.6H16.9v9.861l2.22 2.22c.1.102.184.22.246.348l1.62-2.698A1.3 1.3 0 0122.1 11.7h8.667l2.773-2.08a3.9 3.9 0 00-.06-6.284zM4.344 9.104A13.004 13.004 0 002.6 15.6a28.872 28.872 0 003.624 13.987l2.108 3.794 3.368-1.684v-.607a7.794 7.794 0 01-5.2-11.995V15.6a1.3 1.3 0 01.38-.92l2.22-2.219V4.35a13.005 13.005 0 00-4.756 4.755zm10.718 41.88l-7.324-5.23-4.654 2.792L9.22 58.773l5.842-7.789zM27.3 19.5h-5.2v2.6h5.2v-2.6zM26 26a1.3 1.3 0 100-2.6 1.3 1.3 0 000 2.6zM74.1 0H42.9A3.904 3.904 0 0039 3.9v23.4a3.904 3.904 0 003.9 3.9h3.9v9.1a1.3 1.3 0 002.164.972L60.294 31.2H74.1a3.904 3.904 0 003.9-3.9V3.9A3.904 3.904 0 0074.1 0zm1.3 27.3a1.301 1.301 0 01-1.3 1.3H53.3v2.6h3.08l-6.98 6.205V29.9a1.3 1.3 0 00-1.3-1.3h-5.2a1.301 1.301 0 01-1.3-1.3V3.9a1.302 1.302 0 011.3-1.3h31.2a1.301 1.301 0 011.3 1.3v23.4zM57.2 10.4h2.6V13h-2.6v-2.6zm2.6 5.2h-2.6v5.2h2.6v-5.2zm-7.078-8.647A10.4 10.4 0 0158.5 5.2a10.412 10.412 0 0110.4 10.4 10.4 10.4 0 11-16.178-8.647zm1.445 15.133A7.8 7.8 0 0058.5 23.4a7.81 7.81 0 007.8-7.8 7.8 7.8 0 10-12.133 6.486z" fill="#2F387B"/></svg>