<svg width="180" height="180" fill="none" xmlns="http://www.w3.org/2000/svg"><path fill-rule="evenodd" clip-rule="evenodd" d="M77.567 107.469a15.022 15.022 0 013.43 9.533 2.998 2.998 0 01-3 3H36a2.998 2.998 0 01-3-3 15.022 15.022 0 0112.132-14.721l2.794-55.893-3.936-3.148a14.227 14.227 0 00-16.838-.731 33.53 33.53 0 01-1.657 1.03l13.049 20.875-.003.002c.3.475.459 1.026.459 1.588v3a18 18 0 01-36 0v-3c0-.562.16-1.113.46-1.588l-.003-.002 10.49-16.785c-1.637.25-3.29.375-4.946.376a9 9 0 110-18 26.639 26.639 0 0014.823-4.488 20.206 20.206 0 0123.914 1.038l1.142.914.972-5.83a11.999 11.999 0 1114.294 0l.971 5.83 1.142-.914a20.207 20.207 0 0123.915-1.038 26.639 26.639 0 0014.823 4.489 9.03 9.03 0 017.794 4.497l-5.193 3.004a3.021 3.021 0 00-2.601-1.502 32.62 32.62 0 01-18.151-5.496 14.23 14.23 0 00-16.839.73l-5.134 4.109a3.001 3.001 0 01-1.874.657h-12a3.002 3.002 0 01-1.874-.657L43.99 31.24a14.227 14.227 0 00-16.838-.73A32.62 32.62 0 019 36.004a3 3 0 100 6 26.639 26.639 0 0014.823-4.488 20.206 20.206 0 0123.914 1.037l4.314 3.451h9.894l4.313-3.45a20.402 20.402 0 0115.098-4.298l-.718 5.957a14.177 14.177 0 00-10.632 3.026l-3.935 3.148 2.794 55.893a15.019 15.019 0 018.703 5.188zM60.331 7.018a6 6 0 00-3.333-1.012 6.007 6.007 0 00-6 6 6 6 0 109.333-4.988zm-1.89 16.898c-.479.059-.96.089-1.443.09a12.031 12.031 0 01-1.444-.09l-1.015 6.09h4.917l-1.015-6.09zM30.586 63.004l-9.587-15.338-9.587 15.338h19.174zM12.518 77.485c2.25 2.25 5.3 3.515 8.481 3.519a12.013 12.013 0 0012-12h-24a12.013 12.013 0 003.52 8.481zm50.326 24.518l-2.7-53.998h-6.292l-2.7 53.998h11.692zm-20.04 7.654a9.015 9.015 0 00-3.291 4.345h34.97a9.015 9.015 0 00-8.485-5.999h-18a9.015 9.015 0 00-5.194 1.654zm98.447-6.461a65.089 65.089 0 0118.683 6.897 39.02 39.02 0 0120.059 34.091V180h-5.999v-35.816a33.02 33.02 0 00-15-27.657v15.475a2.996 2.996 0 01-1.886 2.785l-13.432 5.373-2.722 16.334a3.002 3.002 0 01-1.239 1.964l-29.999 21a3.006 3.006 0 01-1.769.542 3.009 3.009 0 01-1.751-.6l-23.999-17.999a3.003 3.003 0 01-1.16-2.894l2.58-15.47-6.569-2.189a3.002 3.002 0 01-2.051-2.846v-3.597a33.104 33.104 0 00-11.076 21.511l-.923 9.234V180h-6v-14.999c0-.1.005-.2.015-.299l.938-9.383a39.124 39.124 0 0122.667-31.622l13.917-6.326 7.461-4.974v-4.394h-6a2.998 2.998 0 01-2.846-2.051l-5.674-17.024-8.143-5.428a3 3 0 01-1.02-3.838l10.379-20.756a9.007 9.007 0 01-4.695-7.901v-6a3 3 0 013-3h40.907a16.499 16.499 0 0116.247 19.368l-6.156 34.892v6.278l3.07.613.024.005.024.005.138.03zm-42.034 29.956l-4.61-9.223-3.06 1.391 9.203 24.192 1.176-8.234-2.709-8.126zm17.173-1.15l-3.131-4.697-7.733 5.799 1.632 4.898h5.232l4-6zm23.5-22.961l-4.051-.81-17.873 15.319 2.711 4.065 22.326-17.862a58.46 58.46 0 00-3.113-.712zm-28.496 34.96h-3.796l-2.442 17.095 3.465 9.108 5.278-8.67-2.505-17.533zm5.734-2.29l1.679 11.759 19.788-32.506-16.362 13.09-5.105 7.657zm10.776-93.706H89.997v3a3.003 3.003 0 003 3h23.999a2.998 2.998 0 012.97 2.575l1.78 12.466a9.372 9.372 0 0110.249 9.322 19.131 19.131 0 01-1.537 7.505l2.705 3.246 5.08-28.788a10.505 10.505 0 00-2.295-8.575 10.49 10.49 0 00-8.044-3.751zm-35.061 38.05l5.316 15.948h5.594l5.122-5.121 4.242 4.242-5.121 5.122v6.514l6.157 6.156 17.842-15.293v-6.534l-4.922-5.906a19.173 19.173 0 01-3.599 3.107l-.76.506a7.184 7.184 0 01-9.065-.897l-1.775-1.774 4.243-4.243 1.775 1.774a1.203 1.203 0 001.493.148l.761-.506a13.113 13.113 0 005.849-10.93 3.368 3.368 0 00-2.076-3.108 3.364 3.364 0 00-3.666.73l-4.136 4.135-4.243-4.243 4.136-4.136.028-.026.026-.025-1.67-11.69H94.851l-9.987 19.971 6.797 4.531a3 3 0 011.182 1.548zm16.586 36.623l-4.815-4.815-4.75 3.166 3.208 6.416 6.357-4.767zm-28.432 13.161l6.949 2.316a3.002 3.002 0 012.01 3.34l-2.7 16.2 14.253 10.69-15.434-40.578-2.974 1.352c-.716.328-1.418.678-2.104 1.052v5.628zm57.661.281a3.005 3.005 0 011.223-.904l13.113-5.245v-16.673a57.921 57.921 0 00-2.14-.934L118 166.336l17.243-12.071 2.793-16.757c.084-.508.299-.986.622-1.388zm-33.662-64.116a2.998 2.998 0 00-3-3h-3a3 3 0 100 6h3a2.998 2.998 0 003-3zM77.997 180v-14.999h-6V180h6zm71.997-14.999V180h6v-14.999h-6z" fill="#E2EBFF"/></svg>