<svg width="180" height="180" fill="none" xmlns="http://www.w3.org/2000/svg"><path fill-rule="evenodd" clip-rule="evenodd" d="M179.121 35.121A2.998 2.998 0 01177 36h-15v66h9c.796 0 1.559.316 2.121.879l6 6c.563.562.879 1.325.879 2.121v66c0 .796-.316 1.559-.879 2.121A2.996 2.996 0 01177 180H3a2.999 2.999 0 01-3-3V42a3 3 0 013.998-2.829l51 18A3 3 0 0157 60v30h75a3.003 3.003 0 012.997 2.865 2.997 2.997 0 01-.314 1.477L129 105.708V123h9V36H93v15h15a2.998 2.998 0 013 3v12a2.999 2.999 0 01-3 3H72a3 3 0 01-3-3V54a3 3 0 013-3h15V36h-6a3 3 0 01-3-3v-3a3 3 0 011.126-2.343l15-12A3 3 0 0196 15h42V9c0-.796.316-1.559.879-2.121l6-6A2.998 2.998 0 01147 0h6c.796 0 1.559.316 2.121.879l6 6c.563.562.879 1.325.879 2.121v6h15a2.998 2.998 0 013 3v15c0 .796-.316 1.559-.879 2.121zM87 63h6v-6h-6v6zm60 69v-3h-6v3h6zm0 9v-3h-6v3h6zM81 57h-6v6h6v-6zm18 6h6v-6h-6v6zm48 87v-3h-6v3h6zm12 0v-21h-6v21h6zm15-21h-9v21h9v-21zm-18-6h18v-6h-18v6zm-1.243-18l1.243-1.243v-4.352L149.286 105h5.471zM120 30v-5.595L113.286 30H120zm-12-9v5.595L114.714 21H108zm24.714 0H126v5.595L132.714 21zM144 21v5.595L150.714 21H144zm12 9v-5.595L149.286 30H156zm-12 11.595L150.714 36H144v5.595zM150.714 51H144v5.595L150.714 51zm0 15H144v5.595L150.714 66zm0 15H144v5.595L150.714 81zm0 15H144v5.595L150.714 96zm-1.428-6H156v-5.595L149.286 90zm0-15H156v-5.595L149.286 75zm0-15H156v-5.595L149.286 60zm0-15H156v-5.595L149.286 45zM174 24.405L167.286 30H174v-5.595zm-12 2.19L168.714 21H162v5.595zM151.757 6h-3.514L144 10.243V15h12v-4.757L151.757 6zM102 21h-4.948l-11.25 9H102v-9zm36 3.405L131.286 30H138v-5.595zM150 123v-12h-6v12h6zm-15 27v-21h-6v21h6zm-79.146-48h68.292l3-6H52.854l3 6zM51 90V62.123L6 46.24V150h45v-44.292l-5.683-11.366A2.999 2.999 0 0148 90h3zM6 156v18h72v-18H6zm90 6H84v12h12v-12zm0-6v-3a2.998 2.998 0 013-3h24v-42H57v42h24a2.999 2.999 0 013 3v3h12zm6 0v18h72v-18h-72zm55.243-45h15.514l-3-3h-9.514l-3 3zM18 66h-6v6h6v-6zm-6 12h6v6h-6v-6zm30 12h-6v6h6v-6zm-30 12h6v6h-6v-6zm51 12h6v6h-6v-6zm12 0h6v6h-6v-6zm-6 12h-6v6h6v-6zm6 0h6v6h-6v-6zm-6 12h-6v6h6v-6zm6 0h6v6h-6v-6zm30-24h-6v6h6v-6zm6 0h6v6h-6v-6zm-6 12h-6v6h6v-6zm6 0h6v6h-6v-6zm-6 12h-6v6h6v-6zm-18-24h6v6h-6v-6zm-69 24h-6v6h6v-6zm6 0h6v6h-6v-6zm18 0h-6v6h6v-6zm-30-12h6v6h-6v-6zm18 0h-6v6h6v-6zm6 0h6v6h-6v-6zm-18-12h-6v6h6v-6zm6 0h6v6h-6v-6zm18 0h-6v6h6v-6zm-12-12h-6v6h6v-6zm6 0h6v6h-6v-6zM12 90h6v6h-6v-6zm18 0h-6v6h6v-6zm0-12h-6v6h6v-6zm6 0h6v6h-6v-6zM24 66h6v6h-6v-6zm18 0h-6v6h6v-6zm45 60h6v6h-6v-6zm6 12h-6v6h6v-6zm18 0h6v6h-6v-6z" fill="#E2EBFF"/></svg>