<svg width="78" height="78" fill="none" xmlns="http://www.w3.org/2000/svg"><path fill-rule="evenodd" clip-rule="evenodd" d="M20.899 49.897a1.3 1.3 0 01-.099-.497V35.1H13v-2.6h7.8v-2.6H13v-2.6h7.8v-2.6a11.716 11.716 0 0110.4-11.626V9.208l-1.282-7.694A1.3 1.3 0 0131.78.137l4.362 2.181L38.081.381a1.3 1.3 0 011.838 0l1.938 1.937 4.362-2.18a1.3 1.3 0 011.863 1.376L46.8 9.208v3.867a11.755 11.755 0 018.43 5.125H65v2.6h-2.467a6.532 6.532 0 003.118 4.331l-1.302 2.25a9.14 9.14 0 01-4.454-6.581H57.2v28.6a1.3 1.3 0 01-1.3 1.3H22.1a1.3 1.3 0 01-1.201-.803zM33.8 35.1H23.4v2.6h10.4v-2.6zm13-14.3h-2.694a9.118 9.118 0 01-7.706 7.706v1.488a9.118 9.118 0 017.706 7.706H46.8V20.8zm-10.4 0v5.07a6.52 6.52 0 005.07-5.07H36.4zm3.294 13.606a6.52 6.52 0 00-3.294-1.775V37.7h5.07a6.521 6.521 0 00-1.776-3.294zM46.8 40.3H36.4v7.8h10.4v-7.8zm-13 0H23.4v2.6h10.4v-2.6zm0 5.2H23.4v2.6h10.4v-2.6zm15.6-5.2v7.8h5.2v-7.8h-5.2zm0-2.6h5.2V20.8h-5.2v16.9zm-5.2-27.3H33.8V13h10.4v-2.6zm-7.592-5.217a1.3 1.3 0 01-.79-.12l-2.916-1.459.7 4.196h10.797l.699-4.196-2.917 1.459a1.3 1.3 0 01-1.5-.244L39 3.14l-1.68 1.68a1.3 1.3 0 01-.712.364zm-10.54 13.085A9.11 9.11 0 0023.4 24.7v7.8h10.4v-13a1.3 1.3 0 011.3-1.3h16.764a9.132 9.132 0 00-6.364-2.6h-13a9.11 9.11 0 00-6.432 2.668zM24.7 71.5h-1.3v-3.9a1.3 1.3 0 00-1.3-1.3h-1.224a12.35 12.35 0 00-1.757-15.22l-.919-.919V42.9a5.198 5.198 0 00-7.8-4.502V22.1a5.2 5.2 0 00-10.4 0v28.325A32.144 32.144 0 004.175 66.3H3.9a1.3 1.3 0 00-1.3 1.3v3.9H1.3A1.3 1.3 0 000 72.8V78h2.6v-3.9h20.8V78H26v-5.2a1.3 1.3 0 00-1.3-1.3zM2.6 50.425V22.1a2.6 2.6 0 115.2 0v31.2a1.3 1.3 0 002.6 0V42.9a2.6 2.6 0 115.2 0v7.8a1.298 1.298 0 00.38.92l1.3 1.3a9.731 9.731 0 01.362 13.38H7.205A29.563 29.563 0 012.6 50.426zM5.2 71.5v-2.6h15.6v2.6H5.2zM78 22.1a5.2 5.2 0 10-10.4 0v16.298a5.2 5.2 0 00-7.8 4.502v7.261l-.92.92A12.35 12.35 0 0057.125 66.3H55.9a1.3 1.3 0 00-1.3 1.3v3.9h-1.3a1.3 1.3 0 00-1.3 1.3V78h2.6v-3.9h20.8V78H78v-5.2a1.3 1.3 0 00-1.3-1.3h-1.3v-3.9a1.3 1.3 0 00-1.3-1.3h-.275A32.144 32.144 0 0078 50.426V22.1zM57.2 71.5v-2.6h15.6v2.6H57.2zm18.2-21.075A29.562 29.562 0 0170.795 66.3H60.358a9.731 9.731 0 01.361-13.38l1.3-1.3a1.299 1.299 0 00.381-.92v-7.8a2.6 2.6 0 115.2 0v10.4a1.3 1.3 0 102.6 0V22.1a2.6 2.6 0 115.2 0v28.325z" fill="#2F387B"/></svg>