<svg width="78" height="78" fill="none" xmlns="http://www.w3.org/2000/svg"><path fill-rule="evenodd" clip-rule="evenodd" d="M76.096 54.6h.604a1.3 1.3 0 011.3 1.3 6.507 6.507 0 01-6.5 6.5h-2.6a6.495 6.495 0 01-5.2-2.605v.005h-2.6v10.4h7.8a1.3 1.3 0 011.261.985l1.3 5.2A1.3 1.3 0 0170.2 78H3.9a1.3 1.3 0 01-1.279-1.067l-2.6-14.3a1.3 1.3 0 01.014-.53l4.668-19.84a6.507 6.507 0 013.214-4.217l12.013-6.552 3.128-4.171A10.375 10.375 0 0119.5 19.5v-13A6.507 6.507 0 0126 0h7.15a7.158 7.158 0 017.15 7.15V19.5a10.376 10.376 0 01-3.558 7.823l3.129 4.171 14.052 7.665a1.3 1.3 0 01.364.295l.483.564a13.132 13.132 0 013.37-.908l2.847-7.829-2.35-4.7a1.298 1.298 0 01-.12-.367l-1.082-6.494a3.087 3.087 0 013.667-3.535 4.568 4.568 0 016.266-4.158l3.463 1.385a5.175 5.175 0 013.269 4.829V24.7a1.3 1.3 0 01-.093.483l-2.489 6.222.821 11.495H75.4a1.3 1.3 0 011.3 1.3v3.9a1.3 1.3 0 01-1.3 1.3h-2.77l3.466 5.2zM70.2 50.444L67.43 54.6h5.541L70.2 50.444zM68.033 46.8H74.1v-1.3h-5.2a1.3 1.3 0 01-.78-.26l-2.08-1.56a10.4 10.4 0 00-12.48 0l-2.08 1.56a1.3 1.3 0 01-.78.26h-5.2v1.3h6.067l2.773-2.08a9.1 9.1 0 0110.92 0l2.773 2.08zm-12.737 7.8h.604a1.3 1.3 0 011.3 1.3c0 .437-.044.872-.13 1.3h1.43V45.633a6.536 6.536 0 00-2.6 1.167l-3.12 2.34a1.3 1.3 0 01-.78.26h-.17l3.466 5.2zm-9.447 4.483a3.906 3.906 0 002.251.717h2.6a3.907 3.907 0 003.677-2.6h-9.954c.27.76.768 1.418 1.426 1.883zm3.551-8.64L46.63 54.6h5.541L49.4 50.444zM67.6 41.6l1.733 1.3h.4l-.743-10.4h-5.68l-2.382 6.551a13.092 13.092 0 016.672 2.55zm-6.987-22.865a.494.494 0 00-.613.557l1.05 6.301 2.154 4.307h6.116l2.18-5.45v-6.21a2.587 2.587 0 00-1.634-2.414l-3.464-1.385a1.97 1.97 0 00-2.702 1.83v2.185l.902 1.354a5.967 5.967 0 012.998 5.197V26H65v-.993a3.385 3.385 0 00-1.881-3.044 1.3 1.3 0 01-.5-.442l-1.723-2.583a.494.494 0 00-.283-.203zM19.5 34.69l-2.88 1.57-2.074 7.26 4.954 2.476V34.69zm11.844 9.51h-2.888l-2.391 20.326 3.835 3.836 3.835-3.836L31.344 44.2zm-3.857-4.849l.75 2.249h3.326l.75-2.249-2.413-2.413-2.413 2.413zm4.251-4.251l3.006 3.005 2.734-5.468-1.404-1.872-4.336 4.335zM29.9 33.261l4.292-4.292a10.361 10.361 0 01-8.584 0l4.292 4.292zm-4.844 4.844l3.006-3.005-4.336-4.335-1.404 1.872 2.734 5.468zM14.786 52.56l4.714 8.642V50.203l-4.714 2.357zm8.751-11.678L22.1 38.007V75.4h15.6V38.007l-1.437 2.875a1.299 1.299 0 01-1.886.498l-.552 1.656 2.566 21.812a1.3 1.3 0 01-.372 1.071l-5.2 5.2a1.3 1.3 0 01-1.838 0l-5.2-5.2a1.3 1.3 0 01-.372-1.07l2.566-21.813-.552-1.656a1.3 1.3 0 01-1.886-.498zM37.7 7.503V7.15a4.557 4.557 0 00-3.51-4.429c.586.922.901 1.99.909 3.082l2.24 1.494c.116.077.236.146.361.206zM29.25 2.6H26a3.904 3.904 0 00-3.9 3.9h.762a5.701 5.701 0 014.057 1.68 3.118 3.118 0 002.22.92h.111a3.25 3.25 0 100-6.5zM22.1 9.1v10.4a7.8 7.8 0 0015.6 0v-9.255a5.577 5.577 0 01-1.803-.784l-1.436-.958A5.855 5.855 0 0129.25 11.7h-.112a5.702 5.702 0 01-4.057-1.68 3.118 3.118 0 00-2.22-.92H22.1zM10.4 75.4V61.1H13v14.3h6.5v-8.769l-7.641-14.008a1.301 1.301 0 01.56-1.786l5.474-2.737-5.474-2.737a1.3 1.3 0 01-.669-1.52l1.667-5.835-4.255 2.32a3.905 3.905 0 00-1.929 2.531L2.628 62.434 4.985 75.4H10.4zm42.018-34.1L40.3 34.69V75.4h7.985l2-13H48.1a6.507 6.507 0 01-6.5-6.5 1.3 1.3 0 011.3-1.3h.604l3.467-5.2H44.2a1.3 1.3 0 01-1.3-1.3v-3.9a1.3 1.3 0 011.3-1.3h6.067L52 41.6c.138-.103.277-.203.418-.3zm-.703 31.5l-.65 2.6h17.47l-.65-2.6h-16.17zm0-2.6H58.5V59.8h-2.6v-.005a6.532 6.532 0 01-2.921 2.192L51.715 70.2zm10.816-13a6.51 6.51 0 01-.131-1.3 1.3 1.3 0 011.3-1.3h.604l3.467-5.2H67.6a1.3 1.3 0 01-.78-.26L63.7 46.8a6.536 6.536 0 00-2.6-1.167V57.2h1.43zm6.369 2.6h2.6a3.906 3.906 0 003.677-2.6h-9.954a3.907 3.907 0 003.677 2.6zM27.3 15.6a1.3 1.3 0 11-2.6 0 1.3 1.3 0 012.6 0zm1.3 7.8h-1.3v-2.6h1.3a1.301 1.301 0 001.3-1.3v-1.3h2.6v1.3a3.905 3.905 0 01-3.9 3.9zm5.2-6.5a1.3 1.3 0 100-2.6 1.3 1.3 0 000 2.6z" fill="#2F387B"/></svg>