<svg width="78" height="78" viewBox="0 0 78 78" fill="none" xmlns="http://www.w3.org/2000/svg">
<path fill-rule="evenodd" clip-rule="evenodd" d="M39 78H1.3C0.95522 78 0.624561 77.863 0.380765 77.6192C0.136968 77.3754 3.44775e-06 77.0448 0 76.7V48.1H0.00130982C0.00098768 47.8756 0.0588395 47.655 0.169221 47.4596C0.279602 47.2642 0.438743 47.1008 0.631116 46.9853L6.5 43.4639V35.4369L3.95157 30.8498C1.36312 26.1836 0.00334218 20.936 0 15.6C0.00467687 11.4641 1.64975 7.49885 4.5743 4.5743C7.49885 1.64975 11.4641 0.00467687 15.6 0H31.2C32.5642 0 33.8939 0.429243 35.0006 1.22693C36.1073 2.02461 36.935 3.15029 37.3664 4.44452C37.7978 5.73875 37.8111 7.13591 37.4043 8.43809C36.9976 9.74027 36.1914 10.8815 35.1 11.7L32.5 13.65V25.5667L36.1401 30.42C36.2461 30.5615 36.3222 30.7231 36.3637 30.8949C36.4051 31.0668 36.4111 31.2453 36.3813 31.4195C36.3514 31.5937 36.2863 31.7601 36.19 31.9083C36.0937 32.0565 35.9682 32.1836 35.8211 32.2816L32.5 34.4957V40.3C32.4988 41.334 32.0875 42.3253 31.3564 43.0564C30.6253 43.7875 29.634 44.1988 28.6 44.2H23.2104C22.8397 44.2 22.4691 44.1807 22.1 44.1445V46.2615L25.4963 49.6578L34.4449 54.7713C34.5972 54.8583 34.7303 54.9752 34.8362 55.115C34.9421 55.2548 35.0186 55.4145 35.0611 55.5847L40.2611 76.3847C40.3091 76.5763 40.3127 76.7764 40.2717 76.9697C40.2307 77.1629 40.1463 77.3443 40.0247 77.5C39.9031 77.6558 39.7476 77.7817 39.5701 77.8683C39.3925 77.955 39.1976 78 39 78ZM7.98519 61.7688L2.6 52.7935V75.4H11.8987L14.2332 61.3933L12.4788 58.7617L10.1401 61.88C10.019 62.0414 9.86198 62.1724 9.68148 62.2627C9.50099 62.353 9.30196 62.4 9.10016 62.4C9.07778 62.4 9.05541 62.3994 9.03303 62.3983C8.82016 62.3873 8.61325 62.3241 8.43053 62.2143C8.24781 62.1046 8.09487 61.9516 7.98519 61.7688ZM20.2775 56.6381L16.9676 52.7765L14.1331 56.556L16.2957 59.8H18.6966L20.2775 56.6381ZM18.485 62.4H16.7013L14.5347 75.4H21.735L18.485 62.4ZM25.6193 60.7191C25.3756 60.9628 25.045 61.0999 24.7003 61.1001C24.5127 61.1001 24.3274 61.0595 24.1569 60.9812C23.9865 60.9028 23.835 60.7885 23.7129 60.6461L22.1134 58.7799L20.8778 61.2512L24.4149 75.4H37.335L32.6733 56.7534L26 52.9401V59.8C25.9999 60.1447 25.863 60.4753 25.6193 60.7191ZM18.6705 50.768L23.4 56.2858V51.2384L20.8 48.6384L18.6705 50.768ZM30.4789 32.7184L33.2355 30.8806L30.1599 26.78C29.9912 26.5549 29.9 26.2813 29.9 26V14.3H22.836L19.7337 19.4706C20.5817 20.9185 20.9387 22.6018 20.7514 24.2693C20.5641 25.9368 19.8425 27.4989 18.6943 28.7226L24.0089 35.1H27.3V37.7H23.4C23.2094 37.7 23.0212 37.6581 22.8486 37.5773C22.676 37.4964 22.5234 37.3787 22.4014 37.2323L16.6266 30.3025C15.8979 30.6871 15.1125 30.9528 14.3 31.0896V32.5C14.3 32.7414 14.2328 32.9781 14.1059 33.1834C13.979 33.3888 13.7974 33.5548 13.5814 33.6627L9.1 35.9035V43.5311L16.7594 49.0021L19.5 46.2615V43.5833C17.3909 42.869 15.5357 41.5554 14.1613 39.8033L16.2056 38.1967C17.0166 39.232 18.0483 40.0733 19.2256 40.6594C20.4634 41.2764 21.8273 41.5984 23.2104 41.6H28.6C28.9447 41.5996 29.2751 41.4625 29.5188 41.2188C29.7625 40.9751 29.8996 40.6447 29.9 40.3V33.8C29.9 33.586 29.9528 33.3753 30.0538 33.1866C30.1548 32.9979 30.3008 32.8371 30.4789 32.7184ZM11.7 3.19847V13C11.7 13.3448 11.5631 13.6754 11.3193 13.9192L9.1 16.1385V16.6494C10.2848 15.962 11.6302 15.6 13 15.6C14.3698 15.6 15.7152 15.962 16.9 16.6494V16.1385L14.6807 13.9192C14.4369 13.6754 14.3 13.3448 14.3 13V2.66516C13.4173 2.7531 12.546 2.93182 11.7 3.19847ZM15.889 19.0764C15.0338 18.505 14.0285 18.2 13 18.2C11.6214 18.2016 10.2996 18.7499 9.32477 19.7248C8.34992 20.6996 7.80156 22.0214 7.8 23.4C7.8 24.4285 8.10497 25.4338 8.67636 26.289C9.24774 27.1441 10.0599 27.8106 11.01 28.2042C11.9602 28.5977 13.0058 28.7007 14.0145 28.5001C15.0232 28.2994 15.9497 27.8042 16.677 27.077C17.4042 26.3497 17.8994 25.4232 18.1001 24.4145C18.3007 23.4058 18.1977 22.3602 17.8042 21.41C17.4106 20.4599 16.7441 19.6477 15.889 19.0764ZM33.4804 3.33617C32.8163 2.85756 32.0185 2.60001 31.2 2.6H16.9V12.4615L19.1193 14.6808C19.2204 14.7825 19.3038 14.9002 19.3664 15.0292L20.9852 12.3312C21.1007 12.1387 21.2641 11.9794 21.4595 11.8688C21.6548 11.7581 21.8755 11.7 22.1 11.7H30.7667L33.5401 9.62003C34.1949 9.12889 34.6786 8.44417 34.9226 7.66286C35.1667 6.88155 35.1587 6.04326 34.8999 5.26672C34.641 4.49019 34.1444 3.81478 33.4804 3.33617ZM4.34409 9.10447C3.20321 11.0793 2.60173 13.3193 2.6 15.6C2.60307 20.4942 3.85024 25.3073 6.22435 29.5871L8.33189 33.3806L11.7 31.6965V31.0896C10.4189 30.874 9.21203 30.3416 8.18912 29.5408C7.16621 28.7399 6.35973 27.6961 5.843 26.5042C5.32628 25.3123 5.11572 24.0101 5.23046 22.7161C5.3452 21.422 5.78161 20.1772 6.5 19.0948V15.6C6.49999 15.2552 6.63693 14.9246 6.8807 14.6808L9.1 12.4615V4.34893C7.12513 5.48965 5.48497 7.12968 4.34409 9.10447ZM15.0617 50.9845L7.73795 45.7533L3.08353 48.5459L9.21997 58.7733L15.0617 50.9845ZM27.3 19.5H22.1V22.1H27.3V19.5ZM26 26C26.718 26 27.3 25.418 27.3 24.7C27.3 23.982 26.718 23.4 26 23.4C25.282 23.4 24.7 23.982 24.7 24.7C24.7 25.418 25.282 26 26 26ZM74.1 0H42.9C41.866 0.001169 40.8747 0.412436 40.1436 1.14357C39.4124 1.87471 39.0012 2.86601 39 3.9V27.3C39.0012 28.334 39.4124 29.3253 40.1436 30.0564C40.8747 30.7876 41.866 31.1988 42.9 31.2H46.8V40.3C46.8 40.5506 46.8724 40.7959 47.0086 41.0063C47.1447 41.2167 47.3388 41.3832 47.5674 41.4859C47.796 41.5886 48.0494 41.623 48.2971 41.585C48.5448 41.547 48.7763 41.4382 48.9636 41.2717L60.2943 31.2H74.1C75.134 31.1988 76.1253 30.7876 76.8564 30.0564C77.5876 29.3253 77.9988 28.334 78 27.3V3.9C77.9988 2.86601 77.5876 1.87471 76.8564 1.14357C76.1253 0.412436 75.134 0.001169 74.1 0ZM75.4 27.3C75.3996 27.6447 75.2625 27.9751 75.0188 28.2188C74.7751 28.4625 74.4447 28.5996 74.1 28.6H53.3V31.2H56.3807L49.4 37.4051V29.9C49.4 29.5552 49.263 29.2246 49.0192 28.9808C48.7754 28.737 48.4448 28.6 48.1 28.6H42.9C42.5553 28.5996 42.2249 28.4625 41.9812 28.2188C41.7375 27.9751 41.6004 27.6447 41.6 27.3V3.9C41.6004 3.55534 41.7375 3.22491 41.9812 2.9812C42.2249 2.73748 42.5553 2.60039 42.9 2.6H74.1C74.4447 2.60039 74.7751 2.73748 75.0188 2.9812C75.2625 3.22491 75.3996 3.55534 75.4 3.9V27.3ZM57.2 10.4H59.8V13H57.2V10.4ZM59.8 15.6H57.2V20.8H59.8V15.6ZM52.7221 6.95272C54.4323 5.80995 56.4431 5.2 58.5 5.2C61.2573 5.20311 63.9008 6.29982 65.8505 8.24953C67.8002 10.1992 68.8969 12.8427 68.9 15.6C68.9 17.6569 68.2901 19.6677 67.1473 21.3779C66.0045 23.0882 64.3803 24.4212 62.4799 25.2083C60.5796 25.9955 58.4885 26.2015 56.4711 25.8002C54.4537 25.3989 52.6006 24.4084 51.1461 22.9539C49.6916 21.4994 48.7011 19.6463 48.2998 17.6289C47.8985 15.6115 48.1045 13.5204 48.8917 11.6201C49.6788 9.71974 51.0118 8.09548 52.7221 6.95272ZM54.1666 22.0855C55.4493 22.9425 56.9573 23.4 58.5 23.4C60.568 23.3977 62.5506 22.5751 64.0129 21.1129C65.4752 19.6506 66.2977 17.668 66.3 15.6C66.3 14.0573 65.8425 12.5493 64.9855 11.2666C64.1284 9.98385 62.9102 8.9841 61.4849 8.39374C60.0597 7.80338 58.4913 7.64891 56.9783 7.94987C55.4652 8.25084 54.0754 8.99372 52.9846 10.0846C51.8937 11.1754 51.1508 12.5652 50.8499 14.0783C50.5489 15.5913 50.7034 17.1597 51.2937 18.5849C51.8841 20.0102 52.8839 21.2284 54.1666 22.0855Z" fill="#2F387B"/>
</svg>
