<svg width="76" height="80" fill="none" xmlns="http://www.w3.org/2000/svg"><path fill-rule="evenodd" clip-rule="evenodd" d="M0 29.823h6.025v-2.33a17.673 17.673 0 01-2.897-9.715C3.128 7.975 11.104 0 20.907 0c9.41 0 17.135 7.35 17.738 16.61h5.121c6.1 0 11.848-2.27 16.285-6.409V5.093h4.683v13.882a13.781 13.781 0 016.771 4.052 13.773 13.773 0 013.628 9.33c0 3.464-1.289 6.777-3.628 9.33a13.782 13.782 0 01-6.771 4.051v13.81H60.05v-5.103c-4.427-4.096-10.147-6.342-16.213-6.342h-9.592v9.234h-4.121L36.368 80h-15.81l-6.244-22.663h-3.85V46.234l-4.44-4.438v-7.29H0v-4.683zM14.271 43.42h19.731V29.79c-3.252 3.543-7.919 5.767-13.095 5.767a17.68 17.68 0 01-10.2-3.225v7.525l3.564 3.564zm6.636-38.737c-7.221 0-13.096 5.874-13.096 13.095 0 7.221 5.875 13.096 13.096 13.096 7.22 0 13.095-5.875 13.095-13.096 0-7.22-5.875-13.095-13.095-13.095zm47.146 33.839a9.101 9.101 0 002.397-6.165 9.13 9.13 0 00-5.717-8.467v16.933a9.129 9.129 0 003.32-2.301zm-8.002-22.315a28.247 28.247 0 01-10.547 4.512v23.26a28.247 28.247 0 0110.547 4.477V16.207zM44.82 43.44V21.272c-.35.012-6.136.02-6.136.02V43.42s5.81.008 6.136.019zm-15.257 9.216v-4.552H15.146v4.552h14.418zm-5.44 22.662h6.097l-4.953-17.98H19.17l4.954 17.98zm-4.575-55.28l-.716-10.554h4.296l-.716 10.554h-2.864zm-.716 4.447a2.182 2.182 0 104.365 0 2.182 2.182 0 00-4.365 0z" fill="#2F387B"/></svg>