<svg width="20" height="20" fill="none" xmlns="http://www.w3.org/2000/svg"><path d="M10.004 0H10C4.484 0 0 4.484 0 10c0 2.188.703 4.215 1.902 5.86L.656 19.573l3.844-1.23A9.898 9.898 0 0010.004 20C15.516 20 20 15.516 20 10S15.516 0 10.004 0z" fill="#4CAF50"/><path d="M15.82 14.121c-.242.68-1.199 1.246-1.96 1.41-.524.11-1.204.2-3.505-.754-2.937-1.218-4.832-4.203-4.98-4.398-.14-.195-1.188-1.582-1.188-3.016 0-1.433.731-2.133 1.024-2.433.242-.246.64-.36 1.023-.36.125 0 .235.008.336.012.293.012.442.031.637.492.242.582.828 2.016.898 2.164.07.149.141.348.043.543-.093.2-.175.29-.324.457-.148.168-.289.301-.433.485-.137.16-.29.328-.118.62.172.29.758 1.247 1.622 2.016 1.117.993 2.02 1.313 2.343 1.446.242.101.528.078.703-.11.223-.242.5-.64.782-1.035.199-.281.453-.316.718-.219.27.094 1.7.801 1.993.946.293.148.488.218.558.34.07.132.07.71-.172 1.394z" fill="#FAFAFA"/></svg>